<?xml version="1.0" encoding="utf-8"?>
<!-- Generator: Adobe Illustrator 16.0.0, SVG Export Plug-In . SVG Version: 6.00 Build 0)  -->
<!DOCTYPE svg PUBLIC "-//W3C//DTD SVG 1.1//EN" "http://www.w3.org/Graphics/SVG/1.1/DTD/svg11.dtd">
<svg version="1.1" id="Layer_1" xmlns="http://www.w3.org/2000/svg" xmlns:xlink="http://www.w3.org/1999/xlink" width="100px" height="100px" x="0px" y="0px" viewBox="0 0 500 500" enable-background="new 0 0 500 500" xml:space="preserve">
    <g id="Garra">
        <circle fill="#3C4043" cx="250" cy="250" r="230"/>
      	<path id="Tuerca" fill="#32A0D2" d="M253.648,246.146c0,19.091,15.609,34.575,34.75,34.575c19.162,0,34.697-15.484,34.697-34.575
      		c0-19.223-15.535-34.768-34.697-34.768C269.261,211.378,253.648,226.922,253.648,246.146z M302.088,247.112l-7.71,11.283
      		l-13.656-0.98l-5.989-12.23l7.74-11.323l13.566,0.849L302.088,247.112z	">
          <animateTransform
             type="rotate"
             fill="remove"
             restart="always"
             calcMode="linear"
             additive="replace"
             accumulate="none"
             repeatCount="indefinite"
             dur="5s"
             begin="0s"
             from="0 288.372 246.05"
             to="360 288.372 246.05" 
             attributeName="transform">
          </animateTransform>
      	</path>

      	<path id="Cuerpo" fill="#32A0D2" d="M250.007,464.717c41.587,0,80.262-11.985,113.162-32.434l-69.115-117.512
      		c40.001-6.325,57.65-29.951,58.205-60.514l97.235,74.771c9.729-24.494,15.215-51.072,15.215-78.999
      		c0-118.627-96.102-214.748-214.702-214.748c-118.587,0-214.716,96.122-214.716,214.748
      		C35.294,368.608,131.419,464.717,250.007,464.717z M340.454,246.146c0,28.672-23.325,51.944-52.056,51.944
      		c-28.708,0-52.006-23.272-52.006-51.944c0-28.776,23.298-52.088,52.006-52.088C317.129,194.058,340.454,217.371,340.454,246.146z"
      		/>

      	<path id="G-down" fill="#3C4043" d="M140.683,312.765l48.097-5.08l34.649-52.11c0.701,26.442,21.624,52.46,57.049,57.539
      		l-78.786,44.13l-77.799-32.143L140.683,312.765z">
          <animateTransform
             type="rotate"
             fill="remove"
             restart="always"
             calcMode="linear"
             additive="replace"
             accumulate="none"
             repeatCount="indefinite"
             dur="2s"
             begin="0s"
             values="
                -10,288.372, 246.05;
                40,288.372, 246.05;
                -10,288.372, 246.05
              "
             attributeName="transform">
          </animateTransform>
        </path>
      	<path id="G-up" fill="#3C4043" d="M260.611,107.402l49.471,79.442c-33.039-18.025-64.134-1.091-76.396,22.829l-6.361-63.316
      		l-41.056-25.474l-9.633-18.443L260.611,107.402z">
          <animateTransform
             type="rotate"
             fill="remove"
             restart="always"
             calcMode="linear"
             additive="replace"
             accumulate="none"
             repeatCount="indefinite"
             dur="2s"
             begin="0s"
             values="
                10,294.557,245.414;
                -20,294.557,245.414;
                10,294.557,245.414
              "
             attributeName="transform">
          </animateTransform>
        </path>

<!--       <circle id="anillo" fill="#020000" cx="288.372" cy="246.05" r="3.083"/> -->

        <circle id="anillo" fill="none" stroke="#3C4042" stroke-width="30" stroke-miterlimit="10" stroke-dasharray="210.5154,84.2061" cx="250" cy="250" r="235">
           <animateTransform
               type="rotate"
               fill="remove"
               restart="always"
               calcMode="linear"
               additive="replace"
               accumulate="none"
               repeatCount="indefinite"
               dur="3s"
               begin="0s"
               from="0 250 250"
               to="360 250 250" 
               attributeName="transform">
            </animateTransform>
        </circle>
  </g>
</svg>
