<svg version="1.1" id="logo" xmlns="http://www.w3.org/2000/svg" xmlns:xlink="http://www.w3.org/1999/xlink" x="0px" y="0px"
	 width="990px" height="370px" viewBox="-494.5 583.5 990 370" enable-background="new -494.5 583.5 990 370" xml:space="preserve">

	<g id="miguelo">
		<polygon id="m1" fill="#32A0D2" points="-433.833,658.208 -480.084,782.761 -435.438,782.761 -407.75,704.942 	"/>
		<path id="m2" fill="#32A0D2" d="M-359.394,776.754l28.075-48.104l17.294-30.834l27.671,79.258h44.658l-66.35-178.62l-39.02,71.071
			c-5.956,11.645-10.041,20.451-12.885,26.424l-51.9-97.496l-18.796,50.647L-359.394,776.754z"/>
		<path id="i" fill="#32A0D2" d="M-202.759,777.072h-41.854V599.38h41.848v177.692H-202.759L-202.759,777.072z"/>
		<path id="g" fill="#32A0D2" d="M-28.443,681.562c1.773,27.158-5.599,49.612-22.139,67.337c-16.234,17.698-38.1,26.571-65.27,26.571
			c-25.097,0-45.771-8.27-62.61-25.112c-16.828-16.828-25.097-37.774-25.097-62.888c0-24.521,8.558-45.487,25.396-62.321
			c16.817-16.817,37.816-25.387,62.316-25.387c29.835,0,54.628,13.58,74.411,40.739l-31.583,23.345
			c-11.844-16.251-25.974-24.515-42.828-24.515c-13.58,0-25.098,4.722-34.249,13.879c-9.156,9.146-13.879,20.674-13.879,34.264
			c0,13.88,4.423,25.681,13.575,34.826c9.167,9.172,20.664,13.59,34.553,13.59c15.657,0,27.757-4.994,36.332-14.76h-9.456
			c-2.949,0-7.394,0-13.292-0.289c-5.625-0.299-10.043-0.299-13.003-0.299h-9.435v-39.27L-28.443,681.562z"/>
		<path id="u" fill="#32A0D2" d="M101.105,700.606c0,19.344-3.152,34.08-9.119,43.88C79.084,765.05,60.844,775.47,36.644,775.47
			c-25.179,0-46.898-13.777-57.879-35.89c-4.409-8.9-6.622-22.406-6.622-40.806V599.38h42.145v99.678
			c0,12.318,0.632,19.959,2.229,23.021c4.062,8.312,10.673,12.286,20.127,12.286c8.478,0,14.758-3.686,19.173-10.731
			c2.194-3.996,3.436-11.675,3.436-23.027V599.38h41.842v101.227H101.105L101.105,700.606z"/>
		<path id="e" fill="#32A0D2" d="M207.873,775.471h-97.814V599.38h97.814v41.692h-57.651v26.43h42.872v41.704h-42.872v24.898h57.651
			V775.471z"/>
		<path id="l" fill="#32A0D2" d="M314.111,775.312l-97.496,0.314V599.38h42.16v134.469h55.336V775.312L314.111,775.312z"/>

		<g id="o">
			<path id="Tuerca" fill="#32A0D2" d="M389.668,686.624c0,7.926,6.479,14.354,14.423,14.354c7.951,0,14.402-6.43,14.402-14.354
				c0-7.977-6.445-14.428-14.402-14.428C396.146,672.195,389.668,678.646,389.668,686.624z M409.773,687.026l-3.199,4.684
				l-5.666-0.408l-2.489-5.076l3.211-4.699l5.629,0.354L409.773,687.026z"/>

			<defs>
				<filter id="Adobe_OpacityMaskFilter" filterUnits="userSpaceOnUse" x="299.041" y="599.113" width="178.224" height="178.225">
					<feColorMatrix  type="matrix" values="1 0 0 0 0  0 1 0 0 0  0 0 1 0 0  0 0 0 1 0"/>
				</filter>
			</defs>

			<mask maskUnits="userSpaceOnUse" x="299.041" y="599.113" width="178.224" height="178.225" id="fondoMask">
				<path id="fondoMaskShape" fill="#FFFFFF" filter="url(#Adobe_OpacityMaskFilter)" d="M388.157,777.338
					c17.262,0,33.311-4.971,46.965-13.461l-28.685-48.769c16.604-2.624,23.928-12.432,24.157-25.118l40.356,31.036
					c4.036-10.162,6.313-21.198,6.313-32.783c0-49.233-39.887-89.13-89.108-89.13c-49.219,0-89.115,39.892-89.115,89.13
					C299.042,737.452,338.939,777.338,388.157,777.338z M425.697,686.624c0,11.898-9.683,21.559-21.606,21.559
					c-11.913,0-21.584-9.661-21.584-21.559c0-11.945,9.671-21.622,21.584-21.622C416.016,665.007,425.697,674.684,425.697,686.624z"
					/>
				<g id="Garra">
					<path id="G2" d="M392.559,628.989l20.534,32.971c-13.712-7.481-26.618-0.45-31.706,9.472l-2.639-26.278l-17.043-10.57
						l-3.999-7.653L392.559,628.989z"/>
					<path id="G1" d="M342.782,714.272l19.959-2.107l14.381-21.631c0.292,10.973,8.975,21.772,23.676,23.879l-32.699,18.318
						l-32.29-13.342L342.782,714.272z"/>
				</g>
			</mask>

			<path id="fondo" mask="url(#fondoMask)" fill="#32A0D2" d="M388.157,777.338c17.262,0,33.311-4.971,46.965-13.461l-28.685-48.769
				c16.604-2.624,23.928-12.432,24.157-25.118l40.356,31.036c4.036-10.162,6.313-21.198,6.313-32.783
				c0-49.233-39.887-89.13-89.108-89.13c-49.219,0-89.115,39.892-89.115,89.13C299.042,737.452,338.939,777.338,388.157,777.338z
				 M425.697,686.624c0,11.898-9.683,21.559-21.606,21.559c-11.913,0-21.584-9.661-21.584-21.559
				c0-11.945,9.671-21.622,21.584-21.622C416.016,665.007,425.697,674.684,425.697,686.624z"/>
		</g>
	</g>
	<g id="ruiz">
		<path id="r2" fill="#818081" d="M-293.493,910.541l-12.9-21.473c0.231-0.142,0.436-0.311,0.672-0.462l-54.807-98.165l-16.278-0.104
			v155.396h36.571v-42.101l25.029,42.101h41.376L-293.493,910.541z"/>
		<path id="r1" fill="#818081" d="M-298.335,887.201c15.397-10.131,23.293-24.589,23.293-43.512c0-14.554-5.226-27.232-15.397-37.41
			c-10.172-10.183-22.826-15.407-37.395-15.687l-24.483-0.131L-298.335,887.201z"/>
		<path id="u_1_" fill="#818081" d="M-163.963,879.43c0,17.117-2.765,30.181-7.99,38.881c-11.258,18.213-27.223,27.422-48.401,27.422
			c-22.007,0-40.988-12.219-50.594-31.776c-3.854-7.887-5.755-19.854-5.755-36.158v-88.08h36.838v88.328
			c0,10.911,0.54,17.667,1.915,20.417c3.572,7.336,9.364,10.857,17.595,10.857c7.434,0,12.932-3.245,16.761-9.521
			c1.936-3.509,3.043-10.323,3.043-20.368v-89.713h36.586v89.712H-163.963z"/>
		<path id="i_1_" fill="#818081" d="M-118.441,945.731h-36.586V789.717h36.586V945.731z"/>
		<path id="z" fill="#818081" d="M6.949,789.717l-63.284,119.229H1.178v36.787h-118.556l63.535-119.219h-55.556v-36.797H6.949
			L6.949,789.717z"/>
	</g>
	<g id="text">

		<text transform="matrix(0.9541 0 0 1 34.3174 863.4346)" fill="#818081" font-family="'ProximaNova-Light'" font-size="63.4041">MECHATRONIC</text>
		<text transform="matrix(0.9541 0 0 1 34.3174 939.5195)" fill="#818081" font-family="'ProximaNova-Light'" font-size="63.4041">ENGINEER</text>

		<!-- <text transform="matrix(0.9541 0 0 1 34.3174 863.4346)" fill="#818081" font-family="'ProximaNova-Light'" font-size="63.4041">FRONT-END</text>
		<text transform="matrix(0.9541 0 0 1 34.3174 939.5195)" fill="#818081" font-family="'ProximaNova-Light'" font-size="63.4041">DEVELOPER</text> -->

		<!-- <text transform="matrix(0.9541 0 0 1 34.3174 863.4346)" fill="#818081" font-family="'ProximaNova-Light'" font-size="63.4041">iOS</text>
		<text transform="matrix(0.9541 0 0 1 34.3174 939.5195)" fill="#818081" font-family="'ProximaNova-Light'" font-size="63.4041">DEVELOPER</text> -->

	</g>
	<circle id="Point" fill="#020607" cx="404.081" cy="686.588" r="4.707"/>
</svg>
