<?xml version="1.0" encoding="utf-8"?>
<!-- Generator: Adobe Illustrator 16.0.0, SVG Export Plug-In . SVG Version: 6.00 Build 0)  -->
<!DOCTYPE svg PUBLIC "-//W3C//DTD SVG 1.1//EN" "http://www.w3.org/Graphics/SVG/1.1/DTD/svg11.dtd">
<svg version="1.1" id="Layer_1" xmlns="http://www.w3.org/2000/svg" xmlns:xlink="http://www.w3.org/1999/xlink" x="0px" y="0px"
	 width="100px" height="62.167px" viewBox="0 0 100 62.167" enable-background="new 0 0 100 62.167" xml:space="preserve">
<g>
	<polyline fill="none" stroke="#818181" stroke-width="5" stroke-linecap="round" stroke-miterlimit="10" points="94.834,33.323 
		50,56.989 5.166,33.323 	"/>
	<g>
		<path fill="#818181" d="M25.244,15.211c-0.072,1.176-0.528,2.112-1.344,2.808c-0.792,0.696-1.8,1.056-2.976,1.056
			c-2.688,0-4.296-1.632-4.657-4.344l3.168-0.432c0.072,0.456,0.24,0.84,0.552,1.152c0.336,0.36,0.72,0.504,1.152,0.432
			c0.552-0.072,0.84-0.384,0.888-0.936c0.048-0.456-0.216-0.816-0.768-1.056l-1.416-0.456c-0.504-0.168-0.984-0.408-1.416-0.768
			c-1.152-0.912-1.68-2.064-1.561-3.433v0.024c0.072-1.056,0.504-1.944,1.272-2.64c0.792-0.696,1.704-1.056,2.784-1.056
			c1.728,0,3.096,0.888,4.104,2.64l-2.785,1.561c-0.36-0.72-0.84-1.056-1.44-0.984c-0.456,0.048-0.696,0.288-0.72,0.744
			c-0.024,0.408,0.216,0.696,0.72,0.864H20.78l1.392,0.456c0.552,0.168,1.032,0.432,1.416,0.744
			c1.224,0.984,1.776,2.208,1.656,3.648V15.211z"/>
		<path fill="#818181" d="M40.124,15.955c-1.632,2.328-3.72,3.504-6.24,3.504c-2.04,0-3.745-0.672-5.112-2.041
			c-1.368-1.368-2.041-3.072-2.041-5.112c0-1.992,0.696-3.696,2.064-5.064c1.416-1.368,3.096-2.064,5.088-2.064
			c2.424,0,4.44,1.104,6.048,3.312l-2.592,1.896c-0.96-1.32-2.112-1.992-3.456-1.992c-1.128,0-2.064,0.384-2.808,1.128
			c-0.744,0.744-1.128,1.68-1.128,2.784c0,1.128,0.384,2.064,1.128,2.808c0.744,0.744,1.68,1.128,2.808,1.128
			c1.44,0,2.64-0.696,3.6-2.112L40.124,15.955z"/>
		<path fill="#818181" d="M50.66,19.147h-3.745l-2.184-3.672v3.672h-3.192V5.586l3.816,0.024c1.272,0.024,2.376,0.48,3.264,1.368
			c0.888,0.888,1.344,1.992,1.344,3.265c0,1.752-0.768,3.072-2.28,3.96L50.66,19.147z"/>
		<path fill="#818181" d="M64.051,17.395c-1.367,1.368-3.072,2.064-5.064,2.064c-2.016,0-3.719-0.696-5.088-2.064
			c-1.367-1.368-2.039-3.048-2.039-5.088c0-1.992,0.695-3.672,2.064-5.041c1.391-1.392,3.072-2.088,5.062-2.088
			c1.992,0,3.697,0.696,5.064,2.064c1.369,1.368,2.064,3.072,2.064,5.064C66.115,14.323,65.42,16.027,64.051,17.395z"/>
		<path fill="#818181" d="M74.924,19.124l-7.441,0.024V5.586h3.217v10.345h4.225V19.124z"/>
		<path fill="#818181" d="M83.732,19.124l-7.441,0.024V5.586h3.217v10.345h4.225V19.124z"/>
		<path fill="#818181" d="M30.248,32.203c-1.296,1.296-2.904,1.944-4.825,1.944h-4.2V20.586l4.2,0.024
			c1.92,0.024,3.528,0.672,4.825,1.968c1.32,1.296,1.968,2.904,1.968,4.801C32.216,29.299,31.568,30.907,30.248,32.203z"/>
		<path fill="#818181" d="M45.608,32.395c-1.368,1.368-3.072,2.064-5.064,2.064c-2.016,0-3.72-0.696-5.088-2.064
			s-2.04-3.048-2.04-5.088c0-1.992,0.696-3.672,2.064-5.041c1.392-1.392,3.072-2.088,5.064-2.088s3.696,0.696,5.064,2.064
			s2.064,3.072,2.064,5.064C47.672,29.323,46.977,31.027,45.608,32.395z"/>
		<path fill="#818181" d="M67.496,20.586l-5.305,13.609l-3.936-7.128c-0.191,0.408-0.504,1.056-0.961,1.896l-3,5.232l-5.28-13.609
			h3.409l2.328,6.289l3.504-6.36l3.48,6.36c0.551-1.416,1.32-3.48,2.352-6.289H67.496z"/>
		<path fill="#818181" d="M78.871,34.195l-6.744-6.385v6.337H68.91V20.49l6.746,6.408v-6.312h3.215V34.195z"/>
	</g>
</g>
</svg>
