<?xml version="1.0" encoding="utf-8"?>
<!-- Generator: Adobe Illustrator 16.0.0, SVG Export Plug-In . SVG Version: 6.00 Build 0)  -->
<!DOCTYPE svg PUBLIC "-//W3C//DTD SVG 1.1//EN" "http://www.w3.org/Graphics/SVG/1.1/DTD/svg11.dtd">
<svg version="1.1" id="Layer_1" xmlns="http://www.w3.org/2000/svg" xmlns:xlink="http://www.w3.org/1999/xlink" x="0px" y="0px"
	 viewBox="200 250 300 300" enable-background="new 200 250 300 300" xml:space="preserve">
	<path fill="#32A0D2" d="M316.819,424.349c-2.904,2.819-6.49,4.269-10.844,4.354l-5.037,0.082h-9.815v-48.23l14.427,0.085
		c4.099,0,7.516,1.367,10.328,4.184c2.819,2.814,4.265,6.229,4.265,10.243c0,2.819-0.939,5.638-2.731,8.451
		c2.474,2.987,3.755,6.312,3.755,9.989C321.173,417.861,319.721,421.446,316.819,424.349z"/>
	<path fill="#32A0D2" d="M367.774,422.32c-4.802,4.8-10.783,7.238-17.77,7.238c-7.077,0-13.058-2.442-17.86-7.238
		c-4.802-4.805-7.16-10.702-7.16-17.862c0-6.989,2.44-12.887,7.243-17.689c4.885-4.883,10.781-7.328,17.774-7.328
		c6.989,0,12.971,2.44,17.771,7.243s7.24,10.781,7.24,17.772C375.02,411.535,372.574,417.516,367.774,422.32z"/>
	<path fill="#32A0D2" d="M420.834,408.728c0,5.373-0.854,9.387-2.474,12.206c-3.5,5.721-8.54,8.625-15.025,8.625
		c-6.832,0-12.724-3.846-15.713-9.992c-1.194-2.474-1.795-6.228-1.795-11.35v-27.664h11.438v27.746c0,3.501,0.17,5.634,0.599,6.402
		c1.023,2.302,2.821,3.413,5.463,3.413c2.299,0,4.009-1.024,5.201-2.989c0.605-1.106,0.943-3.242,0.943-6.402v-28.167h11.35v28.172
		H420.834z"/>
	<path fill="#32A0D2" d="M462.04,392.291h-8.881v36.882h-11.348v-36.882h-8.455v-11.352h28.688L462.04,392.291L462.04,392.291z"/>
	<g>
		<polygon fill="#32A0D2" points="254.108,396.369 237.956,429.138 249.638,429.138 253.983,419.739 265.479,419.739 	"/>
		<polygon fill="#32A0D2" points="261.79,380.297 256.06,391.921 272.167,425.036 273.996,428.785 286.632,428.785 	"/>
	</g>
	<circle id="bg" fill="#424242" cx="350" cy="404.497" r="18.141"/>
</svg>
