<?xml version="1.0" encoding="utf-8"?>
<!-- Generator: Adobe Illustrator 16.0.0, SVG Export Plug-In . SVG Version: 6.00 Build 0)  -->
<!DOCTYPE svg PUBLIC "-//W3C//DTD SVG 1.1//EN" "http://www.w3.org/Graphics/SVG/1.1/DTD/svg11.dtd">
<svg version="1.1" id="Layer_1" xmlns="http://www.w3.org/2000/svg" xmlns:xlink="http://www.w3.org/1999/xlink" x="0px" y="0px"
	 viewBox="0 0 193.347 40.8" enable-background="new 0 0 193.347 40.8" xml:space="preserve">
	 <!-- width="193.347px" height="40.8px" -->
<g>
	<path fill="#32A0D2" d="M30.025,27.975c-3.4,4.851-7.75,7.301-13,7.301c-4.3,0-7.851-1.4-10.701-4.2c-2.8-2.851-4.2-6.4-4.2-10.701
		c0-4.2,1.45-7.7,4.3-10.55c2.851-2.851,6.4-4.301,10.601-4.301c5.05,0,9.25,2.3,12.601,6.9l-5.4,3.95c-2-2.75-4.4-4.15-7.2-4.15
		c-2.35,0-4.3,0.801-5.851,2.351s-2.35,3.45-2.35,5.8c0,2.351,0.8,4.301,2.35,5.851c1.55,1.551,3.5,2.351,5.851,2.351
		c3,0,5.5-1.45,7.5-4.4L30.025,27.975z"/>
	<path fill="#32A0D2" d="M58.575,30.976c-2.85,2.85-6.4,4.3-10.55,4.3c-4.2,0-7.75-1.45-10.601-4.3c-2.851-2.851-4.25-6.351-4.25-10.602
		c0-4.149,1.45-7.65,4.3-10.5c2.9-2.9,6.4-4.351,10.551-4.351c4.15,0,7.7,1.45,10.55,4.301c2.851,2.85,4.3,6.4,4.3,10.55
		C62.875,24.576,61.426,28.125,58.575,30.976z"/>
	<path fill="#32A0D2" d="M87.224,34.726L73.173,21.425v13.2h-6.7V6.174l14.051,13.351V6.375h6.7V34.726z"/>
	<path fill="#32A0D2" d="M107.574,13.025h-5.2v21.601h-6.65V13.025h-4.951v-6.65h16.801V13.025z"/>
	<path fill="#32A0D2" d="M139.274,34.625h-7.4l-2.9-5.95h-8.1l-2.75,5.95h-7.4l14.001-28.401L139.274,34.625z"/>
	<path fill="#32A0D2" d="M170.874,27.975c-3.4,4.851-7.75,7.301-13,7.301c-4.25,0-7.801-1.4-10.651-4.25c-2.85-2.851-4.25-6.4-4.25-10.651
		c0-4.149,1.45-7.7,4.3-10.55c2.95-2.851,6.451-4.301,10.601-4.301c5.05,0,9.25,2.3,12.601,6.9l-5.4,3.95c-2-2.75-4.4-4.15-7.2-4.15
		c-2.35,0-4.3,0.801-5.851,2.351s-2.35,3.5-2.35,5.8c0,2.351,0.8,4.301,2.35,5.851c1.55,1.551,3.5,2.351,5.851,2.351
		c3,0,5.5-1.45,7.5-4.4L170.874,27.975z"/>
	<path fill="#32A0D2" d="M191.223,13.025h-5.2v21.601h-6.65V13.025h-4.951v-6.65h16.801V13.025z"/>
</g>
</svg>
