<?xml version="1.0" encoding="utf-8"?>
<!-- Generator: Adobe Illustrator 16.0.0, SVG Export Plug-In . SVG Version: 6.00 Build 0)  -->
<!DOCTYPE svg PUBLIC "-//W3C//DTD SVG 1.1//EN" "http://www.w3.org/Graphics/SVG/1.1/DTD/svg11.dtd">
<svg version="1.1" id="Layer_1" xmlns="http://www.w3.org/2000/svg" xmlns:xlink="http://www.w3.org/1999/xlink" x="0px" y="0px"
	 viewBox="0 0 215.247 40.8" enable-background="new 0 0 215.247 40.8" xml:space="preserve">
	 <!-- width="215.247px" height="40.8px" -->
<g>
	<path fill="#424242" d="M16.925,22.925c-1.85,1.85-4.101,2.75-6.801,2.75h-1.3v8.95h-6.7V6.375l8,0.05c2.65,0.05,4.951,1,6.801,2.85
		c1.851,1.851,2.8,4.15,2.8,6.801C19.725,18.825,18.775,21.075,16.925,22.925z"/>
	<path fill="#424242" d="M48.275,30.976c-2.851,2.85-6.4,4.3-10.551,4.3c-4.2,0-7.75-1.45-10.601-4.3c-2.851-2.851-4.25-6.351-4.25-10.602
		c0-4.149,1.45-7.65,4.3-10.5c2.9-2.9,6.4-4.351,10.551-4.351s7.7,1.45,10.551,4.301c2.851,2.85,4.3,6.4,4.3,10.55
		C52.575,24.576,51.126,28.125,48.275,30.976z"/>
	<path fill="#424242" d="M75.175,34.625h-7.801l-4.55-7.65v7.65h-6.65V6.375l7.95,0.05c2.65,0.05,4.95,1,6.801,2.85c1.85,1.851,2.8,4.15,2.8,6.801
		c0,3.65-1.601,6.4-4.75,8.251L75.175,34.625z"/>
	<path fill="#424242" d="M95.524,13.025h-5.2v21.601h-6.65V13.025h-4.951v-6.65h16.802V13.025z"/>
	<path fill="#424242" d="M115.273,13.025h-9.551v4.25h7.101v6.7h-7.101v10.65h-6.65V6.324h16.201V13.025z"/>
	<path fill="#424242" d="M143.823,30.976c-2.85,2.85-6.4,4.3-10.55,4.3c-4.2,0-7.751-1.45-10.601-4.3c-2.851-2.851-4.251-6.351-4.251-10.602
		c0-4.149,1.45-7.65,4.301-10.5c2.9-2.9,6.4-4.351,10.551-4.351c4.149,0,7.7,1.45,10.55,4.301c2.851,2.85,4.301,6.4,4.301,10.55
		C148.124,24.576,146.674,28.125,143.823,30.976z"/>
	<path fill="#424242" d="M167.123,34.576l-15.501,0.05V6.375h6.7v21.551h8.801V34.576z"/>
	<path fill="#424242" d="M178.622,34.625h-6.65V6.375h6.65V34.625z"/>
	<path fill="#424242" d="M208.823,30.976c-2.851,2.85-6.4,4.3-10.551,4.3c-4.2,0-7.75-1.45-10.601-4.3c-2.851-2.851-4.25-6.351-4.25-10.602
		c0-4.149,1.45-7.65,4.3-10.5c2.9-2.9,6.4-4.351,10.551-4.351s7.7,1.45,10.551,4.301c2.851,2.85,4.3,6.4,4.3,10.55
		C213.123,24.576,211.674,28.125,208.823,30.976z"/>
</g>
</svg>
