<?xml version="1.0" encoding="utf-8"?>
<!-- Generator: Adobe Illustrator 16.0.0, SVG Export Plug-In . SVG Version: 6.00 Build 0)  -->
<!DOCTYPE svg PUBLIC "-//W3C//DTD SVG 1.1//EN" "http://www.w3.org/Graphics/SVG/1.1/DTD/svg11.dtd">
<svg version="1.1" id="Layer_1" xmlns="http://www.w3.org/2000/svg" xmlns:xlink="http://www.w3.org/1999/xlink" x="0px" y="0px"
	 viewBox="0 0 236.797 40.8" enable-background="new 0 0 236.797 40.8" xml:space="preserve">
	<path fill="#32A0D2" d="M33.527,6.375c-1.751,4.75-3.35,9.101-4.9,13.101L21.376,6.225l-5.802,10.532l3.084,8.317l0.715-1.248
		 c0.601-1.051,1.25-2.4,2-3.951l8.201,14.852l11.05-28.352H33.527z"/>
	<polygon fill="#32A0D2" points="14.087,19.456 14.076,19.476 9.225,6.375 2.124,6.375 13.124,34.726 17.148,27.708 	"/>
	<path fill="#32A0D2" d="M69.174,30.976c-2.85,2.85-6.4,4.3-10.55,4.3c-4.2,0-7.751-1.45-10.601-4.3
		c-2.851-2.852-4.251-6.352-4.251-10.602c0-4.149,1.45-7.65,4.301-10.5c2.9-2.9,6.4-4.351,10.551-4.351c4.149,0,7.7,1.45,10.55,4.301
		c2.851,2.85,4.301,6.4,4.301,10.55C73.475,24.576,72.025,28.125,69.174,30.976z"/>
	<path fill="#32A0D2" d="M96.074,34.625h-7.8l-4.551-7.649v7.649h-6.65V6.375l7.95,0.05c2.65,0.05,4.951,1,6.801,2.85
		c1.851,1.851,2.8,4.15,2.8,6.801c0,3.65-1.6,6.4-4.75,8.251L96.074,34.625z"/>
	<path fill="#32A0D2" d="M121.124,34.625h-8.45l-6.301-8.149v8.149h-6.7V6.375h6.7v8.5l5.851-8.5h8.051l-9.9,14.351L121.124,34.625z"
		/>
	<path fill="#32A0D2" d="M140.873,13.025h-9.551v4.25h7.101v6.7h-7.101v10.649h-6.65v-28.3h16.201V13.025z"/>

	<path fill="#32A0D2" d="M159.873,34.576l-15.501,0.051V6.375h6.7v21.55h8.801V34.576L159.873,34.576z"/>
	<path fill="#32A0D2" d="M188.423,30.976c-2.851,2.85-6.399,4.3-10.551,4.3c-4.2,0-7.75-1.45-10.601-4.3
		c-2.852-2.852-4.25-6.352-4.25-10.602c0-4.149,1.449-7.65,4.299-10.5c2.9-2.9,6.4-4.351,10.552-4.351s7.7,1.45,10.551,4.301
		c2.851,2.85,4.3,6.4,4.3,10.55C192.723,24.576,191.273,28.125,188.423,30.976z"/>
	<path fill="#32A0D2" d="M234.673,6.375l-11.05,28.352l-8.201-14.852c-0.398,0.851-1.05,2.201-2,3.951l-6.25,10.9L196.171,6.375
		h7.101l4.852,13.101l7.3-13.251l7.251,13.251c1.149-2.95,2.75-7.251,4.9-13.101H234.673z"/>
</svg>
