<?xml version="1.0" encoding="utf-8"?>
<!-- Generator: Adobe Illustrator 16.0.0, SVG Export Plug-In . SVG Version: 6.00 Build 0)  -->
<!DOCTYPE svg PUBLIC "-//W3C//DTD SVG 1.1//EN" "http://www.w3.org/Graphics/SVG/1.1/DTD/svg11.dtd">
<svg version="1.1" id="Ebene_1" xmlns="http://www.w3.org/2000/svg" xmlns:xlink="http://www.w3.org/1999/xlink" x="0px" y="0px"
	 width="757.59px" height="143.413px" viewBox="292.358 729.654 757.59 143.413"
	 enable-background="new 292.358 729.654 757.59 143.413" xml:space="preserve">
<g opacity="0.8">
	<path fill="#32A0D2" d="M420.167,798.809c0-12.703-13.275-21.145-29.501-18.762c-16.225,2.383-42.774,2.383-59,0
		c-16.225-2.383-29.499,6.059-29.499,18.762c0,12.701,13.274,21.1,29.499,18.666c16.226-2.436,42.775-2.436,59,0
		C406.892,819.908,420.167,811.51,420.167,798.809z"/>
</g>
<g>
	<path fill="#424242" d="M463.814,767.9V745.18h9.407c0.981,0,1.883,0.209,2.704,0.625c0.82,0.416,1.531,0.959,2.128,1.632
		c0.597,0.672,1.066,1.435,1.408,2.288c0.341,0.854,0.512,1.717,0.512,2.592c0,0.939-0.159,1.84-0.479,2.704
		s-0.769,1.627-1.344,2.288c-0.576,0.661-1.265,1.195-2.064,1.6c-0.801,0.406-1.691,0.608-2.672,0.608h-7.36v8.384H463.814z
		 M466.054,757.532h7.265c0.66,0,1.264-0.144,1.808-0.432s1.008-0.673,1.392-1.152c0.385-0.479,0.683-1.034,0.896-1.664
		c0.213-0.629,0.32-1.284,0.32-1.968c0-0.704-0.123-1.371-0.369-2c-0.245-0.629-0.575-1.179-0.991-1.648
		c-0.416-0.469-0.907-0.836-1.472-1.104c-0.566-0.267-1.158-0.4-1.776-0.4h-7.072V757.532z"/>
	<path fill="#424242" d="M487.302,768.221c-0.789,0-1.521-0.134-2.192-0.4s-1.258-0.635-1.76-1.104
		c-0.501-0.469-0.891-1.02-1.168-1.648s-0.416-1.307-0.416-2.031c0-0.726,0.171-1.398,0.512-2.017
		c0.342-0.618,0.822-1.152,1.44-1.601c0.618-0.447,1.354-0.794,2.208-1.039c0.854-0.246,1.792-0.369,2.816-0.369
		c0.853,0,1.717,0.076,2.592,0.225c0.875,0.149,1.652,0.363,2.336,0.641v-1.504c0-1.473-0.416-2.641-1.248-3.505
		s-1.984-1.296-3.456-1.296c-0.854,0-1.728,0.171-2.624,0.512c-0.896,0.342-1.803,0.832-2.72,1.473l-0.769-1.44
		c2.154-1.45,4.246-2.176,6.272-2.176c2.091,0,3.733,0.587,4.929,1.76c1.193,1.174,1.791,2.796,1.791,4.864v7.52
		c0,0.598,0.267,0.896,0.801,0.896v1.92c-0.363,0.064-0.641,0.096-0.832,0.096c-0.556,0-0.987-0.139-1.297-0.416
		c-0.309-0.277-0.475-0.66-0.496-1.152l-0.063-1.312c-0.769,1.003-1.733,1.771-2.896,2.304
		C489.898,767.953,488.646,768.221,487.302,768.221z M487.814,766.557c1.13,0,2.17-0.213,3.119-0.641
		c0.949-0.426,1.67-0.992,2.16-1.695c0.192-0.192,0.336-0.4,0.432-0.625c0.097-0.223,0.145-0.432,0.145-0.623v-2.721
		c-0.726-0.276-1.478-0.49-2.256-0.64c-0.779-0.149-1.574-0.224-2.385-0.224c-1.535,0-2.783,0.32-3.743,0.96s-1.44,1.483-1.44,2.528
		c0,0.512,0.102,0.991,0.305,1.439c0.202,0.447,0.479,0.838,0.832,1.168c0.352,0.331,0.772,0.592,1.264,0.784
		C486.736,766.461,487.259,766.557,487.814,766.557z"/>
	<path fill="#424242" d="M508.87,753.148c-1.472,0.043-2.753,0.447-3.841,1.216s-1.855,1.824-2.303,3.168V767.9h-2.177v-16.672
		h2.048v4c0.619-1.28,1.451-2.283,2.496-3.008s2.165-1.088,3.36-1.088c0.171,0,0.309,0.011,0.416,0.031V753.148z"/>
	<path fill="#424242" d="M515.75,768.221c-0.789,0-1.52-0.134-2.191-0.4s-1.26-0.635-1.76-1.104
		c-0.502-0.469-0.892-1.02-1.168-1.648c-0.278-0.629-0.416-1.307-0.416-2.031c0-0.726,0.17-1.398,0.512-2.017
		c0.341-0.618,0.82-1.152,1.439-1.601c0.619-0.447,1.354-0.794,2.208-1.039c0.853-0.246,1.792-0.369,2.816-0.369
		c0.853,0,1.717,0.076,2.592,0.225c0.874,0.149,1.653,0.363,2.336,0.641v-1.504c0-1.473-0.416-2.641-1.248-3.505
		s-1.983-1.296-3.456-1.296c-0.854,0-1.729,0.171-2.624,0.512c-0.896,0.342-1.803,0.832-2.72,1.473l-0.768-1.44
		c2.154-1.45,4.244-2.176,6.271-2.176c2.09,0,3.732,0.587,4.928,1.76c1.195,1.174,1.793,2.796,1.793,4.864v7.52
		c0,0.598,0.266,0.896,0.799,0.896v1.92c-0.362,0.064-0.64,0.096-0.832,0.096c-0.555,0-0.986-0.139-1.295-0.416
		c-0.311-0.277-0.476-0.66-0.496-1.152l-0.064-1.312c-0.768,1.003-1.733,1.771-2.896,2.304
		C518.348,767.953,517.094,768.221,515.75,768.221z M516.262,766.557c1.131,0,2.171-0.213,3.121-0.641
		c0.948-0.426,1.668-0.992,2.159-1.695c0.192-0.192,0.337-0.4,0.433-0.625c0.096-0.223,0.144-0.432,0.144-0.623v-2.721
		c-0.726-0.276-1.478-0.49-2.256-0.64c-0.779-0.149-1.573-0.224-2.384-0.224c-1.536,0-2.784,0.32-3.744,0.96
		s-1.439,1.483-1.439,2.528c0,0.512,0.1,0.991,0.303,1.439c0.203,0.447,0.48,0.838,0.832,1.168c0.353,0.331,0.773,0.592,1.265,0.784
		C515.185,766.461,515.707,766.557,516.262,766.557z"/>
	<path fill="#424242" d="M536.006,759.517c0-1.173,0.203-2.282,0.607-3.328c0.406-1.045,0.977-1.957,1.713-2.736
		c0.736-0.778,1.615-1.392,2.64-1.84s2.154-0.672,3.392-0.672c1.579,0,2.955,0.357,4.129,1.071c1.172,0.716,2.059,1.681,2.655,2.896
		l-2.112,0.672c-0.469-0.853-1.125-1.52-1.967-2c-0.844-0.479-1.777-0.72-2.801-0.72c-0.854,0-1.648,0.171-2.384,0.513
		c-0.736,0.341-1.376,0.805-1.92,1.391c-0.544,0.588-0.972,1.286-1.28,2.097c-0.31,0.812-0.464,1.696-0.464,2.656
		c0,0.938,0.16,1.823,0.479,2.655c0.32,0.832,0.758,1.553,1.312,2.16c0.555,0.608,1.2,1.088,1.936,1.44
		c0.736,0.353,1.521,0.528,2.353,0.528c0.532,0,1.062-0.074,1.584-0.225c0.522-0.148,1.008-0.357,1.456-0.624
		c0.447-0.267,0.832-0.57,1.152-0.911c0.319-0.342,0.543-0.705,0.672-1.089l2.144,0.64c-0.235,0.598-0.576,1.147-1.024,1.648
		c-0.447,0.502-0.976,0.939-1.584,1.312c-0.607,0.373-1.279,0.661-2.016,0.863c-0.736,0.203-1.499,0.305-2.288,0.305
		c-1.216,0-2.336-0.229-3.36-0.688c-1.023-0.458-1.909-1.088-2.655-1.888c-0.747-0.801-1.328-1.723-1.744-2.768
		S536.006,760.711,536.006,759.517z"/>
	<path fill="#424242" d="M563.046,753.148c-1.472,0.043-2.753,0.447-3.841,1.216s-1.855,1.824-2.303,3.168V767.9h-2.177v-16.672
		h2.048v4c0.619-1.28,1.451-2.283,2.496-3.008s2.165-1.088,3.36-1.088c0.171,0,0.309,0.011,0.416,0.031V753.148z"/>
	<path fill="#424242" d="M572.326,768.221c-1.217,0-2.331-0.229-3.344-0.688c-1.014-0.458-1.895-1.088-2.641-1.888
		c-0.746-0.801-1.328-1.723-1.744-2.768s-0.623-2.166-0.623-3.36c0-1.173,0.207-2.277,0.623-3.312
		c0.416-1.035,0.992-1.941,1.729-2.721c0.736-0.778,1.615-1.396,2.641-1.855c1.023-0.459,2.133-0.688,3.327-0.688
		c1.216,0,2.331,0.229,3.345,0.688c1.012,0.459,1.882,1.082,2.607,1.871c0.725,0.79,1.291,1.696,1.695,2.721
		c0.406,1.023,0.609,2.111,0.609,3.264c0,0.171,0,0.342,0,0.512c0,0.172-0.012,0.288-0.033,0.353h-14.271
		c0.064,0.896,0.271,1.723,0.624,2.479c0.353,0.758,0.806,1.414,1.36,1.969s1.188,0.986,1.904,1.295
		c0.714,0.311,1.477,0.465,2.287,0.465c0.533,0,1.066-0.074,1.6-0.225c0.533-0.148,1.024-0.352,1.473-0.607
		c0.447-0.256,0.854-0.57,1.216-0.944c0.362-0.373,0.64-0.784,0.832-1.231l1.888,0.512c-0.256,0.619-0.619,1.179-1.088,1.68
		c-0.469,0.502-1.014,0.939-1.632,1.312s-1.302,0.661-2.048,0.863C573.915,768.119,573.137,768.221,572.326,768.221z
		 M578.471,758.685c-0.064-0.896-0.272-1.712-0.625-2.448c-0.352-0.736-0.8-1.371-1.344-1.904s-1.174-0.949-1.888-1.248
		c-0.716-0.298-1.478-0.447-2.288-0.447s-1.579,0.149-2.305,0.447c-0.725,0.299-1.359,0.715-1.903,1.248s-0.981,1.174-1.312,1.92
		c-0.332,0.748-0.529,1.559-0.593,2.433H578.471z"/>
	<path fill="#424242" d="M588.102,768.221c-0.789,0-1.52-0.134-2.191-0.4s-1.26-0.635-1.76-1.104
		c-0.502-0.469-0.892-1.02-1.168-1.648c-0.278-0.629-0.416-1.307-0.416-2.031c0-0.726,0.17-1.398,0.512-2.017
		c0.341-0.618,0.82-1.152,1.439-1.601c0.619-0.447,1.354-0.794,2.208-1.039c0.853-0.246,1.792-0.369,2.816-0.369
		c0.853,0,1.717,0.076,2.592,0.225c0.874,0.149,1.653,0.363,2.336,0.641v-1.504c0-1.473-0.416-2.641-1.248-3.505
		s-1.983-1.296-3.456-1.296c-0.854,0-1.729,0.171-2.624,0.512c-0.896,0.342-1.803,0.832-2.72,1.473l-0.768-1.44
		c2.154-1.45,4.244-2.176,6.271-2.176c2.09,0,3.732,0.587,4.928,1.76c1.195,1.174,1.793,2.796,1.793,4.864v7.52
		c0,0.598,0.266,0.896,0.799,0.896v1.92c-0.362,0.064-0.64,0.096-0.832,0.096c-0.555,0-0.986-0.139-1.295-0.416
		c-0.311-0.277-0.476-0.66-0.496-1.152l-0.064-1.312c-0.768,1.003-1.733,1.771-2.896,2.304
		C590.699,767.953,589.445,768.221,588.102,768.221z M588.613,766.557c1.131,0,2.171-0.213,3.121-0.641
		c0.948-0.426,1.668-0.992,2.159-1.695c0.192-0.192,0.337-0.4,0.433-0.625c0.096-0.223,0.144-0.432,0.144-0.623v-2.721
		c-0.726-0.276-1.478-0.49-2.256-0.64c-0.779-0.149-1.573-0.224-2.384-0.224c-1.536,0-2.784,0.32-3.744,0.96
		s-1.439,1.483-1.439,2.528c0,0.512,0.1,0.991,0.303,1.439c0.203,0.447,0.48,0.838,0.832,1.168c0.353,0.331,0.773,0.592,1.265,0.784
		C587.536,766.461,588.059,766.557,588.613,766.557z"/>
	<path fill="#424242" d="M609.67,753.148c-1.473,0.043-2.752,0.447-3.84,1.216s-1.856,1.824-2.305,3.168V767.9h-2.176v-16.672h2.049
		v4c0.617-1.28,1.449-2.283,2.495-3.008c1.045-0.725,2.165-1.088,3.36-1.088c0.17,0,0.309,0.011,0.416,0.031V753.148z"/>
	<path fill="#424242" d="M629.574,768.221c-1.324,0-2.476-0.294-3.457-0.881c-0.98-0.586-1.749-1.381-2.303-2.383v9.76h-4.289
		v-23.584h3.744v2.879c0.619-0.98,1.418-1.754,2.4-2.319c0.98-0.565,2.111-0.849,3.392-0.849c1.131,0,2.177,0.23,3.136,0.688
		c0.961,0.459,1.787,1.077,2.48,1.856s1.236,1.695,1.632,2.752c0.395,1.056,0.593,2.171,0.593,3.344
		c0,1.216-0.182,2.357-0.545,3.424c-0.363,1.067-0.869,1.995-1.52,2.784c-0.651,0.79-1.424,1.408-2.32,1.856
		C631.621,767.996,630.641,768.221,629.574,768.221z M628.134,764.572c0.64,0,1.231-0.139,1.776-0.416
		c0.543-0.277,1.008-0.65,1.392-1.119c0.384-0.47,0.683-1.014,0.896-1.633c0.213-0.618,0.32-1.258,0.32-1.92
		c0-0.704-0.117-1.359-0.352-1.968c-0.235-0.608-0.561-1.136-0.977-1.584s-0.906-0.8-1.472-1.056s-1.179-0.385-1.84-0.385
		c-0.405,0-0.821,0.07-1.248,0.208c-0.427,0.14-0.821,0.337-1.185,0.593s-0.688,0.555-0.976,0.896s-0.507,0.715-0.655,1.12v3.936
		c0.383,0.961,0.97,1.756,1.76,2.385C626.363,764.258,627.217,764.572,628.134,764.572z"/>
	<path fill="#424242" d="M649.797,754.844c-1.301,0.021-2.463,0.272-3.487,0.752c-1.024,0.48-1.761,1.201-2.208,2.16V767.9h-4.288
		v-16.768h3.937v3.584c0.298-0.576,0.65-1.094,1.055-1.553c0.406-0.458,0.844-0.858,1.312-1.199
		c0.469-0.342,0.944-0.604,1.424-0.785c0.48-0.18,0.944-0.271,1.393-0.271c0.234,0,0.41,0,0.527,0s0.229,0.012,0.336,0.032V754.844z
		"/>
	<path fill="#424242" d="M659.109,768.221c-1.365,0-2.592-0.235-3.68-0.704c-1.088-0.47-2.012-1.104-2.768-1.904
		c-0.758-0.8-1.34-1.723-1.744-2.769c-0.406-1.045-0.608-2.144-0.608-3.295c0-1.174,0.202-2.283,0.608-3.328
		c0.404-1.045,0.986-1.969,1.744-2.769c0.756-0.8,1.68-1.435,2.768-1.903s2.314-0.705,3.68-0.705s2.587,0.236,3.664,0.705
		s1.994,1.104,2.752,1.903s1.339,1.724,1.744,2.769s0.607,2.154,0.607,3.328c0,1.151-0.202,2.25-0.607,3.295
		c-0.405,1.046-0.981,1.969-1.729,2.769c-0.746,0.8-1.664,1.435-2.752,1.904C661.701,767.985,660.475,768.221,659.109,768.221z
		 M654.726,759.549c0,0.746,0.112,1.424,0.336,2.031c0.224,0.608,0.533,1.137,0.929,1.584c0.395,0.448,0.857,0.795,1.391,1.041
		c0.533,0.244,1.109,0.367,1.729,0.367s1.195-0.123,1.729-0.367c0.533-0.246,0.996-0.593,1.392-1.041
		c0.395-0.447,0.704-0.98,0.929-1.6c0.223-0.619,0.336-1.301,0.336-2.048c0-0.726-0.113-1.397-0.336-2.017
		c-0.225-0.618-0.534-1.151-0.929-1.6c-0.396-0.448-0.858-0.795-1.392-1.04s-1.109-0.368-1.729-0.368s-1.195,0.129-1.729,0.385
		s-0.996,0.607-1.391,1.056c-0.396,0.448-0.705,0.981-0.929,1.6C654.838,758.151,654.726,758.823,654.726,759.549z"/>
	<path fill="#424242" d="M677.702,768.221c-1.152,0-2.221-0.225-3.201-0.672c-0.981-0.448-1.823-1.066-2.528-1.856
		c-0.703-0.789-1.253-1.712-1.647-2.769c-0.396-1.056-0.592-2.191-0.592-3.407s0.187-2.347,0.56-3.392s0.891-1.963,1.553-2.752
		c0.66-0.789,1.45-1.408,2.367-1.856c0.918-0.448,1.921-0.673,3.009-0.673c1.236,0,2.352,0.3,3.344,0.896
		c0.992,0.598,1.766,1.376,2.32,2.336v-9.535h4.287v18.432c0,0.447,0.074,0.768,0.225,0.96c0.148,0.192,0.404,0.299,0.768,0.319
		v3.648c-0.746,0.149-1.355,0.224-1.824,0.224c-0.768,0-1.396-0.191-1.887-0.575c-0.492-0.385-0.77-0.885-0.832-1.504l-0.098-1.057
		c-0.619,1.066-1.455,1.872-2.512,2.416C679.958,767.948,678.853,768.221,677.702,768.221z M678.821,764.572
		c0.404,0,0.82-0.068,1.248-0.208c0.426-0.138,0.82-0.336,1.184-0.592s0.688-0.555,0.977-0.896c0.287-0.342,0.506-0.715,0.656-1.121
		v-4c-0.172-0.469-0.412-0.9-0.721-1.295s-0.662-0.736-1.057-1.024s-0.811-0.517-1.248-0.688c-0.438-0.17-0.869-0.256-1.295-0.256
		c-0.641,0-1.232,0.139-1.775,0.416c-0.545,0.277-1.009,0.656-1.393,1.137c-0.384,0.479-0.683,1.029-0.896,1.647
		c-0.214,0.619-0.319,1.259-0.319,1.92c0,0.704,0.117,1.354,0.352,1.952s0.555,1.12,0.96,1.568c0.404,0.447,0.891,0.8,1.455,1.056
		C677.515,764.444,678.138,764.572,678.821,764.572z"/>
	<path fill="#424242" d="M696.517,768.221c-1.729,0-3.04-0.555-3.937-1.664c-0.896-1.109-1.344-2.752-1.344-4.928v-10.496h4.288
		v9.567c0,2.581,0.928,3.872,2.784,3.872c0.832,0,1.637-0.25,2.416-0.752c0.778-0.501,1.413-1.264,1.903-2.288v-10.399h4.288v11.84
		c0,0.447,0.08,0.768,0.24,0.96s0.421,0.299,0.784,0.319v3.648c-0.427,0.085-0.784,0.139-1.072,0.16
		c-0.288,0.021-0.55,0.032-0.784,0.032c-0.768,0-1.392-0.177-1.872-0.528c-0.479-0.352-0.763-0.837-0.848-1.456l-0.096-1.345
		c-0.747,1.152-1.707,2.017-2.88,2.593C699.215,767.933,697.925,768.221,696.517,768.221z"/>
	<path fill="#424242" d="M710.117,759.517c0-1.173,0.202-2.282,0.607-3.328c0.405-1.045,0.992-1.962,1.76-2.752
		c0.769-0.789,1.696-1.419,2.784-1.888s2.314-0.705,3.68-0.705c1.835,0,3.397,0.396,4.688,1.185c1.29,0.79,2.256,1.824,2.896,3.104
		l-4.191,1.279c-0.363-0.618-0.843-1.093-1.44-1.424c-0.598-0.33-1.259-0.496-1.983-0.496c-0.619,0-1.195,0.123-1.729,0.368
		s-0.997,0.587-1.392,1.024c-0.396,0.438-0.704,0.965-0.928,1.584c-0.225,0.619-0.337,1.301-0.337,2.048s0.117,1.429,0.353,2.048
		c0.234,0.619,0.549,1.152,0.944,1.6c0.395,0.448,0.858,0.795,1.392,1.041c0.533,0.244,1.099,0.367,1.696,0.367
		c0.768,0,1.477-0.191,2.128-0.576c0.65-0.384,1.104-0.853,1.359-1.408l4.192,1.28c-0.576,1.28-1.525,2.325-2.848,3.136
		c-1.323,0.812-2.912,1.217-4.769,1.217c-1.365,0-2.592-0.235-3.68-0.704c-1.088-0.47-2.016-1.104-2.784-1.904
		c-0.768-0.8-1.36-1.728-1.776-2.784C710.324,761.772,710.117,760.668,710.117,759.517z"/>
	<path fill="#424242" d="M739.269,767.037c-0.576,0.256-1.28,0.512-2.112,0.768s-1.707,0.384-2.624,0.384
		c-0.598,0-1.157-0.075-1.68-0.224c-0.523-0.149-0.981-0.39-1.376-0.721c-0.395-0.33-0.71-0.757-0.944-1.279
		c-0.234-0.523-0.352-1.157-0.352-1.904v-9.633h-2.208v-3.295h2.208v-5.44h4.288v5.44h3.52v3.295h-3.52v8.193
		c0,0.597,0.154,1.018,0.464,1.264c0.309,0.245,0.688,0.367,1.136,0.367s0.885-0.074,1.312-0.224
		c0.426-0.149,0.768-0.276,1.023-0.384L739.269,767.037z"/>
	<path fill="#424242" d="M748.837,768.221c-1.366,0-2.593-0.235-3.681-0.704c-1.088-0.47-2.011-1.104-2.768-1.904
		c-0.758-0.8-1.339-1.723-1.744-2.769c-0.405-1.045-0.607-2.144-0.607-3.295c0-1.174,0.202-2.283,0.607-3.328
		s0.986-1.969,1.744-2.769c0.757-0.8,1.68-1.435,2.768-1.903s2.314-0.705,3.681-0.705c1.364,0,2.586,0.236,3.664,0.705
		c1.076,0.469,1.994,1.104,2.752,1.903c0.757,0.8,1.338,1.724,1.744,2.769c0.404,1.045,0.607,2.154,0.607,3.328
		c0,1.151-0.203,2.25-0.607,3.295c-0.406,1.046-0.982,1.969-1.729,2.769c-0.747,0.8-1.664,1.435-2.752,1.904
		C751.429,767.985,750.201,768.221,748.837,768.221z M744.452,759.549c0,0.746,0.112,1.424,0.337,2.031
		c0.224,0.608,0.532,1.137,0.928,1.584c0.395,0.448,0.858,0.795,1.392,1.041c0.533,0.244,1.109,0.367,1.729,0.367
		c0.618,0,1.194-0.123,1.728-0.367c0.533-0.246,0.997-0.593,1.393-1.041c0.395-0.447,0.703-0.98,0.928-1.6
		c0.224-0.619,0.336-1.301,0.336-2.048c0-0.726-0.112-1.397-0.336-2.017c-0.225-0.618-0.533-1.151-0.928-1.6
		c-0.396-0.448-0.859-0.795-1.393-1.04s-1.109-0.368-1.728-0.368c-0.619,0-1.195,0.129-1.729,0.385s-0.997,0.607-1.392,1.056
		c-0.396,0.448-0.704,0.981-0.928,1.6C744.564,758.151,744.452,758.823,744.452,759.549z"/>
	<path fill="#424242" d="M766.82,768.221c-1.408,0-2.784-0.225-4.128-0.672c-1.344-0.448-2.496-1.088-3.456-1.92l1.6-2.688
		c1.024,0.726,2.021,1.274,2.992,1.647c0.971,0.374,1.937,0.561,2.896,0.561c0.853,0,1.524-0.16,2.016-0.48
		c0.49-0.319,0.736-0.778,0.736-1.375c0-0.598-0.288-1.035-0.864-1.312s-1.515-0.598-2.816-0.96
		c-1.088-0.299-2.016-0.587-2.783-0.864c-0.769-0.277-1.388-0.592-1.856-0.943c-0.47-0.353-0.811-0.758-1.024-1.217
		c-0.213-0.458-0.319-1.008-0.319-1.647c0-0.853,0.165-1.621,0.496-2.304c0.33-0.684,0.794-1.265,1.392-1.744
		c0.597-0.48,1.296-0.849,2.096-1.104c0.801-0.256,1.669-0.384,2.608-0.384c1.259,0,2.437,0.182,3.536,0.544
		c1.099,0.362,2.106,0.949,3.023,1.76l-1.728,2.593c-0.854-0.641-1.68-1.109-2.48-1.408c-0.8-0.299-1.595-0.448-2.384-0.448
		c-0.726,0-1.333,0.149-1.824,0.448c-0.49,0.299-0.735,0.779-0.735,1.439c0,0.299,0.059,0.544,0.176,0.736
		c0.117,0.191,0.304,0.363,0.56,0.512c0.257,0.149,0.593,0.293,1.009,0.432c0.416,0.14,0.933,0.283,1.552,0.433
		c1.151,0.299,2.139,0.597,2.96,0.896s1.493,0.641,2.016,1.024s0.907,0.827,1.152,1.328s0.368,1.104,0.368,1.808
		c0,1.643-0.608,2.939-1.824,3.889S768.911,768.221,766.82,768.221z"/>
	<path fill="#424242" d="M789.188,768.221c-1.729,0-3.04-0.555-3.937-1.664c-0.896-1.109-1.344-2.752-1.344-4.928v-10.496h4.288
		v9.567c0,2.581,0.928,3.872,2.784,3.872c0.832,0,1.637-0.25,2.416-0.752c0.778-0.501,1.413-1.264,1.903-2.288v-10.399h4.288v11.84
		c0,0.447,0.08,0.768,0.24,0.96s0.421,0.299,0.784,0.319v3.648c-0.427,0.085-0.784,0.139-1.072,0.16
		c-0.288,0.021-0.55,0.032-0.784,0.032c-0.768,0-1.392-0.177-1.872-0.528c-0.479-0.352-0.763-0.837-0.848-1.456l-0.096-1.345
		c-0.747,1.152-1.707,2.017-2.88,2.593C791.887,767.933,790.597,768.221,789.188,768.221z M792.836,749.18l-2.752-0.831l1.729-3.808
		h4L792.836,749.18z"/>
	<path fill="#424242" d="M819.428,767.9h-4.288v-9.408c0-1.344-0.235-2.324-0.704-2.943c-0.47-0.619-1.12-0.928-1.952-0.928
		c-0.427,0-0.864,0.085-1.312,0.256c-0.448,0.17-0.87,0.41-1.265,0.719c-0.395,0.311-0.752,0.678-1.071,1.104
		c-0.32,0.427-0.556,0.896-0.704,1.408v9.792h-4.288v-16.768h3.872v3.104c0.618-1.066,1.515-1.898,2.688-2.496
		c1.173-0.597,2.496-0.896,3.969-0.896c1.045,0,1.898,0.193,2.56,0.576c0.661,0.385,1.173,0.886,1.536,1.504
		c0.362,0.619,0.613,1.324,0.752,2.113s0.208,1.589,0.208,2.399V767.9z"/>
	<path fill="#424242" d="M823.172,748.797v-4.256h4.288v4.256H823.172z M823.172,767.9v-16.768h4.288V767.9H823.172z"/>
	<path fill="#424242" d="M830.275,759.517c0-1.173,0.202-2.282,0.607-3.328c0.405-1.045,0.992-1.962,1.76-2.752
		c0.769-0.789,1.696-1.419,2.784-1.888s2.314-0.705,3.68-0.705c1.835,0,3.397,0.396,4.688,1.185c1.29,0.79,2.256,1.824,2.896,3.104
		l-4.191,1.279c-0.363-0.618-0.843-1.093-1.44-1.424c-0.598-0.33-1.259-0.496-1.983-0.496c-0.619,0-1.195,0.123-1.729,0.368
		s-0.997,0.587-1.392,1.024c-0.396,0.438-0.704,0.965-0.928,1.584c-0.225,0.619-0.337,1.301-0.337,2.048s0.117,1.429,0.353,2.048
		c0.234,0.619,0.549,1.152,0.944,1.6c0.395,0.448,0.858,0.795,1.392,1.041c0.533,0.244,1.099,0.367,1.696,0.367
		c0.768,0,1.477-0.191,2.128-0.576c0.65-0.384,1.104-0.853,1.359-1.408l4.192,1.28c-0.576,1.28-1.525,2.325-2.848,3.136
		c-1.323,0.812-2.912,1.217-4.769,1.217c-1.365,0-2.592-0.235-3.68-0.704c-1.088-0.47-2.016-1.104-2.784-1.904
		c-0.768-0.8-1.36-1.728-1.776-2.784C830.482,761.772,830.275,760.668,830.275,759.517z"/>
	<path fill="#424242" d="M856.963,768.221c-1.366,0-2.593-0.235-3.681-0.704c-1.088-0.47-2.011-1.104-2.768-1.904
		c-0.758-0.8-1.339-1.723-1.744-2.769c-0.405-1.045-0.607-2.144-0.607-3.295c0-1.174,0.202-2.283,0.607-3.328
		s0.986-1.969,1.744-2.769c0.757-0.8,1.68-1.435,2.768-1.903s2.314-0.705,3.681-0.705c1.364,0,2.586,0.236,3.664,0.705
		c1.076,0.469,1.994,1.104,2.752,1.903c0.757,0.8,1.338,1.724,1.744,2.769c0.404,1.045,0.607,2.154,0.607,3.328
		c0,1.151-0.203,2.25-0.607,3.295c-0.406,1.046-0.982,1.969-1.729,2.769c-0.747,0.8-1.664,1.435-2.752,1.904
		C859.555,767.985,858.327,768.221,856.963,768.221z M852.578,759.549c0,0.746,0.112,1.424,0.337,2.031
		c0.224,0.608,0.532,1.137,0.928,1.584c0.395,0.448,0.858,0.795,1.392,1.041c0.533,0.244,1.109,0.367,1.729,0.367
		c0.618,0,1.194-0.123,1.728-0.367c0.533-0.246,0.997-0.593,1.393-1.041c0.395-0.447,0.703-0.98,0.928-1.6
		c0.224-0.619,0.336-1.301,0.336-2.048c0-0.726-0.112-1.397-0.336-2.017c-0.225-0.618-0.533-1.151-0.928-1.6
		c-0.396-0.448-0.859-0.795-1.393-1.04s-1.109-0.368-1.728-0.368c-0.619,0-1.195,0.129-1.729,0.385s-0.997,0.607-1.392,1.056
		c-0.396,0.448-0.704,0.981-0.928,1.6C852.69,758.151,852.578,758.823,852.578,759.549z"/>
	<path fill="#424242" d="M874.947,768.221c-1.408,0-2.784-0.225-4.128-0.672c-1.344-0.448-2.496-1.088-3.456-1.92l1.6-2.688
		c1.024,0.726,2.021,1.274,2.992,1.647c0.971,0.374,1.937,0.561,2.896,0.561c0.853,0,1.524-0.16,2.016-0.48
		c0.49-0.319,0.736-0.778,0.736-1.375c0-0.598-0.288-1.035-0.864-1.312s-1.515-0.598-2.816-0.96
		c-1.088-0.299-2.016-0.587-2.783-0.864c-0.769-0.277-1.388-0.592-1.856-0.943c-0.47-0.353-0.811-0.758-1.024-1.217
		c-0.213-0.458-0.319-1.008-0.319-1.647c0-0.853,0.165-1.621,0.496-2.304c0.33-0.684,0.794-1.265,1.392-1.744
		c0.597-0.48,1.296-0.849,2.096-1.104c0.801-0.256,1.669-0.384,2.608-0.384c1.259,0,2.437,0.182,3.536,0.544
		c1.099,0.362,2.106,0.949,3.023,1.76l-1.728,2.593c-0.854-0.641-1.68-1.109-2.48-1.408c-0.8-0.299-1.595-0.448-2.384-0.448
		c-0.726,0-1.333,0.149-1.824,0.448c-0.49,0.299-0.735,0.779-0.735,1.439c0,0.299,0.059,0.544,0.176,0.736
		c0.117,0.191,0.304,0.363,0.56,0.512c0.257,0.149,0.593,0.293,1.009,0.432c0.416,0.14,0.933,0.283,1.552,0.433
		c1.151,0.299,2.139,0.597,2.96,0.896s1.493,0.641,2.016,1.024s0.907,0.827,1.152,1.328s0.368,1.104,0.368,1.808
		c0,1.643-0.608,2.939-1.824,3.889S877.038,768.221,874.947,768.221z"/>
	<path fill="#424242" d="M885.314,770.492l0.544-2.688h-0.736v-3.041h2.112v3.041l-0.8,2.688H885.314z"/>
	<path fill="#424242" d="M313.577,808.221c-0.812,0-1.567-0.134-2.272-0.4c-0.703-0.267-1.312-0.64-1.823-1.12
		c-0.513-0.479-0.912-1.04-1.2-1.68s-0.432-1.344-0.432-2.112c0-0.789,0.176-1.52,0.527-2.191c0.353-0.673,0.843-1.243,1.473-1.713
		c0.629-0.469,1.381-0.837,2.256-1.104s1.834-0.4,2.88-0.4c0.747,0,1.478,0.064,2.192,0.192c0.714,0.128,1.349,0.31,1.904,0.544
		v-0.96c0-1.109-0.316-1.963-0.945-2.56c-0.629-0.598-1.562-0.896-2.799-0.896c-0.896,0-1.771,0.16-2.625,0.48
		c-0.854,0.319-1.728,0.789-2.623,1.407l-1.312-2.72c2.154-1.429,4.48-2.144,6.977-2.144c2.41,0,4.281,0.592,5.615,1.775
		c1.333,1.185,2,2.896,2,5.137v5.216c0,0.447,0.08,0.768,0.24,0.96c0.16,0.191,0.421,0.299,0.784,0.319v3.648
		c-0.726,0.149-1.355,0.224-1.888,0.224c-0.812,0-1.436-0.181-1.873-0.544c-0.438-0.362-0.709-0.842-0.815-1.439l-0.097-0.929
		c-0.746,0.982-1.652,1.729-2.719,2.24C315.934,807.965,314.793,808.221,313.577,808.221z M314.793,805.084
		c0.726,0,1.414-0.128,2.064-0.384s1.156-0.597,1.52-1.023c0.469-0.363,0.705-0.769,0.705-1.217v-1.92
		c-0.513-0.191-1.068-0.346-1.664-0.464c-0.598-0.117-1.174-0.176-1.729-0.176c-1.109,0-2.016,0.251-2.721,0.752
		c-0.703,0.502-1.056,1.136-1.056,1.904c0,0.726,0.277,1.328,0.832,1.808C313.3,804.845,313.982,805.084,314.793,805.084z
		 M316.873,789.181l-2.752-0.832l1.729-3.809h4L316.873,789.181z"/>
	<path fill="#424242" d="M336.904,808.221c-1.279,0-2.421-0.288-3.424-0.864c-1.002-0.576-1.791-1.365-2.367-2.368v2.912h-3.744
		v-23.36h4.288v9.536c0.597-1.023,1.381-1.818,2.352-2.384s2.106-0.848,3.408-0.848c1.088,0,2.08,0.234,2.976,0.704
		c0.896,0.469,1.67,1.099,2.32,1.888s1.152,1.718,1.504,2.784s0.528,2.187,0.528,3.359c0,1.217-0.198,2.348-0.593,3.393
		s-0.943,1.957-1.647,2.735c-0.704,0.779-1.536,1.393-2.496,1.841C339.049,807.996,338.014,808.221,336.904,808.221z
		 M335.721,804.572c0.683,0,1.312-0.133,1.889-0.399s1.066-0.624,1.472-1.072s0.72-0.971,0.944-1.568
		c0.224-0.597,0.336-1.237,0.336-1.92s-0.107-1.333-0.32-1.952c-0.213-0.618-0.518-1.162-0.912-1.632
		c-0.395-0.469-0.859-0.843-1.393-1.12c-0.533-0.276-1.119-0.416-1.76-0.416c-0.959,0-1.818,0.315-2.576,0.944
		c-0.757,0.629-1.338,1.403-1.743,2.32v4c0.149,0.427,0.368,0.811,0.655,1.151c0.289,0.342,0.613,0.635,0.977,0.88
		c0.362,0.246,0.757,0.438,1.184,0.576S335.315,804.572,335.721,804.572z"/>
	<path fill="#424242" d="M355.4,808.221c-1.365,0-2.592-0.235-3.68-0.704s-2.012-1.104-2.768-1.904
		c-0.758-0.8-1.34-1.723-1.744-2.768c-0.406-1.045-0.608-2.145-0.608-3.296c0-1.174,0.202-2.283,0.608-3.328
		c0.404-1.045,0.986-1.969,1.744-2.769c0.756-0.8,1.68-1.435,2.768-1.903c1.088-0.47,2.314-0.704,3.68-0.704
		s2.587,0.234,3.664,0.704c1.077,0.469,1.994,1.104,2.752,1.903s1.339,1.724,1.744,2.769s0.607,2.154,0.607,3.328
		c0,1.151-0.202,2.251-0.607,3.296s-0.981,1.968-1.729,2.768c-0.746,0.8-1.664,1.436-2.752,1.904S356.766,808.221,355.4,808.221z
		 M351.017,799.549c0,0.746,0.112,1.424,0.336,2.031c0.224,0.608,0.533,1.137,0.929,1.584c0.395,0.448,0.857,0.795,1.391,1.04
		c0.533,0.246,1.109,0.368,1.729,0.368s1.195-0.122,1.729-0.368c0.533-0.245,0.996-0.592,1.392-1.04
		c0.395-0.447,0.704-0.98,0.929-1.6c0.223-0.618,0.336-1.301,0.336-2.048c0-0.726-0.113-1.397-0.336-2.017
		c-0.225-0.618-0.534-1.151-0.929-1.6c-0.396-0.448-0.858-0.795-1.392-1.04s-1.109-0.368-1.729-0.368s-1.195,0.128-1.729,0.384
		c-0.533,0.257-0.996,0.608-1.391,1.057c-0.396,0.448-0.705,0.981-0.929,1.6C351.129,798.151,351.017,798.823,351.017,799.549z"/>
	<path fill="#424242" d="M377.032,794.845c-1.302,0.021-2.464,0.271-3.487,0.752c-1.025,0.479-1.761,1.2-2.209,2.16V807.9h-4.287
		v-16.768h3.936v3.584c0.299-0.576,0.65-1.094,1.056-1.553c0.405-0.458,0.843-0.858,1.312-1.199c0.47-0.342,0.945-0.603,1.425-0.784
		s0.944-0.272,1.392-0.272c0.234,0,0.41,0,0.528,0c0.116,0,0.229,0.011,0.336,0.032V794.845z"/>
	<path fill="#424242" d="M385.545,808.221c-1.152,0-2.22-0.225-3.201-0.672c-0.98-0.448-1.823-1.067-2.527-1.856
		s-1.254-1.712-1.648-2.768c-0.395-1.057-0.592-2.192-0.592-3.408s0.187-2.347,0.561-3.393c0.373-1.045,0.891-1.962,1.552-2.752
		c0.661-0.789,1.45-1.407,2.368-1.855c0.917-0.448,1.92-0.672,3.008-0.672c1.236,0,2.352,0.299,3.344,0.896
		c0.992,0.598,1.766,1.376,2.32,2.336v-9.536h4.288v18.433c0,0.447,0.074,0.768,0.224,0.96c0.149,0.191,0.405,0.299,0.768,0.319
		v3.648c-0.746,0.149-1.354,0.224-1.823,0.224c-0.769,0-1.397-0.191-1.888-0.575c-0.491-0.385-0.769-0.886-0.832-1.505l-0.096-1.056
		c-0.619,1.067-1.457,1.872-2.513,2.416S386.696,808.221,385.545,808.221z M386.664,804.572c0.405,0,0.821-0.069,1.248-0.208
		s0.821-0.336,1.185-0.592c0.362-0.256,0.688-0.555,0.976-0.896c0.288-0.341,0.507-0.714,0.656-1.119v-4
		c-0.171-0.47-0.411-0.901-0.721-1.297c-0.309-0.395-0.66-0.735-1.055-1.023c-0.396-0.288-0.812-0.518-1.248-0.688
		c-0.438-0.17-0.87-0.256-1.297-0.256c-0.64,0-1.232,0.14-1.775,0.416c-0.545,0.277-1.008,0.656-1.393,1.136
		c-0.384,0.48-0.683,1.03-0.896,1.648c-0.213,0.619-0.319,1.259-0.319,1.92c0,0.704,0.117,1.355,0.353,1.952
		c0.234,0.598,0.555,1.12,0.959,1.568c0.405,0.447,0.891,0.8,1.457,1.056C385.357,804.444,385.981,804.572,386.664,804.572z"/>
	<path fill="#424242" d="M406.984,808.221c-1.365,0-2.592-0.235-3.68-0.704s-2.012-1.104-2.769-1.904s-1.339-1.723-1.744-2.768
		s-0.608-2.145-0.608-3.296c0-1.174,0.203-2.283,0.608-3.328s0.987-1.969,1.744-2.769s1.681-1.435,2.769-1.903
		c1.088-0.47,2.314-0.704,3.68-0.704s2.586,0.234,3.664,0.704c1.076,0.469,1.994,1.104,2.752,1.903
		c0.757,0.8,1.338,1.724,1.744,2.769c0.404,1.045,0.607,2.154,0.607,3.328c0,1.151-0.203,2.251-0.607,3.296
		c-0.406,1.045-0.982,1.968-1.729,2.768c-0.747,0.8-1.664,1.436-2.752,1.904S408.35,808.221,406.984,808.221z M402.6,799.549
		c0,0.746,0.112,1.424,0.336,2.031c0.225,0.608,0.533,1.137,0.929,1.584c0.395,0.448,0.858,0.795,1.392,1.04
		c0.533,0.246,1.109,0.368,1.729,0.368c0.618,0,1.194-0.122,1.728-0.368c0.533-0.245,0.997-0.592,1.392-1.04
		c0.395-0.447,0.705-0.98,0.929-1.6c0.224-0.618,0.336-1.301,0.336-2.048c0-0.726-0.112-1.397-0.336-2.017
		c-0.224-0.618-0.534-1.151-0.929-1.6s-0.858-0.795-1.392-1.04s-1.109-0.368-1.728-0.368c-0.619,0-1.195,0.128-1.729,0.384
		c-0.533,0.257-0.997,0.608-1.392,1.057c-0.396,0.448-0.704,0.981-0.929,1.6C402.712,798.151,402.6,798.823,402.6,799.549z"/>
	<path fill="#424242" d="M432.455,808.221c-1.812,0-3.162-0.603-4.048-1.809c-0.886-1.205-1.327-3.002-1.327-5.392v-9.792h2.176
		v9.408c0,3.775,1.29,5.664,3.871,5.664c0.641,0,1.27-0.106,1.889-0.32c0.618-0.213,1.189-0.522,1.712-0.928s0.991-0.886,1.407-1.44
		s0.752-1.184,1.009-1.888v-10.496h2.176v13.855c0,0.598,0.256,0.896,0.769,0.896v1.92c-0.256,0.043-0.465,0.064-0.625,0.064
		s-0.271,0-0.336,0c-0.512-0.021-0.928-0.203-1.248-0.545c-0.319-0.341-0.479-0.8-0.479-1.376v-1.92
		c-0.726,1.302-1.712,2.31-2.96,3.024S433.863,808.221,432.455,808.221z"/>
	<path fill="#424242" d="M460.264,807.9h-2.176v-9.312c0-1.984-0.295-3.425-0.881-4.32c-0.587-0.896-1.488-1.344-2.704-1.344
		c-0.64,0-1.28,0.117-1.92,0.352c-0.64,0.235-1.231,0.565-1.776,0.992c-0.543,0.427-1.029,0.934-1.455,1.52
		c-0.428,0.587-0.736,1.222-0.928,1.904V807.9h-2.177v-16.672h1.983v3.775c0.684-1.216,1.659-2.196,2.929-2.943
		c1.269-0.747,2.65-1.12,4.144-1.12c0.918,0,1.696,0.171,2.336,0.512c0.641,0.342,1.152,0.821,1.537,1.44
		c0.383,0.619,0.66,1.376,0.832,2.271c0.17,0.896,0.256,1.889,0.256,2.977V807.9z"/>
	<path fill="#424242" d="M469.095,808.221c-0.789,0-1.521-0.134-2.192-0.4s-1.258-0.635-1.76-1.104
		c-0.501-0.47-0.891-1.019-1.168-1.648c-0.277-0.629-0.416-1.307-0.416-2.032c0-0.725,0.171-1.396,0.512-2.016
		c0.342-0.618,0.822-1.152,1.44-1.601c0.618-0.447,1.354-0.794,2.208-1.039s1.792-0.368,2.816-0.368
		c0.853,0,1.717,0.074,2.592,0.224s1.652,0.363,2.336,0.64v-1.504c0-1.472-0.416-2.64-1.248-3.504s-1.984-1.296-3.456-1.296
		c-0.854,0-1.728,0.171-2.624,0.512c-0.896,0.342-1.803,0.832-2.72,1.473l-0.769-1.44c2.154-1.45,4.246-2.176,6.272-2.176
		c2.091,0,3.733,0.587,4.929,1.76c1.193,1.174,1.791,2.795,1.791,4.864v7.52c0,0.598,0.267,0.896,0.801,0.896v1.92
		c-0.363,0.064-0.641,0.096-0.832,0.096c-0.556,0-0.987-0.139-1.297-0.416c-0.309-0.276-0.475-0.661-0.496-1.151l-0.063-1.312
		c-0.769,1.003-1.733,1.771-2.896,2.304C471.691,807.953,470.439,808.221,469.095,808.221z M469.607,806.557
		c1.13,0,2.17-0.213,3.119-0.641c0.949-0.426,1.67-0.991,2.16-1.695c0.192-0.192,0.336-0.4,0.432-0.624
		c0.097-0.225,0.145-0.433,0.145-0.624v-2.721c-0.726-0.276-1.478-0.49-2.256-0.64c-0.779-0.148-1.574-0.224-2.385-0.224
		c-1.535,0-2.783,0.319-3.743,0.96c-0.96,0.64-1.44,1.482-1.44,2.527c0,0.513,0.102,0.992,0.305,1.44
		c0.202,0.448,0.479,0.838,0.832,1.168c0.352,0.331,0.772,0.592,1.264,0.784C468.529,806.46,469.052,806.557,469.607,806.557z"/>
	<path fill="#424242" d="M494.631,807.9l-6.784-16.672h2.24l5.728,14.656l5.76-14.656h2.113l-6.785,16.672H494.631z"/>
	<path fill="#424242" d="M510.471,808.221c-0.789,0-1.52-0.134-2.191-0.4s-1.26-0.635-1.76-1.104
		c-0.502-0.47-0.892-1.019-1.168-1.648c-0.278-0.629-0.416-1.307-0.416-2.032c0-0.725,0.17-1.396,0.512-2.016
		c0.341-0.618,0.82-1.152,1.439-1.601c0.619-0.447,1.354-0.794,2.208-1.039c0.853-0.245,1.792-0.368,2.816-0.368
		c0.853,0,1.717,0.074,2.592,0.224c0.874,0.149,1.653,0.363,2.336,0.64v-1.504c0-1.472-0.416-2.64-1.248-3.504
		s-1.983-1.296-3.456-1.296c-0.854,0-1.729,0.171-2.624,0.512c-0.896,0.342-1.803,0.832-2.72,1.473l-0.768-1.44
		c2.154-1.45,4.244-2.176,6.271-2.176c2.09,0,3.732,0.587,4.928,1.76c1.195,1.174,1.793,2.795,1.793,4.864v7.52
		c0,0.598,0.266,0.896,0.799,0.896v1.92c-0.362,0.064-0.64,0.096-0.832,0.096c-0.555,0-0.986-0.139-1.295-0.416
		c-0.311-0.276-0.476-0.661-0.496-1.151l-0.064-1.312c-0.768,1.003-1.733,1.771-2.896,2.304
		C513.068,807.953,511.814,808.221,510.471,808.221z M510.982,806.557c1.131,0,2.171-0.213,3.121-0.641
		c0.948-0.426,1.668-0.991,2.159-1.695c0.192-0.192,0.337-0.4,0.433-0.624c0.096-0.225,0.144-0.433,0.144-0.624v-2.721
		c-0.726-0.276-1.478-0.49-2.256-0.64c-0.779-0.148-1.573-0.224-2.384-0.224c-1.536,0-2.784,0.319-3.744,0.96
		c-0.96,0.64-1.439,1.482-1.439,2.527c0,0.513,0.1,0.992,0.303,1.44s0.48,0.838,0.832,1.168c0.353,0.331,0.773,0.592,1.265,0.784
		C509.905,806.46,510.428,806.557,510.982,806.557z"/>
	<path fill="#424242" d="M532.039,793.148c-1.473,0.043-2.752,0.448-3.84,1.216c-1.088,0.769-1.856,1.824-2.305,3.168V807.9h-2.176
		v-16.672h2.049v4c0.617-1.28,1.449-2.282,2.495-3.008c1.045-0.726,2.165-1.088,3.36-1.088c0.17,0,0.309,0.011,0.416,0.031V793.148z
		"/>
	<path fill="#424242" d="M534.951,787.74v-3.2h2.176v3.2H534.951z M534.951,807.9v-16.672h2.176V807.9H534.951z"/>
	<path fill="#424242" d="M549.127,808.221c-1.217,0-2.332-0.229-3.345-0.688c-1.013-0.458-1.894-1.088-2.64-1.888
		c-0.747-0.8-1.328-1.723-1.744-2.769c-0.416-1.045-0.624-2.165-0.624-3.359c0-1.173,0.208-2.277,0.624-3.312
		c0.416-1.034,0.992-1.94,1.729-2.72c0.735-0.778,1.615-1.397,2.64-1.856c1.024-0.458,2.133-0.688,3.327-0.688
		c1.217,0,2.331,0.229,3.345,0.688c1.013,0.459,1.882,1.083,2.608,1.872c0.725,0.79,1.29,1.696,1.695,2.721
		c0.405,1.023,0.608,2.111,0.608,3.264c0,0.171,0,0.342,0,0.512c0,0.171-0.011,0.288-0.032,0.353h-14.271
		c0.063,0.896,0.271,1.723,0.623,2.479c0.353,0.758,0.806,1.414,1.36,1.969s1.188,0.986,1.904,1.296
		c0.714,0.31,1.477,0.464,2.288,0.464c0.533,0,1.066-0.075,1.6-0.225c0.533-0.148,1.023-0.352,1.473-0.607
		c0.447-0.256,0.853-0.57,1.215-0.944c0.363-0.373,0.641-0.784,0.832-1.231l1.889,0.512c-0.256,0.619-0.619,1.179-1.088,1.68
		c-0.47,0.502-1.014,0.939-1.633,1.312c-0.618,0.373-1.301,0.661-2.047,0.863C550.715,808.119,549.938,808.221,549.127,808.221z
		 M555.271,798.685c-0.063-0.896-0.272-1.712-0.624-2.448s-0.801-1.37-1.344-1.904c-0.545-0.532-1.174-0.948-1.889-1.248
		c-0.715-0.298-1.477-0.447-2.287-0.447c-0.812,0-1.58,0.149-2.305,0.447c-0.726,0.3-1.359,0.716-1.904,1.248
		c-0.543,0.534-0.98,1.174-1.312,1.92c-0.331,0.747-0.528,1.558-0.593,2.433H555.271z"/>
	<path fill="#424242" d="M567.559,808.221c-1.152,0-2.22-0.24-3.201-0.721c-0.98-0.479-1.823-1.114-2.527-1.903
		s-1.254-1.701-1.648-2.736c-0.395-1.034-0.592-2.117-0.592-3.248c0-1.173,0.192-2.288,0.576-3.344
		c0.385-1.057,0.912-1.979,1.584-2.769c0.672-0.789,1.473-1.413,2.4-1.872c0.928-0.458,1.946-0.688,3.056-0.688
		c1.408,0,2.655,0.368,3.744,1.104c1.088,0.736,1.94,1.628,2.56,2.673V784.54h2.176v20.544c0,0.598,0.256,0.896,0.769,0.896v1.92
		c-0.319,0.064-0.576,0.096-0.769,0.096c-0.512,0-0.959-0.165-1.344-0.496c-0.384-0.33-0.576-0.73-0.576-1.199v-1.633
		c-0.661,1.089-1.557,1.952-2.688,2.593C569.947,807.9,568.773,808.221,567.559,808.221z M568.038,806.301
		c0.533,0,1.104-0.106,1.712-0.32c0.607-0.213,1.179-0.507,1.712-0.88s0.987-0.811,1.36-1.312c0.373-0.501,0.602-1.04,0.688-1.615
		v-5.152c-0.213-0.576-0.523-1.114-0.928-1.616c-0.405-0.501-0.869-0.944-1.393-1.328c-0.522-0.384-1.082-0.683-1.68-0.896
		s-1.184-0.32-1.76-0.32c-0.896,0-1.707,0.192-2.432,0.576c-0.726,0.384-1.35,0.891-1.872,1.52c-0.523,0.63-0.923,1.35-1.2,2.16
		c-0.277,0.812-0.416,1.644-0.416,2.496c0,0.896,0.16,1.75,0.48,2.561c0.319,0.811,0.756,1.52,1.312,2.128
		c0.555,0.607,1.21,1.093,1.968,1.456C566.348,806.119,567.163,806.301,568.038,806.301z"/>
	<path fill="#424242" d="M584.806,808.221c-0.789,0-1.521-0.134-2.192-0.4s-1.258-0.635-1.76-1.104
		c-0.501-0.47-0.891-1.019-1.168-1.648c-0.277-0.629-0.416-1.307-0.416-2.032c0-0.725,0.171-1.396,0.512-2.016
		c0.342-0.618,0.822-1.152,1.44-1.601c0.618-0.447,1.354-0.794,2.208-1.039s1.792-0.368,2.816-0.368
		c0.853,0,1.717,0.074,2.592,0.224s1.652,0.363,2.336,0.64v-1.504c0-1.472-0.416-2.64-1.248-3.504s-1.984-1.296-3.456-1.296
		c-0.854,0-1.728,0.171-2.624,0.512c-0.896,0.342-1.803,0.832-2.72,1.473l-0.769-1.44c2.154-1.45,4.246-2.176,6.272-2.176
		c2.091,0,3.733,0.587,4.929,1.76c1.193,1.174,1.791,2.795,1.791,4.864v7.52c0,0.598,0.267,0.896,0.801,0.896v1.92
		c-0.363,0.064-0.641,0.096-0.832,0.096c-0.556,0-0.987-0.139-1.297-0.416c-0.309-0.276-0.475-0.661-0.496-1.151l-0.063-1.312
		c-0.769,1.003-1.733,1.771-2.896,2.304C587.402,807.953,586.15,808.221,584.806,808.221z M585.318,806.557
		c1.13,0,2.17-0.213,3.119-0.641c0.949-0.426,1.67-0.991,2.16-1.695c0.192-0.192,0.336-0.4,0.432-0.624
		c0.097-0.225,0.145-0.433,0.145-0.624v-2.721c-0.726-0.276-1.478-0.49-2.256-0.64c-0.779-0.148-1.574-0.224-2.385-0.224
		c-1.535,0-2.783,0.319-3.743,0.96c-0.96,0.64-1.44,1.482-1.44,2.527c0,0.513,0.102,0.992,0.305,1.44
		c0.202,0.448,0.479,0.838,0.832,1.168c0.352,0.331,0.772,0.592,1.264,0.784C584.24,806.46,584.763,806.557,585.318,806.557z"/>
	<path fill="#424242" d="M604.902,808.221c-1.152,0-2.22-0.24-3.201-0.721c-0.98-0.479-1.823-1.114-2.527-1.903
		s-1.254-1.701-1.648-2.736c-0.395-1.034-0.592-2.117-0.592-3.248c0-1.173,0.192-2.288,0.576-3.344
		c0.385-1.057,0.912-1.979,1.584-2.769c0.672-0.789,1.473-1.413,2.4-1.872c0.928-0.458,1.946-0.688,3.056-0.688
		c1.408,0,2.655,0.368,3.744,1.104c1.088,0.736,1.94,1.628,2.56,2.673V784.54h2.176v20.544c0,0.598,0.256,0.896,0.769,0.896v1.92
		c-0.319,0.064-0.576,0.096-0.769,0.096c-0.512,0-0.959-0.165-1.344-0.496c-0.384-0.33-0.576-0.73-0.576-1.199v-1.633
		c-0.661,1.089-1.557,1.952-2.688,2.593C607.291,807.9,606.117,808.221,604.902,808.221z M605.382,806.301
		c0.533,0,1.104-0.106,1.712-0.32c0.607-0.213,1.179-0.507,1.712-0.88s0.987-0.811,1.36-1.312c0.373-0.501,0.602-1.04,0.688-1.615
		v-5.152c-0.213-0.576-0.523-1.114-0.928-1.616c-0.405-0.501-0.869-0.944-1.393-1.328c-0.522-0.384-1.082-0.683-1.68-0.896
		s-1.184-0.32-1.76-0.32c-0.896,0-1.707,0.192-2.432,0.576c-0.726,0.384-1.35,0.891-1.872,1.52c-0.523,0.63-0.923,1.35-1.2,2.16
		c-0.277,0.812-0.416,1.644-0.416,2.496c0,0.896,0.16,1.75,0.48,2.561c0.319,0.811,0.756,1.52,1.312,2.128
		c0.555,0.607,1.21,1.093,1.968,1.456C603.691,806.119,604.507,806.301,605.382,806.301z"/>
	<path fill="#424242" d="M632.965,808.221c-1.151,0-2.219-0.24-3.199-0.721c-0.982-0.479-1.824-1.114-2.528-1.903
		s-1.253-1.701-1.647-2.736c-0.396-1.034-0.593-2.117-0.593-3.248c0-1.173,0.192-2.288,0.576-3.344
		c0.384-1.057,0.912-1.979,1.584-2.769c0.672-0.789,1.472-1.413,2.399-1.872c0.929-0.458,1.947-0.688,3.057-0.688
		c1.408,0,2.656,0.368,3.744,1.104c1.088,0.736,1.941,1.628,2.561,2.673V784.54h2.176v20.544c0,0.598,0.256,0.896,0.768,0.896v1.92
		c-0.32,0.064-0.576,0.096-0.768,0.096c-0.513,0-0.961-0.165-1.344-0.496c-0.385-0.33-0.576-0.73-0.576-1.199v-1.633
		c-0.662,1.089-1.559,1.952-2.688,2.593C635.354,807.9,634.182,808.221,632.965,808.221z M633.445,806.301
		c0.533,0,1.104-0.106,1.712-0.32c0.608-0.213,1.179-0.507,1.712-0.88s0.986-0.811,1.36-1.312c0.372-0.501,0.603-1.04,0.688-1.615
		v-5.152c-0.215-0.576-0.523-1.114-0.929-1.616c-0.405-0.501-0.87-0.944-1.392-1.328c-0.523-0.384-1.084-0.683-1.68-0.896
		c-0.598-0.213-1.185-0.32-1.761-0.32c-0.896,0-1.707,0.192-2.433,0.576c-0.725,0.384-1.349,0.891-1.871,1.52
		c-0.523,0.63-0.924,1.35-1.2,2.16c-0.277,0.812-0.416,1.644-0.416,2.496c0,0.896,0.16,1.75,0.479,2.561
		c0.32,0.811,0.758,1.52,1.312,2.128c0.555,0.607,1.211,1.093,1.968,1.456C631.754,806.119,632.57,806.301,633.445,806.301z"/>
	<path fill="#424242" d="M653.221,808.221c-1.216,0-2.33-0.229-3.344-0.688c-1.014-0.458-1.894-1.088-2.64-1.888
		c-0.747-0.8-1.328-1.723-1.744-2.769c-0.416-1.045-0.624-2.165-0.624-3.359c0-1.173,0.208-2.277,0.624-3.312
		c0.416-1.034,0.991-1.94,1.728-2.72c0.736-0.778,1.616-1.397,2.641-1.856c1.023-0.458,2.133-0.688,3.328-0.688
		c1.216,0,2.33,0.229,3.344,0.688c1.013,0.459,1.883,1.083,2.607,1.872c0.726,0.79,1.291,1.696,1.696,2.721
		c0.405,1.023,0.608,2.111,0.608,3.264c0,0.171,0,0.342,0,0.512c0,0.171-0.012,0.288-0.032,0.353h-14.272
		c0.064,0.896,0.272,1.723,0.625,2.479c0.352,0.758,0.805,1.414,1.359,1.969s1.189,0.986,1.904,1.296s1.477,0.464,2.287,0.464
		c0.533,0,1.067-0.075,1.601-0.225c0.533-0.148,1.024-0.352,1.472-0.607c0.448-0.256,0.854-0.57,1.217-0.944
		c0.362-0.373,0.64-0.784,0.832-1.231l1.888,0.512c-0.256,0.619-0.619,1.179-1.088,1.68c-0.47,0.502-1.014,0.939-1.632,1.312
		c-0.619,0.373-1.302,0.661-2.049,0.863C654.811,808.119,654.031,808.221,653.221,808.221z M659.365,798.685
		c-0.064-0.896-0.271-1.712-0.624-2.448s-0.8-1.37-1.345-1.904c-0.543-0.532-1.173-0.948-1.887-1.248
		c-0.716-0.298-1.479-0.447-2.289-0.447s-1.578,0.149-2.304,0.447c-0.726,0.3-1.36,0.716-1.903,1.248
		c-0.545,0.534-0.982,1.174-1.312,1.92c-0.331,0.747-0.528,1.558-0.592,2.433H659.365z"/>
	<path fill="#424242" d="M686.98,807.9h-2.176v-9.312c0-1.899-0.326-3.317-0.977-4.257c-0.65-0.938-1.605-1.407-2.863-1.407
		c-0.619,0-1.232,0.123-1.841,0.367c-0.607,0.246-1.179,0.582-1.712,1.009s-0.997,0.928-1.392,1.504
		c-0.396,0.576-0.688,1.205-0.88,1.888V807.9h-2.176v-23.36h2.176v10.464c0.661-1.258,1.578-2.25,2.752-2.976
		c1.173-0.725,2.442-1.088,3.808-1.088c0.96,0,1.771,0.176,2.433,0.528c0.66,0.352,1.205,0.843,1.632,1.472
		c0.427,0.63,0.735,1.387,0.928,2.271c0.192,0.886,0.288,1.862,0.288,2.929V807.9z"/>
	<path fill="#424242" d="M698.819,808.221c-1.216,0-2.331-0.229-3.344-0.688c-1.014-0.458-1.894-1.088-2.64-1.888
		c-0.747-0.8-1.328-1.723-1.744-2.769c-0.416-1.045-0.624-2.165-0.624-3.359c0-1.173,0.208-2.277,0.624-3.312
		c0.416-1.034,0.992-1.94,1.728-2.72c0.736-0.778,1.616-1.397,2.641-1.856c1.023-0.458,2.133-0.688,3.328-0.688
		c1.216,0,2.33,0.229,3.344,0.688c1.013,0.459,1.883,1.083,2.607,1.872c0.726,0.79,1.291,1.696,1.696,2.721
		c0.405,1.023,0.608,2.111,0.608,3.264c0,0.171,0,0.342,0,0.512c0,0.171-0.011,0.288-0.032,0.353h-14.272
		c0.064,0.896,0.272,1.723,0.624,2.479c0.353,0.758,0.806,1.414,1.36,1.969s1.189,0.986,1.904,1.296
		c0.714,0.31,1.477,0.464,2.288,0.464c0.532,0,1.066-0.075,1.6-0.225c0.533-0.148,1.024-0.352,1.472-0.607
		c0.448-0.256,0.854-0.57,1.217-0.944c0.362-0.373,0.64-0.784,0.832-1.231l1.888,0.512c-0.256,0.619-0.619,1.179-1.088,1.68
		c-0.47,0.502-1.014,0.939-1.632,1.312c-0.619,0.373-1.302,0.661-2.049,0.863C700.409,808.119,699.63,808.221,698.819,808.221z
		 M704.964,798.685c-0.064-0.896-0.272-1.712-0.624-2.448c-0.353-0.736-0.8-1.37-1.344-1.904c-0.544-0.532-1.174-0.948-1.889-1.248
		c-0.715-0.298-1.478-0.447-2.288-0.447s-1.578,0.149-2.304,0.447c-0.726,0.3-1.36,0.716-1.904,1.248
		c-0.544,0.534-0.981,1.174-1.312,1.92c-0.331,0.747-0.528,1.558-0.592,2.433H704.964z"/>
	<path fill="#424242" d="M718.724,793.148c-1.472,0.043-2.752,0.448-3.84,1.216c-1.088,0.769-1.855,1.824-2.304,3.168V807.9h-2.176
		v-16.672h2.048v4c0.618-1.28,1.45-2.282,2.496-3.008c1.045-0.726,2.165-1.088,3.359-1.088c0.171,0,0.31,0.011,0.416,0.031V793.148z
		"/>
	<path fill="#424242" d="M729.955,793.148c-1.472,0.043-2.752,0.448-3.84,1.216c-1.088,0.769-1.855,1.824-2.304,3.168V807.9h-2.176
		v-16.672h2.048v4c0.618-1.28,1.45-2.282,2.496-3.008c1.045-0.726,2.165-1.088,3.359-1.088c0.171,0,0.31,0.011,0.416,0.031V793.148z
		"/>
	<path fill="#424242" d="M736.836,808.221c-0.789,0-1.52-0.134-2.191-0.4c-0.673-0.267-1.26-0.635-1.761-1.104
		c-0.501-0.47-0.891-1.019-1.168-1.648c-0.277-0.629-0.416-1.307-0.416-2.032c0-0.725,0.171-1.396,0.513-2.016
		c0.341-0.618,0.82-1.152,1.439-1.601c0.619-0.447,1.354-0.794,2.208-1.039s1.792-0.368,2.816-0.368
		c0.853,0,1.717,0.074,2.592,0.224c0.874,0.149,1.653,0.363,2.336,0.64v-1.504c0-1.472-0.416-2.64-1.248-3.504
		s-1.984-1.296-3.456-1.296c-0.854,0-1.728,0.171-2.624,0.512c-0.896,0.342-1.803,0.832-2.72,1.473l-0.769-1.44
		c2.155-1.45,4.245-2.176,6.272-2.176c2.091,0,3.733,0.587,4.928,1.76c1.194,1.174,1.792,2.795,1.792,4.864v7.52
		c0,0.598,0.267,0.896,0.8,0.896v1.92c-0.362,0.064-0.64,0.096-0.832,0.096c-0.555,0-0.986-0.139-1.296-0.416
		c-0.31-0.276-0.475-0.661-0.496-1.151l-0.063-1.312c-0.768,1.003-1.733,1.771-2.896,2.304
		C739.434,807.953,738.18,808.221,736.836,808.221z M737.348,806.557c1.131,0,2.171-0.213,3.12-0.641
		c0.949-0.426,1.669-0.991,2.16-1.695c0.192-0.192,0.336-0.4,0.433-0.624c0.096-0.225,0.144-0.433,0.144-0.624v-2.721
		c-0.726-0.276-1.478-0.49-2.256-0.64c-0.779-0.148-1.573-0.224-2.384-0.224c-1.536,0-2.784,0.319-3.744,0.96
		c-0.96,0.64-1.44,1.482-1.44,2.527c0,0.513,0.102,0.992,0.305,1.44c0.202,0.448,0.479,0.838,0.832,1.168
		c0.352,0.331,0.772,0.592,1.264,0.784C736.271,806.46,736.793,806.557,737.348,806.557z"/>
	<path fill="#424242" d="M774.885,807.9h-2.176v-9.312c0-1.941-0.31-3.371-0.929-4.288s-1.536-1.376-2.752-1.376
		c-0.64,0-1.243,0.117-1.808,0.352c-0.565,0.235-1.088,0.565-1.568,0.992c-0.479,0.427-0.901,0.934-1.264,1.52
		c-0.363,0.587-0.64,1.232-0.832,1.937V807.9h-2.176v-9.312c0-1.984-0.299-3.425-0.896-4.32c-0.598-0.896-1.515-1.344-2.752-1.344
		c-1.259,0-2.379,0.438-3.359,1.312c-0.982,0.875-1.686,2.027-2.112,3.456V807.9h-2.176v-16.672h1.983v3.775
		c0.683-1.279,1.579-2.276,2.688-2.991c1.108-0.715,2.336-1.072,3.68-1.072c1.408,0,2.533,0.395,3.376,1.184
		c0.843,0.79,1.36,1.824,1.552,3.104c1.558-2.858,3.701-4.288,6.433-4.288c0.938,0,1.732,0.171,2.384,0.512
		c0.65,0.342,1.173,0.827,1.568,1.456c0.395,0.63,0.682,1.387,0.863,2.272c0.182,0.885,0.272,1.872,0.272,2.96V807.9z"/>
	<path fill="#424242" d="M779.492,787.74v-3.2h2.176v3.2H779.492z M779.492,807.9v-16.672h2.176V807.9H779.492z"/>
	<path fill="#424242" d="M793.667,808.221c-1.216,0-2.331-0.229-3.344-0.688c-1.014-0.458-1.894-1.088-2.64-1.888
		c-0.747-0.8-1.328-1.723-1.744-2.769c-0.416-1.045-0.624-2.165-0.624-3.359c0-1.173,0.208-2.277,0.624-3.312
		c0.416-1.034,0.992-1.94,1.728-2.72c0.736-0.778,1.616-1.397,2.641-1.856c1.023-0.458,2.133-0.688,3.328-0.688
		c1.216,0,2.33,0.229,3.344,0.688c1.013,0.459,1.883,1.083,2.607,1.872c0.726,0.79,1.291,1.696,1.696,2.721
		c0.405,1.023,0.608,2.111,0.608,3.264c0,0.171,0,0.342,0,0.512c0,0.171-0.011,0.288-0.032,0.353h-14.272
		c0.064,0.896,0.272,1.723,0.624,2.479c0.353,0.758,0.806,1.414,1.36,1.969s1.189,0.986,1.904,1.296
		c0.714,0.31,1.477,0.464,2.288,0.464c0.532,0,1.066-0.075,1.6-0.225c0.533-0.148,1.024-0.352,1.472-0.607
		c0.448-0.256,0.854-0.57,1.217-0.944c0.362-0.373,0.64-0.784,0.832-1.231l1.888,0.512c-0.256,0.619-0.619,1.179-1.088,1.68
		c-0.47,0.502-1.014,0.939-1.632,1.312c-0.619,0.373-1.302,0.661-2.049,0.863C795.257,808.119,794.478,808.221,793.667,808.221z
		 M799.812,798.685c-0.064-0.896-0.272-1.712-0.624-2.448c-0.353-0.736-0.8-1.37-1.344-1.904c-0.544-0.532-1.174-0.948-1.889-1.248
		c-0.715-0.298-1.478-0.447-2.288-0.447s-1.578,0.149-2.304,0.447c-0.726,0.3-1.36,0.716-1.904,1.248
		c-0.544,0.534-0.981,1.174-1.312,1.92c-0.331,0.747-0.528,1.558-0.592,2.433H799.812z"/>
	<path fill="#424242" d="M819.267,807.9h-2.176v-9.312c0-1.984-0.294-3.425-0.88-4.32c-0.587-0.896-1.488-1.344-2.704-1.344
		c-0.641,0-1.28,0.117-1.92,0.352c-0.641,0.235-1.232,0.565-1.776,0.992s-1.029,0.934-1.456,1.52
		c-0.427,0.587-0.736,1.222-0.928,1.904V807.9h-2.176v-16.672h1.983v3.775c0.683-1.216,1.659-2.196,2.928-2.943
		c1.27-0.747,2.651-1.12,4.145-1.12c0.917,0,1.696,0.171,2.336,0.512c0.64,0.342,1.152,0.821,1.536,1.44s0.661,1.376,0.832,2.271
		c0.17,0.896,0.256,1.889,0.256,2.977V807.9z"/>
	<path fill="#424242" d="M831.747,807.101c-0.128,0.063-0.315,0.149-0.561,0.256c-0.245,0.107-0.528,0.214-0.848,0.32
		c-0.32,0.106-0.684,0.202-1.088,0.288c-0.406,0.085-0.832,0.128-1.28,0.128c-0.47,0-0.918-0.064-1.344-0.192
		c-0.428-0.128-0.8-0.325-1.12-0.592s-0.576-0.603-0.769-1.008c-0.191-0.405-0.288-0.875-0.288-1.408v-11.937h-2.304v-1.728h2.304
		v-5.632h2.177v5.632h3.84v1.728h-3.84v11.328c0.042,0.619,0.261,1.072,0.655,1.36s0.849,0.432,1.36,0.432
		c0.618,0,1.163-0.101,1.632-0.304c0.47-0.202,0.769-0.347,0.896-0.432L831.747,807.101z"/>
	<path fill="#424242" d="M838.659,808.221c-0.789,0-1.52-0.134-2.191-0.4c-0.673-0.267-1.26-0.635-1.761-1.104
		c-0.501-0.47-0.891-1.019-1.168-1.648c-0.277-0.629-0.416-1.307-0.416-2.032c0-0.725,0.171-1.396,0.513-2.016
		c0.341-0.618,0.82-1.152,1.439-1.601c0.619-0.447,1.354-0.794,2.208-1.039s1.792-0.368,2.816-0.368
		c0.853,0,1.717,0.074,2.592,0.224c0.874,0.149,1.653,0.363,2.336,0.64v-1.504c0-1.472-0.416-2.64-1.248-3.504
		s-1.984-1.296-3.456-1.296c-0.854,0-1.728,0.171-2.624,0.512c-0.896,0.342-1.803,0.832-2.72,1.473l-0.769-1.44
		c2.155-1.45,4.245-2.176,6.272-2.176c2.091,0,3.733,0.587,4.928,1.76c1.194,1.174,1.792,2.795,1.792,4.864v7.52
		c0,0.598,0.267,0.896,0.8,0.896v1.92c-0.362,0.064-0.64,0.096-0.832,0.096c-0.555,0-0.986-0.139-1.296-0.416
		c-0.31-0.276-0.475-0.661-0.496-1.151l-0.063-1.312c-0.768,1.003-1.733,1.771-2.896,2.304
		C841.257,807.953,840.003,808.221,838.659,808.221z M839.171,806.557c1.131,0,2.171-0.213,3.12-0.641
		c0.949-0.426,1.669-0.991,2.16-1.695c0.192-0.192,0.336-0.4,0.433-0.624c0.096-0.225,0.144-0.433,0.144-0.624v-2.721
		c-0.726-0.276-1.478-0.49-2.256-0.64c-0.779-0.148-1.573-0.224-2.384-0.224c-1.536,0-2.784,0.319-3.744,0.96
		c-0.96,0.64-1.44,1.482-1.44,2.527c0,0.513,0.102,0.992,0.305,1.44c0.202,0.448,0.479,0.838,0.832,1.168
		c0.352,0.331,0.772,0.592,1.264,0.784C838.094,806.46,838.616,806.557,839.171,806.557z"/>
	<path fill="#424242" d="M857.442,808.221c-1.301,0-2.57-0.214-3.808-0.641c-1.237-0.426-2.304-1.045-3.2-1.855l0.992-1.473
		c0.938,0.769,1.894,1.345,2.864,1.729s2.011,0.576,3.12,0.576c1.344,0,2.416-0.272,3.216-0.816s1.2-1.316,1.2-2.32
		c0-0.469-0.107-0.858-0.32-1.168c-0.214-0.309-0.528-0.58-0.944-0.815c-0.416-0.234-0.938-0.442-1.567-0.624
		c-0.63-0.181-1.36-0.368-2.192-0.561c-0.96-0.234-1.792-0.469-2.496-0.703c-0.704-0.235-1.285-0.501-1.744-0.801
		c-0.459-0.298-0.8-0.666-1.023-1.104c-0.225-0.438-0.336-0.986-0.336-1.648c0-0.832,0.165-1.567,0.496-2.208
		c0.33-0.64,0.778-1.168,1.344-1.584c0.564-0.416,1.227-0.73,1.983-0.943c0.758-0.213,1.562-0.32,2.416-0.32
		c1.28,0,2.443,0.208,3.488,0.624s1.888,0.966,2.528,1.647l-1.056,1.28c-0.619-0.64-1.371-1.12-2.257-1.439
		c-0.885-0.32-1.808-0.48-2.768-0.48c-0.576,0-1.109,0.06-1.6,0.176c-0.491,0.118-0.924,0.305-1.297,0.561s-0.667,0.581-0.88,0.976
		c-0.213,0.396-0.319,0.859-0.319,1.393c0,0.447,0.074,0.811,0.224,1.088s0.395,0.518,0.736,0.72
		c0.341,0.203,0.772,0.384,1.296,0.544c0.522,0.16,1.157,0.325,1.903,0.496c1.067,0.256,2.006,0.512,2.816,0.768
		c0.811,0.257,1.488,0.556,2.032,0.896c0.544,0.342,0.954,0.758,1.231,1.248c0.277,0.491,0.416,1.088,0.416,1.792
		c0,1.536-0.587,2.752-1.76,3.647C861.005,807.772,859.427,808.221,857.442,808.221z"/>
	<path fill="#424242" d="M875.715,813.021c0.17,0.021,0.336,0.037,0.496,0.048c0.159,0.011,0.314,0.016,0.464,0.016
		c0.384,0,0.688-0.053,0.912-0.159c0.224-0.107,0.442-0.342,0.655-0.704c0.213-0.363,0.453-0.886,0.721-1.568
		c0.266-0.683,0.645-1.6,1.136-2.752l-7.264-16.672h2.239l6.177,14.656l5.728-14.656h2.08l-8.64,21.504
		c-0.235,0.618-0.624,1.157-1.168,1.616c-0.545,0.458-1.286,0.688-2.225,0.688c-0.213,0-0.416-0.005-0.607-0.016
		c-0.192-0.011-0.428-0.038-0.704-0.08V813.021z"/>
	<path fill="#424242" d="M906.242,808.221c-1.152,0-2.219-0.24-3.2-0.721c-0.981-0.479-1.824-1.114-2.528-1.903
		c-0.703-0.789-1.253-1.701-1.647-2.736c-0.396-1.034-0.592-2.117-0.592-3.248c0-1.173,0.191-2.288,0.576-3.344
		c0.384-1.057,0.911-1.979,1.584-2.769c0.672-0.789,1.472-1.413,2.399-1.872c0.928-0.458,1.946-0.688,3.057-0.688
		c1.407,0,2.655,0.368,3.743,1.104c1.088,0.736,1.941,1.628,2.561,2.673V784.54h2.176v20.544c0,0.598,0.256,0.896,0.768,0.896v1.92
		c-0.319,0.064-0.575,0.096-0.768,0.096c-0.512,0-0.96-0.165-1.344-0.496c-0.384-0.33-0.576-0.73-0.576-1.199v-1.633
		c-0.661,1.089-1.558,1.952-2.688,2.593C908.631,807.9,907.458,808.221,906.242,808.221z M906.722,806.301
		c0.533,0,1.104-0.106,1.713-0.32c0.607-0.213,1.178-0.507,1.712-0.88c0.532-0.373,0.986-0.811,1.359-1.312
		c0.373-0.501,0.603-1.04,0.688-1.615v-5.152c-0.214-0.576-0.523-1.114-0.928-1.616c-0.406-0.501-0.87-0.944-1.393-1.328
		s-1.083-0.683-1.68-0.896c-0.598-0.213-1.185-0.32-1.76-0.32c-0.896,0-1.707,0.192-2.433,0.576s-1.35,0.891-1.872,1.52
		c-0.522,0.63-0.923,1.35-1.2,2.16c-0.277,0.812-0.416,1.644-0.416,2.496c0,0.896,0.16,1.75,0.48,2.561s0.757,1.52,1.312,2.128
		c0.555,0.607,1.211,1.093,1.969,1.456C905.031,806.119,905.847,806.301,906.722,806.301z"/>
	<path fill="#424242" d="M919.298,787.74v-3.2h2.176v3.2H919.298z M919.298,807.9v-16.672h2.176V807.9H919.298z"/>
	<path fill="#424242" d="M925.122,799.517c0-1.173,0.202-2.282,0.608-3.328c0.404-1.045,0.976-1.957,1.712-2.736
		c0.735-0.778,1.615-1.392,2.64-1.84s2.154-0.672,3.392-0.672c1.579,0,2.955,0.357,4.128,1.072c1.174,0.715,2.059,1.68,2.656,2.896
		l-2.111,0.672c-0.47-0.853-1.126-1.52-1.969-2c-0.843-0.479-1.775-0.72-2.8-0.72c-0.854,0-1.647,0.171-2.384,0.512
		c-0.736,0.342-1.376,0.806-1.92,1.393s-0.972,1.285-1.28,2.096c-0.31,0.812-0.464,1.696-0.464,2.656
		c0,0.938,0.16,1.824,0.479,2.656c0.32,0.831,0.758,1.552,1.312,2.159c0.555,0.608,1.2,1.088,1.936,1.44
		c0.736,0.352,1.521,0.528,2.353,0.528c0.533,0,1.061-0.075,1.584-0.225c0.522-0.148,1.008-0.356,1.456-0.624
		c0.448-0.267,0.832-0.57,1.151-0.912c0.32-0.341,0.545-0.704,0.673-1.088l2.144,0.641c-0.235,0.597-0.576,1.146-1.024,1.647
		c-0.447,0.502-0.976,0.939-1.584,1.312c-0.607,0.373-1.279,0.661-2.016,0.863c-0.736,0.203-1.499,0.305-2.288,0.305
		c-1.216,0-2.336-0.229-3.359-0.688c-1.024-0.458-1.91-1.088-2.656-1.888c-0.747-0.8-1.328-1.723-1.744-2.769
		C925.33,801.831,925.122,800.711,925.122,799.517z"/>
	<path fill="#424242" d="M943.842,787.74v-3.2h2.176v3.2H943.842z M943.842,807.9v-16.672h2.176V807.9H943.842z"/>
	<path fill="#424242" d="M959.329,808.221c-1.408,0-2.651-0.357-3.729-1.072s-1.946-1.616-2.607-2.704v10.272h-2.176v-23.488h1.951
		v3.231c0.683-1.045,1.568-1.893,2.656-2.544c1.088-0.65,2.272-0.976,3.552-0.976c1.152,0,2.208,0.24,3.168,0.72
		c0.961,0.48,1.792,1.12,2.496,1.92c0.704,0.801,1.253,1.724,1.648,2.769c0.395,1.045,0.592,2.123,0.592,3.231
		c0,1.174-0.182,2.283-0.544,3.328c-0.363,1.046-0.88,1.963-1.552,2.752c-0.672,0.79-1.472,1.414-2.4,1.872
		C961.457,807.991,960.438,808.221,959.329,808.221z M958.721,806.301c0.896,0,1.712-0.192,2.448-0.576s1.365-0.891,1.888-1.521
		c0.522-0.629,0.923-1.344,1.2-2.144s0.416-1.627,0.416-2.48c0-0.896-0.16-1.749-0.479-2.56c-0.32-0.811-0.758-1.525-1.312-2.145
		c-0.555-0.618-1.211-1.108-1.968-1.472c-0.758-0.362-1.573-0.544-2.448-0.544c-0.555,0-1.136,0.112-1.744,0.336
		c-0.607,0.224-1.173,0.523-1.695,0.896c-0.523,0.373-0.972,0.811-1.345,1.312c-0.373,0.502-0.603,1.029-0.688,1.584v5.12
		c0.256,0.598,0.581,1.152,0.976,1.664s0.843,0.955,1.345,1.328c0.501,0.373,1.039,0.667,1.615,0.88
		C957.505,806.194,958.102,806.301,958.721,806.301z"/>
	<path fill="#424242" d="M970.657,784.54h2.176v19.584c0,0.619,0.171,1.104,0.512,1.456c0.342,0.353,0.821,0.528,1.44,0.528
		c0.234,0,0.512-0.032,0.832-0.096c0.32-0.064,0.618-0.149,0.896-0.256l0.385,1.76c-0.406,0.171-0.901,0.31-1.488,0.416
		s-1.094,0.16-1.521,0.16c-1.003,0-1.792-0.283-2.367-0.849c-0.576-0.564-0.864-1.359-0.864-2.384V784.54z"/>
	<path fill="#424242" d="M979.265,787.74v-3.2h2.176v3.2H979.265z M979.265,807.9v-16.672h2.176V807.9H979.265z"/>
	<path fill="#424242" d="M1000.256,807.9h-2.176v-9.312c0-1.984-0.294-3.425-0.88-4.32c-0.587-0.896-1.488-1.344-2.704-1.344
		c-0.641,0-1.28,0.117-1.92,0.352c-0.641,0.235-1.232,0.565-1.776,0.992s-1.029,0.934-1.456,1.52
		c-0.427,0.587-0.736,1.222-0.928,1.904V807.9h-2.176v-16.672h1.983v3.775c0.683-1.216,1.659-2.196,2.928-2.943
		c1.27-0.747,2.651-1.12,4.145-1.12c0.917,0,1.696,0.171,2.336,0.512c0.64,0.342,1.152,0.821,1.536,1.44s0.661,1.376,0.832,2.271
		c0.17,0.896,0.256,1.889,0.256,2.977V807.9z"/>
	<path fill="#424242" d="M1009.087,808.221c-0.789,0-1.52-0.134-2.191-0.4c-0.673-0.267-1.26-0.635-1.761-1.104
		c-0.501-0.47-0.891-1.019-1.168-1.648c-0.277-0.629-0.416-1.307-0.416-2.032c0-0.725,0.171-1.396,0.513-2.016
		c0.341-0.618,0.82-1.152,1.439-1.601c0.619-0.447,1.354-0.794,2.208-1.039s1.792-0.368,2.816-0.368
		c0.853,0,1.717,0.074,2.592,0.224c0.874,0.149,1.653,0.363,2.336,0.64v-1.504c0-1.472-0.416-2.64-1.248-3.504
		s-1.984-1.296-3.456-1.296c-0.854,0-1.728,0.171-2.624,0.512c-0.896,0.342-1.803,0.832-2.72,1.473l-0.769-1.44
		c2.155-1.45,4.245-2.176,6.272-2.176c2.091,0,3.733,0.587,4.928,1.76c1.194,1.174,1.792,2.795,1.792,4.864v7.52
		c0,0.598,0.267,0.896,0.8,0.896v1.92c-0.362,0.064-0.64,0.096-0.832,0.096c-0.555,0-0.986-0.139-1.296-0.416
		c-0.31-0.276-0.475-0.661-0.496-1.151l-0.063-1.312c-0.768,1.003-1.733,1.771-2.896,2.304
		C1011.685,807.953,1010.431,808.221,1009.087,808.221z M1009.599,806.557c1.131,0,2.171-0.213,3.12-0.641
		c0.949-0.426,1.669-0.991,2.16-1.695c0.192-0.192,0.336-0.4,0.433-0.624c0.096-0.225,0.144-0.433,0.144-0.624v-2.721
		c-0.726-0.276-1.478-0.49-2.256-0.64c-0.779-0.148-1.573-0.224-2.384-0.224c-1.536,0-2.784,0.319-3.744,0.96
		c-0.96,0.64-1.44,1.482-1.44,2.527c0,0.513,0.102,0.992,0.305,1.44c0.202,0.448,0.479,0.838,0.832,1.168
		c0.352,0.331,0.772,0.592,1.264,0.784C1008.521,806.46,1009.044,806.557,1009.599,806.557z"/>
	<path fill="#424242" d="M1027.871,808.221c-1.301,0-2.57-0.214-3.808-0.641c-1.237-0.426-2.304-1.045-3.2-1.855l0.992-1.473
		c0.938,0.769,1.894,1.345,2.864,1.729s2.011,0.576,3.12,0.576c1.344,0,2.416-0.272,3.216-0.816s1.2-1.316,1.2-2.32
		c0-0.469-0.107-0.858-0.32-1.168c-0.214-0.309-0.528-0.58-0.944-0.815c-0.416-0.234-0.938-0.442-1.567-0.624
		c-0.63-0.181-1.36-0.368-2.192-0.561c-0.96-0.234-1.792-0.469-2.496-0.703c-0.704-0.235-1.285-0.501-1.744-0.801
		c-0.459-0.298-0.8-0.666-1.023-1.104c-0.225-0.438-0.336-0.986-0.336-1.648c0-0.832,0.165-1.567,0.496-2.208
		c0.33-0.64,0.778-1.168,1.344-1.584c0.564-0.416,1.227-0.73,1.983-0.943c0.758-0.213,1.562-0.32,2.416-0.32
		c1.28,0,2.443,0.208,3.488,0.624s1.888,0.966,2.528,1.647l-1.056,1.28c-0.619-0.64-1.371-1.12-2.257-1.439
		c-0.885-0.32-1.808-0.48-2.768-0.48c-0.576,0-1.109,0.06-1.6,0.176c-0.491,0.118-0.924,0.305-1.297,0.561s-0.667,0.581-0.88,0.976
		c-0.213,0.396-0.319,0.859-0.319,1.393c0,0.447,0.074,0.811,0.224,1.088s0.395,0.518,0.736,0.72
		c0.341,0.203,0.772,0.384,1.296,0.544c0.522,0.16,1.157,0.325,1.903,0.496c1.067,0.256,2.006,0.512,2.816,0.768
		c0.811,0.257,1.488,0.556,2.032,0.896c0.544,0.342,0.954,0.758,1.231,1.248c0.277,0.491,0.416,1.088,0.416,1.792
		c0,1.536-0.587,2.752-1.76,3.647C1031.434,807.772,1029.855,808.221,1027.871,808.221z"/>
	<path fill="#424242" d="M494.055,824.54h2.176v19.584c0,0.619,0.17,1.104,0.512,1.456c0.342,0.353,0.821,0.528,1.44,0.528
		c0.234,0,0.513-0.032,0.832-0.096c0.319-0.064,0.618-0.149,0.896-0.256l0.385,1.76c-0.406,0.171-0.902,0.31-1.488,0.416
		c-0.587,0.106-1.094,0.16-1.52,0.16c-1.004,0-1.793-0.283-2.369-0.849c-0.575-0.564-0.863-1.359-0.863-2.384V824.54z"/>
	<path fill="#424242" d="M509.766,848.221c-1.215,0-2.324-0.229-3.328-0.688c-1.002-0.458-1.871-1.082-2.607-1.872
		c-0.736-0.789-1.307-1.706-1.712-2.752c-0.405-1.045-0.608-2.144-0.608-3.296c0-1.173,0.209-2.282,0.625-3.328
		c0.416-1.045,0.991-1.962,1.728-2.752c0.735-0.789,1.604-1.418,2.608-1.888c1.002-0.469,2.101-0.704,3.295-0.704
		c1.195,0,2.299,0.235,3.312,0.704c1.014,0.47,1.889,1.099,2.624,1.888c0.735,0.79,1.312,1.707,1.728,2.752
		c0.416,1.046,0.625,2.155,0.625,3.328c0,1.152-0.203,2.251-0.608,3.296c-0.405,1.046-0.976,1.963-1.712,2.752
		c-0.736,0.79-1.611,1.414-2.624,1.872C512.097,847.991,510.982,848.221,509.766,848.221z M503.719,839.645
		c0,0.938,0.16,1.808,0.479,2.607c0.319,0.801,0.752,1.505,1.296,2.112c0.544,0.608,1.184,1.083,1.92,1.424
		c0.736,0.342,1.52,0.513,2.352,0.513s1.617-0.177,2.353-0.528c0.735-0.353,1.381-0.832,1.937-1.44
		c0.555-0.607,0.992-1.316,1.312-2.128c0.319-0.811,0.479-1.685,0.479-2.624c0-0.917-0.16-1.786-0.479-2.607
		s-0.757-1.536-1.312-2.145c-0.556-0.607-1.201-1.088-1.937-1.439c-0.735-0.353-1.521-0.528-2.353-0.528s-1.61,0.176-2.336,0.528
		c-0.725,0.352-1.365,0.837-1.92,1.456s-0.992,1.339-1.312,2.159C503.879,837.826,503.719,838.706,503.719,839.645z"/>
	<path fill="#424242" d="M528.39,848.124c-1.151,0-2.203-0.239-3.151-0.72c-0.95-0.479-1.771-1.114-2.465-1.904
		c-0.693-0.789-1.231-1.695-1.615-2.72c-0.385-1.023-0.576-2.08-0.576-3.168c0-1.152,0.186-2.256,0.56-3.312
		c0.373-1.057,0.901-1.979,1.584-2.769c0.683-0.789,1.499-1.418,2.448-1.888c0.949-0.469,2-0.704,3.152-0.704
		c1.429,0,2.666,0.357,3.711,1.072s1.941,1.615,2.688,2.704v-3.488h1.952v16.736c0,1.151-0.219,2.17-0.656,3.056
		c-0.438,0.885-1.023,1.626-1.76,2.224s-1.6,1.045-2.592,1.345c-0.992,0.298-2.043,0.447-3.152,0.447
		c-1.92,0-3.467-0.341-4.64-1.023c-1.174-0.684-2.123-1.601-2.849-2.752l1.344-1.057c0.662,1.066,1.537,1.851,2.625,2.353
		c1.088,0.501,2.261,0.752,3.52,0.752c0.811,0,1.578-0.112,2.305-0.336c0.725-0.225,1.359-0.556,1.903-0.992
		c0.544-0.438,0.976-0.992,1.296-1.664s0.48-1.456,0.48-2.352v-3.297c-0.641,1.067-1.516,1.91-2.624,2.528
		C530.768,847.815,529.605,848.124,528.39,848.124z M528.998,846.301c0.64,0,1.269-0.117,1.888-0.353
		c0.618-0.234,1.179-0.549,1.681-0.944c0.5-0.394,0.922-0.837,1.264-1.327c0.341-0.491,0.564-0.992,0.672-1.504v-5.152
		c-0.235-0.597-0.555-1.152-0.96-1.664s-0.864-0.949-1.376-1.312c-0.512-0.362-1.062-0.65-1.648-0.863s-1.179-0.32-1.775-0.32
		c-0.939,0-1.776,0.197-2.512,0.592c-0.736,0.396-1.361,0.912-1.873,1.552c-0.512,0.641-0.901,1.366-1.168,2.177
		s-0.4,1.632-0.4,2.464c0,0.896,0.16,1.749,0.48,2.56c0.32,0.812,0.763,1.521,1.328,2.128c0.564,0.608,1.221,1.088,1.969,1.44
		C527.312,846.124,528.123,846.301,528.998,846.301z"/>
	<path fill="#424242" d="M549.798,833.148c-1.472,0.043-2.753,0.448-3.841,1.216c-1.088,0.769-1.855,1.824-2.303,3.168V847.9h-2.177
		v-16.672h2.048v4c0.619-1.28,1.451-2.282,2.496-3.008s2.165-1.088,3.36-1.088c0.171,0,0.309,0.011,0.416,0.031V833.148z"/>
	<path fill="#424242" d="M556.678,848.221c-0.789,0-1.52-0.134-2.191-0.4s-1.26-0.635-1.76-1.104
		c-0.502-0.47-0.892-1.019-1.168-1.648c-0.278-0.629-0.416-1.307-0.416-2.032c0-0.725,0.17-1.396,0.512-2.016
		c0.341-0.618,0.82-1.152,1.439-1.601c0.619-0.447,1.354-0.794,2.208-1.039c0.853-0.245,1.792-0.368,2.816-0.368
		c0.853,0,1.717,0.074,2.592,0.224c0.874,0.149,1.653,0.363,2.336,0.64v-1.504c0-1.472-0.416-2.64-1.248-3.504
		s-1.983-1.296-3.456-1.296c-0.854,0-1.729,0.171-2.624,0.512c-0.896,0.342-1.803,0.832-2.72,1.473l-0.768-1.44
		c2.154-1.45,4.244-2.176,6.271-2.176c2.09,0,3.732,0.587,4.928,1.76c1.195,1.174,1.793,2.795,1.793,4.864v7.52
		c0,0.598,0.266,0.896,0.799,0.896v1.92c-0.362,0.064-0.64,0.096-0.832,0.096c-0.555,0-0.986-0.139-1.295-0.416
		c-0.311-0.276-0.476-0.661-0.496-1.151l-0.064-1.312c-0.768,1.003-1.733,1.771-2.896,2.304
		C559.275,847.953,558.021,848.221,556.678,848.221z M557.189,846.557c1.131,0,2.171-0.213,3.121-0.641
		c0.948-0.426,1.668-0.991,2.159-1.695c0.192-0.192,0.337-0.4,0.433-0.624c0.096-0.225,0.144-0.433,0.144-0.624v-2.721
		c-0.726-0.276-1.478-0.49-2.256-0.64c-0.779-0.148-1.573-0.224-2.384-0.224c-1.536,0-2.784,0.319-3.744,0.96
		c-0.96,0.64-1.439,1.482-1.439,2.527c0,0.513,0.1,0.992,0.303,1.44s0.48,0.838,0.832,1.168c0.353,0.331,0.773,0.592,1.265,0.784
		C556.112,846.46,556.635,846.557,557.189,846.557z"/>
	<path fill="#424242" d="M583.941,847.9h-2.176v-9.312c0-1.984-0.293-3.425-0.88-4.32c-0.587-0.896-1.487-1.344-2.704-1.344
		c-0.64,0-1.279,0.117-1.92,0.352c-0.64,0.235-1.232,0.565-1.775,0.992c-0.545,0.427-1.029,0.934-1.457,1.52
		c-0.426,0.587-0.735,1.222-0.928,1.904V847.9h-2.176v-16.672h1.984v3.775c0.682-1.216,1.658-2.196,2.928-2.943
		s2.65-1.12,4.145-1.12c0.916,0,1.695,0.171,2.336,0.512c0.64,0.342,1.151,0.821,1.535,1.44c0.385,0.619,0.661,1.376,0.832,2.271
		c0.171,0.896,0.256,1.889,0.256,2.977V847.9z"/>
	<path fill="#424242" d="M595.43,848.221c-1.152,0-2.219-0.24-3.2-0.721c-0.981-0.479-1.823-1.114-2.528-1.903
		c-0.703-0.789-1.253-1.701-1.647-2.736c-0.396-1.034-0.593-2.117-0.593-3.248c0-1.173,0.193-2.288,0.576-3.344
		c0.385-1.057,0.912-1.979,1.584-2.769c0.672-0.789,1.473-1.413,2.4-1.872c0.928-0.458,1.947-0.688,3.057-0.688
		c1.408,0,2.655,0.368,3.744,1.104c1.088,0.736,1.94,1.628,2.56,2.673V824.54h2.176v20.544c0,0.598,0.256,0.896,0.769,0.896v1.92
		c-0.32,0.064-0.576,0.096-0.769,0.096c-0.513,0-0.96-0.165-1.344-0.496c-0.384-0.33-0.576-0.73-0.576-1.199v-1.633
		c-0.661,1.089-1.558,1.952-2.688,2.593C597.818,847.9,596.646,848.221,595.43,848.221z M595.91,846.301
		c0.533,0,1.104-0.106,1.711-0.32c0.608-0.213,1.18-0.507,1.713-0.88s0.986-0.811,1.359-1.312c0.373-0.501,0.603-1.04,0.688-1.615
		v-5.152c-0.214-0.576-0.523-1.114-0.929-1.616c-0.404-0.501-0.869-0.944-1.392-1.328s-1.083-0.683-1.68-0.896
		c-0.598-0.213-1.185-0.32-1.761-0.32c-0.896,0-1.707,0.192-2.432,0.576s-1.35,0.891-1.871,1.52c-0.523,0.63-0.924,1.35-1.201,2.16
		c-0.277,0.812-0.416,1.644-0.416,2.496c0,0.896,0.16,1.75,0.48,2.561s0.757,1.52,1.312,2.128c0.555,0.607,1.21,1.093,1.967,1.456
		C594.219,846.119,595.035,846.301,595.91,846.301z"/>
	<path fill="#424242" d="M615.59,848.221c-1.217,0-2.326-0.229-3.328-0.688c-1.004-0.458-1.872-1.082-2.608-1.872
		c-0.735-0.789-1.307-1.706-1.712-2.752c-0.405-1.045-0.607-2.144-0.607-3.296c0-1.173,0.207-2.282,0.623-3.328
		c0.416-1.045,0.992-1.962,1.729-2.752c0.736-0.789,1.605-1.418,2.607-1.888c1.003-0.469,2.102-0.704,3.297-0.704
		c1.194,0,2.299,0.235,3.312,0.704c1.013,0.47,1.888,1.099,2.624,1.888c0.736,0.79,1.312,1.707,1.729,2.752
		c0.416,1.046,0.623,2.155,0.623,3.328c0,1.152-0.203,2.251-0.607,3.296c-0.406,1.046-0.977,1.963-1.712,2.752
		c-0.736,0.79-1.611,1.414-2.624,1.872C617.92,847.991,616.806,848.221,615.59,848.221z M609.541,839.645
		c0,0.938,0.16,1.808,0.48,2.607c0.32,0.801,0.752,1.505,1.296,2.112c0.544,0.608,1.185,1.083,1.92,1.424
		c0.736,0.342,1.521,0.513,2.353,0.513s1.615-0.177,2.352-0.528c0.736-0.353,1.381-0.832,1.936-1.44
		c0.555-0.607,0.992-1.316,1.312-2.128c0.32-0.811,0.48-1.685,0.48-2.624c0-0.917-0.16-1.786-0.48-2.607s-0.758-1.536-1.312-2.145
		c-0.555-0.607-1.199-1.088-1.936-1.439c-0.736-0.353-1.52-0.528-2.352-0.528s-1.611,0.176-2.336,0.528
		c-0.727,0.352-1.365,0.837-1.92,1.456c-0.556,0.619-0.992,1.339-1.312,2.159C609.701,837.826,609.541,838.706,609.541,839.645z"/>
	<path fill="#424242" d="M640.9,848.221c-1.812,0-3.162-0.603-4.048-1.809c-0.886-1.205-1.327-3.002-1.327-5.392v-9.792h2.176v9.408
		c0,3.775,1.29,5.664,3.871,5.664c0.641,0,1.27-0.106,1.889-0.32c0.618-0.213,1.189-0.522,1.712-0.928s0.991-0.886,1.407-1.44
		s0.752-1.184,1.009-1.888v-10.496h2.176v13.855c0,0.598,0.256,0.896,0.769,0.896v1.92c-0.256,0.043-0.465,0.064-0.625,0.064
		s-0.271,0-0.336,0c-0.512-0.021-0.928-0.203-1.248-0.545c-0.319-0.341-0.479-0.8-0.479-1.376v-1.92
		c-0.726,1.302-1.712,2.31-2.96,3.024S642.309,848.221,640.9,848.221z"/>
	<path fill="#424242" d="M668.709,847.9h-2.176v-9.312c0-1.984-0.295-3.425-0.881-4.32c-0.587-0.896-1.488-1.344-2.704-1.344
		c-0.64,0-1.28,0.117-1.92,0.352c-0.64,0.235-1.231,0.565-1.776,0.992c-0.543,0.427-1.029,0.934-1.455,1.52
		c-0.428,0.587-0.736,1.222-0.928,1.904V847.9h-2.177v-16.672h1.983v3.775c0.684-1.216,1.659-2.196,2.929-2.943
		c1.269-0.747,2.65-1.12,4.144-1.12c0.918,0,1.696,0.171,2.336,0.512c0.641,0.342,1.152,0.821,1.537,1.44
		c0.383,0.619,0.66,1.376,0.832,2.271c0.17,0.896,0.256,1.889,0.256,2.977V847.9z"/>
	<path fill="#424242" d="M690.021,848.221c-1.408,0-2.651-0.357-3.729-1.072s-1.946-1.616-2.607-2.704v10.272h-2.176v-23.488h1.951
		v3.231c0.683-1.045,1.568-1.893,2.656-2.544c1.088-0.65,2.272-0.976,3.552-0.976c1.152,0,2.208,0.24,3.168,0.72
		c0.961,0.48,1.792,1.12,2.496,1.92c0.704,0.801,1.253,1.724,1.648,2.769c0.395,1.045,0.592,2.123,0.592,3.231
		c0,1.174-0.182,2.283-0.544,3.328c-0.363,1.046-0.88,1.963-1.552,2.752c-0.672,0.79-1.472,1.414-2.4,1.872
		C692.148,847.991,691.13,848.221,690.021,848.221z M689.412,846.301c0.896,0,1.712-0.192,2.448-0.576s1.365-0.891,1.888-1.521
		c0.522-0.629,0.923-1.344,1.2-2.144s0.416-1.627,0.416-2.48c0-0.896-0.16-1.749-0.479-2.56c-0.32-0.811-0.758-1.525-1.312-2.145
		c-0.555-0.618-1.211-1.108-1.968-1.472c-0.758-0.362-1.573-0.544-2.448-0.544c-0.555,0-1.136,0.112-1.744,0.336
		c-0.607,0.224-1.173,0.523-1.695,0.896c-0.523,0.373-0.972,0.811-1.345,1.312c-0.373,0.502-0.603,1.029-0.688,1.584v5.12
		c0.256,0.598,0.581,1.152,0.976,1.664s0.843,0.955,1.345,1.328c0.501,0.373,1.039,0.667,1.615,0.88
		C688.196,846.194,688.793,846.301,689.412,846.301z"/>
	<path fill="#424242" d="M709.571,833.148c-1.472,0.043-2.752,0.448-3.84,1.216c-1.088,0.769-1.855,1.824-2.304,3.168V847.9h-2.176
		v-16.672h2.048v4c0.618-1.28,1.45-2.282,2.496-3.008c1.045-0.726,2.165-1.088,3.359-1.088c0.171,0,0.31,0.011,0.416,0.031V833.148z
		"/>
	<path fill="#424242" d="M718.756,848.221c-1.216,0-2.325-0.229-3.328-0.688c-1.003-0.458-1.872-1.082-2.607-1.872
		c-0.736-0.789-1.308-1.706-1.712-2.752c-0.406-1.045-0.608-2.144-0.608-3.296c0-1.173,0.208-2.282,0.624-3.328
		c0.416-1.045,0.992-1.962,1.728-2.752c0.736-0.789,1.605-1.418,2.608-1.888c1.003-0.469,2.101-0.704,3.296-0.704
		c1.194,0,2.299,0.235,3.312,0.704c1.013,0.47,1.888,1.099,2.624,1.888c0.735,0.79,1.312,1.707,1.728,2.752
		c0.416,1.046,0.624,2.155,0.624,3.328c0,1.152-0.203,2.251-0.608,3.296c-0.405,1.046-0.976,1.963-1.712,2.752
		c-0.735,0.79-1.61,1.414-2.624,1.872C721.087,847.991,719.972,848.221,718.756,848.221z M712.708,839.645
		c0,0.938,0.16,1.808,0.479,2.607c0.32,0.801,0.753,1.505,1.297,2.112c0.544,0.608,1.184,1.083,1.92,1.424
		c0.735,0.342,1.52,0.513,2.352,0.513s1.616-0.177,2.353-0.528c0.735-0.353,1.381-0.832,1.936-1.44
		c0.555-0.607,0.992-1.316,1.312-2.128c0.32-0.811,0.48-1.685,0.48-2.624c0-0.917-0.16-1.786-0.48-2.607
		c-0.319-0.821-0.757-1.536-1.312-2.145c-0.555-0.607-1.2-1.088-1.936-1.439c-0.736-0.353-1.521-0.528-2.353-0.528
		s-1.611,0.176-2.336,0.528c-0.726,0.352-1.365,0.837-1.92,1.456s-0.992,1.339-1.312,2.159
		C712.868,837.826,712.708,838.706,712.708,839.645z"/>
	<path fill="#424242" d="M729.54,839.517c0-1.173,0.202-2.282,0.608-3.328c0.404-1.045,0.976-1.957,1.712-2.736
		c0.735-0.778,1.615-1.392,2.64-1.84s2.154-0.672,3.392-0.672c1.579,0,2.955,0.357,4.128,1.072c1.174,0.715,2.059,1.68,2.656,2.896
		l-2.111,0.672c-0.47-0.853-1.126-1.52-1.969-2c-0.843-0.479-1.775-0.72-2.8-0.72c-0.854,0-1.647,0.171-2.384,0.512
		c-0.736,0.342-1.376,0.806-1.92,1.393s-0.972,1.285-1.28,2.096c-0.31,0.812-0.464,1.696-0.464,2.656
		c0,0.938,0.16,1.824,0.479,2.656c0.32,0.831,0.758,1.552,1.312,2.159c0.555,0.608,1.2,1.088,1.936,1.44
		c0.736,0.352,1.521,0.528,2.353,0.528c0.533,0,1.061-0.075,1.584-0.225c0.522-0.148,1.008-0.356,1.456-0.624
		c0.448-0.267,0.832-0.57,1.151-0.912c0.32-0.341,0.545-0.704,0.673-1.088l2.144,0.641c-0.235,0.597-0.576,1.146-1.024,1.647
		c-0.447,0.502-0.976,0.939-1.584,1.312c-0.607,0.373-1.279,0.661-2.016,0.863c-0.736,0.203-1.499,0.305-2.288,0.305
		c-1.216,0-2.336-0.229-3.359-0.688c-1.024-0.458-1.91-1.088-2.656-1.888c-0.747-0.8-1.328-1.723-1.744-2.769
		C729.748,841.831,729.54,840.711,729.54,839.517z"/>
	<path fill="#424242" d="M755.3,848.221c-1.216,0-2.331-0.229-3.344-0.688c-1.014-0.458-1.894-1.088-2.64-1.888
		c-0.747-0.8-1.328-1.723-1.744-2.769c-0.416-1.045-0.624-2.165-0.624-3.359c0-1.173,0.208-2.277,0.624-3.312
		c0.416-1.034,0.992-1.94,1.728-2.72c0.736-0.778,1.616-1.397,2.641-1.856c1.023-0.458,2.133-0.688,3.328-0.688
		c1.216,0,2.33,0.229,3.344,0.688c1.013,0.459,1.883,1.083,2.607,1.872c0.726,0.79,1.291,1.696,1.696,2.721
		c0.405,1.023,0.608,2.111,0.608,3.264c0,0.171,0,0.342,0,0.512c0,0.171-0.011,0.288-0.032,0.353H749.22
		c0.064,0.896,0.272,1.723,0.624,2.479c0.353,0.758,0.806,1.414,1.36,1.969s1.189,0.986,1.904,1.296
		c0.714,0.31,1.477,0.464,2.288,0.464c0.532,0,1.066-0.075,1.6-0.225c0.533-0.148,1.024-0.352,1.472-0.607
		c0.448-0.256,0.854-0.57,1.217-0.944c0.362-0.373,0.64-0.784,0.832-1.231l1.888,0.512c-0.256,0.619-0.619,1.179-1.088,1.68
		c-0.47,0.502-1.014,0.939-1.632,1.312c-0.619,0.373-1.302,0.661-2.049,0.863C756.89,848.119,756.11,848.221,755.3,848.221z
		 M761.444,838.685c-0.064-0.896-0.272-1.712-0.624-2.448c-0.353-0.736-0.8-1.37-1.344-1.904c-0.544-0.532-1.174-0.948-1.889-1.248
		c-0.715-0.298-1.478-0.447-2.288-0.447s-1.578,0.149-2.304,0.447c-0.726,0.3-1.36,0.716-1.904,1.248
		c-0.544,0.534-0.981,1.174-1.312,1.92c-0.331,0.747-0.528,1.558-0.592,2.433H761.444z"/>
	<path fill="#424242" d="M772.419,848.221c-1.301,0-2.57-0.214-3.808-0.641c-1.237-0.426-2.304-1.045-3.2-1.855l0.992-1.473
		c0.938,0.769,1.894,1.345,2.864,1.729s2.011,0.576,3.12,0.576c1.344,0,2.416-0.272,3.216-0.816s1.2-1.316,1.2-2.32
		c0-0.469-0.107-0.858-0.32-1.168c-0.214-0.309-0.528-0.58-0.944-0.815c-0.416-0.234-0.938-0.442-1.567-0.624
		c-0.63-0.181-1.36-0.368-2.192-0.561c-0.96-0.234-1.792-0.469-2.496-0.703c-0.704-0.235-1.285-0.501-1.744-0.801
		c-0.459-0.298-0.8-0.666-1.023-1.104c-0.225-0.438-0.336-0.986-0.336-1.648c0-0.832,0.165-1.567,0.496-2.208
		c0.33-0.64,0.778-1.168,1.344-1.584c0.564-0.416,1.227-0.73,1.983-0.943c0.758-0.213,1.562-0.32,2.416-0.32
		c1.28,0,2.443,0.208,3.488,0.624s1.888,0.966,2.528,1.647l-1.056,1.28c-0.619-0.64-1.371-1.12-2.257-1.439
		c-0.885-0.32-1.808-0.48-2.768-0.48c-0.576,0-1.109,0.06-1.6,0.176c-0.491,0.118-0.924,0.305-1.297,0.561s-0.667,0.581-0.88,0.976
		c-0.213,0.396-0.319,0.859-0.319,1.393c0,0.447,0.074,0.811,0.224,1.088s0.395,0.518,0.736,0.72
		c0.341,0.203,0.772,0.384,1.296,0.544c0.522,0.16,1.157,0.325,1.903,0.496c1.067,0.256,2.006,0.512,2.816,0.768
		c0.811,0.257,1.488,0.556,2.032,0.896c0.544,0.342,0.954,0.758,1.231,1.248c0.277,0.491,0.416,1.088,0.416,1.792
		c0,1.536-0.587,2.752-1.76,3.647C775.981,847.772,774.403,848.221,772.419,848.221z"/>
	<path fill="#424242" d="M789.571,848.221c-1.216,0-2.325-0.229-3.328-0.688c-1.003-0.458-1.872-1.082-2.607-1.872
		c-0.736-0.789-1.308-1.706-1.712-2.752c-0.406-1.045-0.608-2.144-0.608-3.296c0-1.173,0.208-2.282,0.624-3.328
		c0.416-1.045,0.992-1.962,1.728-2.752c0.736-0.789,1.605-1.418,2.608-1.888c1.003-0.469,2.101-0.704,3.296-0.704
		c1.194,0,2.299,0.235,3.312,0.704c1.013,0.47,1.888,1.099,2.624,1.888c0.735,0.79,1.312,1.707,1.728,2.752
		c0.416,1.046,0.624,2.155,0.624,3.328c0,1.152-0.203,2.251-0.608,3.296c-0.405,1.046-0.976,1.963-1.712,2.752
		c-0.735,0.79-1.61,1.414-2.624,1.872C791.902,847.991,790.787,848.221,789.571,848.221z M783.523,839.645
		c0,0.938,0.16,1.808,0.479,2.607c0.32,0.801,0.753,1.505,1.297,2.112c0.544,0.608,1.184,1.083,1.92,1.424
		c0.735,0.342,1.52,0.513,2.352,0.513s1.616-0.177,2.353-0.528c0.735-0.353,1.381-0.832,1.936-1.44
		c0.555-0.607,0.992-1.316,1.312-2.128c0.32-0.811,0.48-1.685,0.48-2.624c0-0.917-0.16-1.786-0.48-2.607
		c-0.319-0.821-0.757-1.536-1.312-2.145c-0.555-0.607-1.2-1.088-1.936-1.439c-0.736-0.353-1.521-0.528-2.353-0.528
		s-1.611,0.176-2.336,0.528c-0.726,0.352-1.365,0.837-1.92,1.456s-0.992,1.339-1.312,2.159
		C783.684,837.826,783.523,838.706,783.523,839.645z"/>
	<path fill="#424242" d="M813.858,848.221c-0.789,0-1.52-0.134-2.191-0.4c-0.673-0.267-1.26-0.635-1.761-1.104
		c-0.501-0.47-0.891-1.019-1.168-1.648c-0.277-0.629-0.416-1.307-0.416-2.032c0-0.725,0.171-1.396,0.513-2.016
		c0.341-0.618,0.82-1.152,1.439-1.601c0.619-0.447,1.354-0.794,2.208-1.039s1.792-0.368,2.816-0.368
		c0.853,0,1.717,0.074,2.592,0.224c0.874,0.149,1.653,0.363,2.336,0.64v-1.504c0-1.472-0.416-2.64-1.248-3.504
		s-1.984-1.296-3.456-1.296c-0.854,0-1.728,0.171-2.624,0.512c-0.896,0.342-1.803,0.832-2.72,1.473l-0.769-1.44
		c2.155-1.45,4.245-2.176,6.272-2.176c2.091,0,3.733,0.587,4.928,1.76c1.194,1.174,1.792,2.795,1.792,4.864v7.52
		c0,0.598,0.267,0.896,0.8,0.896v1.92c-0.362,0.064-0.64,0.096-0.832,0.096c-0.555,0-0.986-0.139-1.296-0.416
		c-0.31-0.276-0.475-0.661-0.496-1.151l-0.063-1.312c-0.768,1.003-1.733,1.771-2.896,2.304
		C816.456,847.953,815.202,848.221,813.858,848.221z M814.37,846.557c1.131,0,2.171-0.213,3.12-0.641
		c0.949-0.426,1.669-0.991,2.16-1.695c0.192-0.192,0.336-0.4,0.433-0.624c0.096-0.225,0.144-0.433,0.144-0.624v-2.721
		c-0.726-0.276-1.478-0.49-2.256-0.64c-0.779-0.148-1.573-0.224-2.384-0.224c-1.536,0-2.784,0.319-3.744,0.96
		c-0.96,0.64-1.44,1.482-1.44,2.527c0,0.513,0.102,0.992,0.305,1.44c0.202,0.448,0.479,0.838,0.832,1.168
		c0.352,0.331,0.772,0.592,1.264,0.784C813.293,846.46,813.815,846.557,814.37,846.557z M815.906,828.061l-1.439-0.544l1.888-2.977
		h2.304L815.906,828.061z"/>
	<path fill="#424242" d="M833.794,848.124c-1.152,0-2.203-0.239-3.152-0.72c-0.949-0.479-1.771-1.114-2.464-1.904
		c-0.693-0.789-1.231-1.695-1.615-2.72c-0.385-1.023-0.576-2.08-0.576-3.168c0-1.152,0.187-2.256,0.56-3.312
		c0.373-1.057,0.901-1.979,1.584-2.769c0.683-0.789,1.499-1.418,2.448-1.888c0.949-0.469,2-0.704,3.152-0.704
		c1.429,0,2.666,0.357,3.712,1.072c1.045,0.715,1.94,1.615,2.688,2.704v-3.488h1.952v16.736c0,1.151-0.219,2.17-0.656,3.056
		c-0.438,0.885-1.023,1.626-1.76,2.224s-1.6,1.045-2.592,1.345c-0.992,0.298-2.043,0.447-3.152,0.447
		c-1.92,0-3.467-0.341-4.64-1.023c-1.174-0.684-2.123-1.601-2.849-2.752l1.345-1.057c0.661,1.066,1.536,1.851,2.624,2.353
		c1.088,0.501,2.261,0.752,3.52,0.752c0.811,0,1.579-0.112,2.304-0.336c0.726-0.225,1.36-0.556,1.904-0.992
		c0.544-0.438,0.977-0.992,1.296-1.664c0.32-0.672,0.48-1.456,0.48-2.352v-3.297c-0.641,1.067-1.516,1.91-2.624,2.528
		C836.173,847.815,835.01,848.124,833.794,848.124z M834.402,846.301c0.64,0,1.269-0.117,1.888-0.353
		c0.618-0.234,1.179-0.549,1.68-0.944c0.501-0.394,0.923-0.837,1.265-1.327c0.341-0.491,0.564-0.992,0.672-1.504v-5.152
		c-0.235-0.597-0.556-1.152-0.96-1.664c-0.405-0.512-0.864-0.949-1.376-1.312c-0.513-0.362-1.062-0.65-1.648-0.863
		s-1.179-0.32-1.775-0.32c-0.939,0-1.776,0.197-2.513,0.592c-0.735,0.396-1.359,0.912-1.872,1.552
		c-0.512,0.641-0.901,1.366-1.168,2.177s-0.399,1.632-0.399,2.464c0,0.896,0.16,1.749,0.479,2.56
		c0.32,0.812,0.763,1.521,1.328,2.128c0.565,0.608,1.221,1.088,1.968,1.44C832.717,846.124,833.527,846.301,834.402,846.301z"/>
	<path fill="#424242" d="M846.883,827.74v-3.2h2.176v3.2H846.883z M846.883,847.9v-16.672h2.176V847.9H846.883z"/>
	<path fill="#424242" d="M853.954,824.54h2.176v19.584c0,0.619,0.171,1.104,0.512,1.456c0.342,0.353,0.821,0.528,1.44,0.528
		c0.234,0,0.512-0.032,0.832-0.096c0.32-0.064,0.618-0.149,0.896-0.256l0.385,1.76c-0.406,0.171-0.901,0.31-1.488,0.416
		s-1.094,0.16-1.521,0.16c-1.003,0-1.792-0.283-2.367-0.849c-0.576-0.564-0.864-1.359-0.864-2.384V824.54z"/>
</g>
<g opacity="0.7">
	<g>
		<path fill="#424242" d="M869.595,857.654l-194.23-4.154l194.23-4.156c2.295-0.049,4.195,1.771,4.244,4.066
			s-1.771,4.195-4.066,4.244C869.719,857.656,869.648,857.656,869.595,857.654z"/>
		<g>
			<polygon fill="#424242" points="862.012,843.502 866.259,853.5 862.012,863.498 885.713,853.5 			"/>
		</g>
	</g>
</g>
</svg>
