<?xml version="1.0" encoding="utf-8"?>
<!-- Generator: Adobe Illustrator 16.0.0, SVG Export Plug-In . SVG Version: 6.00 Build 0)  -->
<!DOCTYPE svg PUBLIC "-//W3C//DTD SVG 1.1//EN" "http://www.w3.org/Graphics/SVG/1.1/DTD/svg11.dtd">
<svg version="1.1" id="Ebene_1" xmlns="http://www.w3.org/2000/svg" xmlns:xlink="http://www.w3.org/1999/xlink" x="0px" y="0px"
	 width="601.423px" height="143.413px" viewBox="372.077 888.646 601.423 143.413"
	 enable-background="new 372.077 888.646 601.423 143.413" xml:space="preserve">
<g opacity="0.8">
	<path fill="#32A0D2" d="M489.501,957.354c0-12.701-11.25-21.143-25-18.76s-36.25,2.383-50,0s-25,6.059-25,18.76
		s11.25,21.101,25,18.666s36.25-2.435,50,0S489.501,970.055,489.501,957.354z"/>
</g>
<g>
	<path fill="#424242" d="M488.439,906.156h-8.097v20.736h-2.239v-20.736h-8.097v-1.984h18.433V906.156z"/>
	<path fill="#424242" d="M494.838,927.213c-1.215,0-2.324-0.229-3.328-0.688c-1.002-0.458-1.871-1.083-2.607-1.872
		s-1.307-1.706-1.712-2.752c-0.405-1.045-0.608-2.145-0.608-3.296c0-1.173,0.209-2.282,0.625-3.328
		c0.416-1.045,0.991-1.962,1.728-2.752c0.735-0.789,1.604-1.419,2.608-1.888c1.002-0.469,2.101-0.704,3.295-0.704
		c1.195,0,2.299,0.235,3.312,0.704s1.889,1.099,2.624,1.888c0.735,0.79,1.312,1.707,1.728,2.752
		c0.416,1.046,0.625,2.155,0.625,3.328c0,1.151-0.203,2.251-0.608,3.296c-0.405,1.046-0.976,1.963-1.712,2.752
		s-1.611,1.414-2.624,1.872C497.169,926.983,496.055,927.213,494.838,927.213z M488.791,918.637c0,0.939,0.16,1.808,0.479,2.607
		c0.319,0.801,0.752,1.504,1.296,2.112s1.184,1.083,1.92,1.425c0.736,0.341,1.52,0.512,2.352,0.512s1.617-0.176,2.353-0.528
		s1.381-0.832,1.937-1.44c0.555-0.607,0.992-1.316,1.312-2.127s0.479-1.686,0.479-2.625c0-0.916-0.16-1.786-0.479-2.607
		s-0.757-1.536-1.312-2.145c-0.556-0.607-1.201-1.088-1.937-1.439s-1.521-0.528-2.353-0.528s-1.61,0.177-2.336,0.528
		c-0.725,0.352-1.365,0.838-1.92,1.455c-0.555,0.619-0.992,1.34-1.312,2.16C488.951,916.818,488.791,917.698,488.791,918.637z"/>
	<path fill="#424242" d="M513.781,918.509c0-1.173,0.203-2.282,0.608-3.328c0.405-1.045,0.976-1.957,1.712-2.736
		c0.736-0.778,1.616-1.392,2.641-1.84c1.023-0.448,2.154-0.672,3.392-0.672c1.579,0,2.954,0.357,4.128,1.071
		c1.173,0.716,2.059,1.681,2.656,2.896l-2.112,0.672c-0.47-0.853-1.126-1.52-1.968-2c-0.844-0.479-1.776-0.72-2.801-0.72
		c-0.854,0-1.647,0.171-2.383,0.513c-0.736,0.341-1.377,0.805-1.92,1.391c-0.545,0.588-0.972,1.286-1.281,2.097
		c-0.309,0.812-0.463,1.696-0.463,2.656c0,0.938,0.16,1.823,0.479,2.655s0.757,1.553,1.312,2.16c0.555,0.608,1.201,1.088,1.937,1.44
		s1.521,0.528,2.353,0.528c0.532,0,1.061-0.074,1.584-0.225c0.521-0.148,1.008-0.357,1.455-0.624
		c0.448-0.267,0.832-0.57,1.152-0.911c0.32-0.342,0.544-0.705,0.672-1.089l2.145,0.64c-0.235,0.598-0.576,1.147-1.024,1.648
		c-0.448,0.502-0.976,0.939-1.584,1.312s-1.28,0.661-2.017,0.863c-0.735,0.203-1.498,0.305-2.287,0.305
		c-1.217,0-2.336-0.229-3.36-0.688c-1.024-0.458-1.909-1.088-2.655-1.888c-0.748-0.801-1.328-1.723-1.744-2.768
		S513.781,919.703,513.781,918.509z"/>
	<path fill="#424242" d="M540.822,912.141c-1.473,0.043-2.753,0.447-3.841,1.216s-1.856,1.824-2.304,3.168v10.368h-2.176v-16.672
		h2.048v4c0.618-1.28,1.45-2.283,2.495-3.008s2.166-1.088,3.361-1.088c0.17,0,0.309,0.011,0.416,0.031V912.141z"/>
	<path fill="#424242" d="M550.102,927.213c-1.216,0-2.33-0.229-3.344-0.688c-1.014-0.458-1.894-1.088-2.64-1.888
		c-0.747-0.801-1.328-1.723-1.744-2.768s-0.624-2.166-0.624-3.36c0-1.173,0.208-2.277,0.624-3.312
		c0.416-1.035,0.991-1.941,1.728-2.721c0.736-0.778,1.616-1.396,2.641-1.855c1.023-0.459,2.133-0.688,3.328-0.688
		c1.216,0,2.33,0.229,3.344,0.688c1.013,0.459,1.883,1.082,2.607,1.871c0.726,0.79,1.291,1.696,1.696,2.721
		c0.405,1.023,0.608,2.111,0.608,3.264c0,0.171,0,0.342,0,0.512c0,0.172-0.012,0.288-0.032,0.353h-14.272
		c0.064,0.896,0.272,1.723,0.625,2.479c0.352,0.758,0.805,1.414,1.359,1.969s1.189,0.986,1.904,1.295
		c0.715,0.311,1.477,0.465,2.287,0.465c0.533,0,1.067-0.074,1.601-0.225c0.533-0.148,1.024-0.352,1.472-0.607
		c0.448-0.256,0.854-0.57,1.217-0.944c0.362-0.373,0.64-0.784,0.832-1.231l1.888,0.512c-0.256,0.619-0.619,1.179-1.088,1.68
		c-0.47,0.502-1.014,0.939-1.632,1.312c-0.619,0.373-1.302,0.661-2.049,0.863C551.691,927.111,550.912,927.213,550.102,927.213z
		 M556.246,917.677c-0.064-0.896-0.271-1.712-0.624-2.448s-0.8-1.371-1.345-1.904c-0.543-0.533-1.173-0.949-1.887-1.248
		c-0.716-0.298-1.479-0.447-2.289-0.447s-1.578,0.149-2.304,0.447c-0.726,0.299-1.36,0.715-1.903,1.248
		c-0.545,0.533-0.982,1.174-1.312,1.92c-0.331,0.748-0.528,1.559-0.592,2.433H556.246z"/>
	<path fill="#424242" d="M565.877,927.213c-0.789,0-1.52-0.134-2.191-0.4s-1.259-0.635-1.76-1.104
		c-0.502-0.469-0.891-1.02-1.168-1.648s-0.416-1.307-0.416-2.031c0-0.726,0.17-1.398,0.512-2.017s0.821-1.152,1.439-1.601
		c0.619-0.447,1.355-0.794,2.209-1.039c0.853-0.246,1.791-0.369,2.816-0.369c0.852,0,1.717,0.076,2.592,0.225
		c0.874,0.149,1.652,0.363,2.336,0.641v-1.504c0-1.473-0.416-2.641-1.248-3.505s-1.984-1.296-3.457-1.296
		c-0.854,0-1.728,0.171-2.623,0.512c-0.896,0.342-1.803,0.832-2.721,1.473l-0.768-1.44c2.154-1.45,4.245-2.176,6.271-2.176
		c2.091,0,3.733,0.587,4.929,1.76c1.194,1.174,1.792,2.796,1.792,4.864v7.52c0,0.598,0.266,0.896,0.8,0.896v1.92
		c-0.362,0.064-0.64,0.096-0.832,0.096c-0.556,0-0.987-0.139-1.296-0.416c-0.31-0.277-0.475-0.66-0.496-1.152l-0.064-1.312
		c-0.768,1.003-1.732,1.771-2.896,2.304S567.222,927.213,565.877,927.213z M566.39,925.549c1.13,0,2.171-0.213,3.12-0.641
		c0.949-0.426,1.669-0.992,2.16-1.695c0.191-0.192,0.336-0.4,0.432-0.625c0.096-0.223,0.145-0.432,0.145-0.623v-2.721
		c-0.727-0.276-1.479-0.49-2.256-0.64c-0.779-0.149-1.574-0.224-2.385-0.224c-1.535,0-2.783,0.32-3.744,0.96
		c-0.959,0.64-1.439,1.483-1.439,2.528c0,0.512,0.101,0.991,0.304,1.439c0.202,0.447,0.479,0.838,0.832,1.168
		c0.353,0.331,0.772,0.592,1.265,0.784C565.312,925.453,565.834,925.549,566.39,925.549z"/>
	<path fill="#424242" d="M586.998,926.093c-0.129,0.063-0.315,0.149-0.561,0.256s-0.527,0.214-0.848,0.319
		c-0.32,0.107-0.684,0.203-1.088,0.289c-0.406,0.085-0.832,0.128-1.28,0.128c-0.47,0-0.917-0.064-1.345-0.192
		c-0.426-0.128-0.799-0.325-1.119-0.592s-0.576-0.603-0.768-1.008c-0.192-0.405-0.289-0.875-0.289-1.408v-11.936h-2.304v-1.729
		h2.304v-5.633h2.176v5.633h3.841v1.729h-3.841v11.327c0.043,0.619,0.262,1.072,0.656,1.36s0.849,0.432,1.36,0.432
		c0.618,0,1.163-0.101,1.632-0.304c0.469-0.202,0.768-0.347,0.896-0.433L586.998,926.093z"/>
	<path fill="#424242" d="M596.502,927.213c-1.217,0-2.331-0.229-3.344-0.688c-1.014-0.458-1.895-1.088-2.641-1.888
		c-0.746-0.801-1.328-1.723-1.744-2.768s-0.623-2.166-0.623-3.36c0-1.173,0.207-2.277,0.623-3.312
		c0.416-1.035,0.992-1.941,1.729-2.721c0.736-0.778,1.615-1.396,2.641-1.855c1.023-0.459,2.133-0.688,3.327-0.688
		c1.216,0,2.331,0.229,3.345,0.688c1.012,0.459,1.882,1.082,2.607,1.871c0.725,0.79,1.291,1.696,1.695,2.721
		c0.406,1.023,0.609,2.111,0.609,3.264c0,0.171,0,0.342,0,0.512c0,0.172-0.012,0.288-0.033,0.353h-14.271
		c0.064,0.896,0.271,1.723,0.624,2.479c0.353,0.758,0.806,1.414,1.36,1.969s1.188,0.986,1.904,1.295
		c0.714,0.311,1.477,0.465,2.287,0.465c0.533,0,1.066-0.074,1.6-0.225c0.533-0.148,1.024-0.352,1.473-0.607
		c0.447-0.256,0.854-0.57,1.216-0.944c0.362-0.373,0.64-0.784,0.832-1.231l1.888,0.512c-0.256,0.619-0.619,1.179-1.088,1.68
		c-0.469,0.502-1.014,0.939-1.632,1.312s-1.302,0.661-2.048,0.863C598.091,927.111,597.312,927.213,596.502,927.213z
		 M602.646,917.677c-0.064-0.896-0.272-1.712-0.625-2.448c-0.352-0.736-0.8-1.371-1.344-1.904s-1.174-0.949-1.888-1.248
		c-0.716-0.298-1.478-0.447-2.288-0.447s-1.579,0.149-2.305,0.447c-0.725,0.299-1.359,0.715-1.903,1.248s-0.981,1.174-1.312,1.92
		c-0.332,0.748-0.529,1.559-0.593,2.433H602.646z"/>
	<path fill="#424242" d="M620.917,927.213c-1.728,0-3.04-0.555-3.936-1.664s-1.345-2.752-1.345-4.928v-10.496h4.289v9.567
		c0,2.581,0.928,3.872,2.783,3.872c0.832,0,1.637-0.25,2.416-0.752c0.779-0.501,1.413-1.264,1.904-2.288v-10.399h4.288v11.84
		c0,0.447,0.079,0.768,0.239,0.96s0.422,0.299,0.785,0.319v3.648c-0.428,0.085-0.785,0.139-1.072,0.16
		c-0.288,0.021-0.55,0.032-0.784,0.032c-0.769,0-1.392-0.177-1.872-0.528s-0.764-0.837-0.848-1.456l-0.096-1.345
		c-0.748,1.152-1.707,2.017-2.881,2.593S622.325,927.213,620.917,927.213z"/>
	<path fill="#424242" d="M651.157,926.893h-4.288v-9.408c0-1.344-0.234-2.324-0.704-2.943s-1.12-0.928-1.952-0.928
		c-0.427,0-0.863,0.085-1.312,0.256c-0.447,0.17-0.869,0.41-1.264,0.719c-0.395,0.311-0.752,0.678-1.072,1.104
		c-0.319,0.427-0.555,0.896-0.703,1.408v9.792h-4.288v-16.768h3.872v3.104c0.618-1.066,1.514-1.898,2.688-2.496
		c1.174-0.597,2.496-0.896,3.969-0.896c1.045,0,1.898,0.193,2.56,0.576c0.661,0.385,1.173,0.886,1.536,1.504
		c0.362,0.619,0.613,1.324,0.752,2.113s0.208,1.589,0.208,2.399V926.893z"/>
	<path fill="#424242" d="M654.9,907.789v-4.256h4.289v4.256H654.9z M654.9,926.893v-16.768h4.289v16.768H654.9z"/>
	<path fill="#424242" d="M669.396,927.213c-1.066,0-2.048-0.229-2.943-0.688c-0.896-0.458-1.67-1.083-2.32-1.872
		c-0.651-0.789-1.158-1.712-1.521-2.768c-0.362-1.057-0.544-2.192-0.544-3.408s0.197-2.347,0.592-3.393
		c0.395-1.045,0.944-1.957,1.648-2.735c0.703-0.778,1.535-1.392,2.496-1.84c0.959-0.448,1.994-0.673,3.104-0.673
		c1.28,0,2.41,0.294,3.393,0.881c0.98,0.587,1.781,1.359,2.399,2.32v-2.912h3.744v18.432c0,0.469,0.085,0.795,0.256,0.976
		c0.171,0.182,0.469,0.283,0.896,0.305v3.647c-0.363,0.064-0.758,0.112-1.185,0.145c-0.427,0.031-0.811,0.048-1.151,0.048
		c-0.428,0-0.827-0.075-1.2-0.225c-0.374-0.149-0.699-0.352-0.976-0.607c-0.277-0.256-0.502-0.561-0.672-0.912
		c-0.172-0.352-0.257-0.741-0.257-1.168v-6.815c-0.619,1.088-1.419,1.903-2.4,2.447C671.775,926.94,670.654,927.213,669.396,927.213
		z M670.996,923.564c0.918,0,1.717-0.256,2.4-0.768c0.683-0.512,1.27-1.174,1.76-1.984v-3.968c-0.128-0.47-0.336-0.907-0.624-1.312
		c-0.288-0.406-0.624-0.764-1.008-1.072c-0.384-0.31-0.8-0.549-1.248-0.721c-0.448-0.17-0.896-0.256-1.344-0.256
		c-0.661,0-1.265,0.139-1.808,0.416c-0.545,0.277-1.014,0.656-1.408,1.137c-0.396,0.479-0.705,1.029-0.928,1.647
		c-0.225,0.619-0.336,1.259-0.336,1.92c0,0.704,0.111,1.354,0.336,1.952c0.223,0.598,0.532,1.12,0.928,1.568
		c0.395,0.447,0.869,0.8,1.424,1.056S670.313,923.564,670.996,923.564z"/>
	<path fill="#424242" d="M688.468,927.213c-1.729,0-3.04-0.555-3.937-1.664c-0.896-1.109-1.344-2.752-1.344-4.928v-10.496h4.288
		v9.567c0,2.581,0.928,3.872,2.784,3.872c0.832,0,1.637-0.25,2.416-0.752c0.778-0.501,1.413-1.264,1.903-2.288v-10.399h4.288v11.84
		c0,0.447,0.08,0.768,0.24,0.96s0.421,0.299,0.784,0.319v3.648c-0.427,0.085-0.784,0.139-1.072,0.16
		c-0.288,0.021-0.55,0.032-0.784,0.032c-0.768,0-1.392-0.177-1.872-0.528c-0.479-0.352-0.763-0.837-0.848-1.456l-0.096-1.345
		c-0.747,1.152-1.707,2.017-2.88,2.593C691.166,926.925,689.876,927.213,688.468,927.213z"/>
	<path fill="#424242" d="M710.899,927.213c-1.344,0-2.56-0.229-3.647-0.688c-1.088-0.458-2.016-1.083-2.784-1.872
		c-0.768-0.789-1.36-1.706-1.776-2.752c-0.416-1.045-0.623-2.145-0.623-3.296c0-1.194,0.202-2.319,0.607-3.376
		s0.992-1.984,1.76-2.784c0.769-0.8,1.701-1.435,2.801-1.903c1.098-0.469,2.33-0.705,3.695-0.705s2.587,0.236,3.664,0.705
		s1.995,1.099,2.752,1.888c0.757,0.79,1.333,1.707,1.729,2.752c0.395,1.046,0.592,2.134,0.592,3.264c0,0.278-0.006,0.544-0.016,0.8
		c-0.012,0.256-0.038,0.47-0.08,0.641h-12.96c0.063,0.661,0.224,1.248,0.479,1.76s0.587,0.949,0.992,1.312
		c0.405,0.362,0.864,0.64,1.376,0.832c0.512,0.191,1.045,0.287,1.6,0.287c0.854,0,1.659-0.207,2.416-0.623s1.274-0.965,1.553-1.648
		l3.68,1.023c-0.619,1.28-1.605,2.332-2.96,3.152C714.393,926.803,712.777,927.213,710.899,927.213z M715.252,917.101
		c-0.107-1.259-0.571-2.267-1.392-3.024c-0.822-0.757-1.819-1.136-2.992-1.136c-0.576,0-1.115,0.102-1.616,0.304
		c-0.502,0.203-0.944,0.486-1.328,0.849s-0.699,0.8-0.944,1.312s-0.389,1.078-0.432,1.696H715.252z"/>
	<path fill="#424242" d="M740.02,927.213c-1.323,0-2.475-0.294-3.456-0.881c-0.981-0.586-1.749-1.381-2.304-2.383v9.76h-4.288
		v-23.584h3.744v2.879c0.618-0.98,1.418-1.754,2.399-2.319s2.112-0.849,3.393-0.849c1.13,0,2.176,0.23,3.136,0.688
		c0.96,0.459,1.786,1.077,2.479,1.856s1.237,1.695,1.633,2.752c0.395,1.056,0.592,2.171,0.592,3.344
		c0,1.216-0.182,2.357-0.544,3.424c-0.363,1.067-0.87,1.995-1.521,2.784c-0.65,0.79-1.424,1.408-2.319,1.856
		C742.067,926.988,741.086,927.213,740.02,927.213z M738.579,923.564c0.641,0,1.232-0.139,1.776-0.416s1.008-0.65,1.392-1.119
		c0.385-0.47,0.683-1.014,0.896-1.633c0.213-0.618,0.32-1.258,0.32-1.92c0-0.704-0.118-1.359-0.353-1.968s-0.56-1.136-0.976-1.584
		s-0.907-0.8-1.473-1.056s-1.179-0.385-1.84-0.385c-0.405,0-0.821,0.07-1.248,0.208c-0.427,0.14-0.821,0.337-1.184,0.593
		c-0.363,0.256-0.688,0.555-0.976,0.896c-0.288,0.341-0.508,0.715-0.656,1.12v3.936c0.384,0.961,0.971,1.756,1.76,2.385
		S737.662,923.564,738.579,923.564z"/>
	<path fill="#424242" d="M760.243,913.836c-1.301,0.021-2.464,0.272-3.487,0.752c-1.024,0.48-1.76,1.201-2.208,2.16v10.145h-4.288
		v-16.768h3.936v3.584c0.299-0.576,0.65-1.094,1.057-1.553c0.404-0.458,0.842-0.858,1.312-1.199
		c0.469-0.342,0.944-0.604,1.424-0.785c0.48-0.18,0.944-0.271,1.393-0.271c0.234,0,0.41,0,0.527,0s0.229,0.012,0.336,0.032V913.836z
		"/>
	<path fill="#424242" d="M769.556,927.213c-1.366,0-2.593-0.235-3.681-0.704c-1.088-0.47-2.011-1.104-2.768-1.904
		c-0.758-0.8-1.339-1.723-1.744-2.769c-0.405-1.045-0.607-2.144-0.607-3.295c0-1.174,0.202-2.283,0.607-3.328
		s0.986-1.969,1.744-2.769c0.757-0.8,1.68-1.435,2.768-1.903s2.314-0.705,3.681-0.705c1.364,0,2.586,0.236,3.664,0.705
		c1.076,0.469,1.994,1.104,2.752,1.903c0.757,0.8,1.338,1.724,1.744,2.769c0.404,1.045,0.607,2.154,0.607,3.328
		c0,1.151-0.203,2.25-0.607,3.295c-0.406,1.046-0.982,1.969-1.729,2.769c-0.747,0.8-1.664,1.435-2.752,1.904
		C772.147,926.978,770.92,927.213,769.556,927.213z M765.171,918.541c0,0.746,0.112,1.424,0.337,2.031
		c0.224,0.608,0.532,1.137,0.928,1.584c0.395,0.448,0.858,0.795,1.392,1.041c0.533,0.244,1.109,0.367,1.729,0.367
		c0.618,0,1.194-0.123,1.728-0.367c0.533-0.246,0.997-0.593,1.393-1.041c0.395-0.447,0.703-0.98,0.928-1.6
		c0.224-0.619,0.336-1.301,0.336-2.048c0-0.726-0.112-1.397-0.336-2.017c-0.225-0.618-0.533-1.151-0.928-1.6
		c-0.396-0.448-0.859-0.795-1.393-1.04s-1.109-0.368-1.728-0.368c-0.619,0-1.195,0.129-1.729,0.385s-0.997,0.607-1.392,1.056
		c-0.396,0.448-0.704,0.981-0.928,1.6C765.283,917.144,765.171,917.815,765.171,918.541z"/>
	<path fill="#424242" d="M788.147,927.213c-1.152,0-2.22-0.225-3.2-0.672c-0.981-0.448-1.824-1.066-2.528-1.856
		c-0.704-0.789-1.254-1.712-1.648-2.769c-0.395-1.056-0.592-2.191-0.592-3.407s0.187-2.347,0.561-3.392
		c0.373-1.045,0.891-1.963,1.552-2.752s1.45-1.408,2.368-1.856c0.917-0.448,1.92-0.673,3.008-0.673c1.237,0,2.352,0.3,3.344,0.896
		c0.992,0.598,1.766,1.376,2.32,2.336v-9.535h4.288v18.432c0,0.447,0.074,0.768,0.224,0.96s0.405,0.299,0.769,0.319v3.648
		c-0.747,0.149-1.355,0.224-1.824,0.224c-0.769,0-1.397-0.191-1.888-0.575c-0.491-0.385-0.769-0.885-0.832-1.504l-0.097-1.057
		c-0.619,1.066-1.456,1.872-2.512,2.416S789.299,927.213,788.147,927.213z M789.267,923.564c0.405,0,0.821-0.068,1.248-0.208
		c0.427-0.138,0.821-0.336,1.185-0.592c0.362-0.256,0.688-0.555,0.976-0.896c0.288-0.342,0.507-0.715,0.656-1.121v-4
		c-0.171-0.469-0.411-0.9-0.72-1.295c-0.31-0.395-0.662-0.736-1.057-1.024s-0.811-0.517-1.248-0.688
		c-0.438-0.17-0.869-0.256-1.296-0.256c-0.64,0-1.231,0.139-1.775,0.416s-1.009,0.656-1.393,1.137
		c-0.384,0.479-0.683,1.029-0.896,1.647c-0.214,0.619-0.32,1.259-0.32,1.92c0,0.704,0.117,1.354,0.352,1.952
		c0.235,0.598,0.555,1.12,0.961,1.568c0.404,0.447,0.89,0.8,1.455,1.056S788.584,923.564,789.267,923.564z"/>
	<path fill="#424242" d="M806.963,927.213c-1.729,0-3.04-0.555-3.937-1.664c-0.896-1.109-1.344-2.752-1.344-4.928v-10.496h4.288
		v9.567c0,2.581,0.928,3.872,2.784,3.872c0.832,0,1.637-0.25,2.416-0.752c0.778-0.501,1.413-1.264,1.903-2.288v-10.399h4.288v11.84
		c0,0.447,0.08,0.768,0.24,0.96s0.421,0.299,0.784,0.319v3.648c-0.427,0.085-0.784,0.139-1.072,0.16
		c-0.288,0.021-0.55,0.032-0.784,0.032c-0.768,0-1.392-0.177-1.872-0.528c-0.479-0.352-0.763-0.837-0.848-1.456l-0.096-1.345
		c-0.747,1.152-1.707,2.017-2.88,2.593C809.661,926.925,808.371,927.213,806.963,927.213z"/>
	<path fill="#424242" d="M820.563,918.509c0-1.173,0.202-2.282,0.607-3.328c0.405-1.045,0.992-1.962,1.76-2.752
		c0.769-0.789,1.696-1.419,2.784-1.888s2.314-0.705,3.68-0.705c1.835,0,3.397,0.396,4.688,1.185c1.29,0.79,2.256,1.824,2.896,3.104
		l-4.191,1.279c-0.363-0.618-0.843-1.093-1.44-1.424c-0.598-0.33-1.259-0.496-1.983-0.496c-0.619,0-1.195,0.123-1.729,0.368
		s-0.997,0.587-1.392,1.024c-0.396,0.438-0.704,0.965-0.928,1.584c-0.225,0.619-0.337,1.301-0.337,2.048s0.117,1.429,0.353,2.048
		c0.234,0.619,0.549,1.152,0.944,1.6c0.395,0.448,0.858,0.795,1.392,1.041c0.533,0.244,1.099,0.367,1.696,0.367
		c0.768,0,1.477-0.191,2.128-0.576c0.65-0.384,1.104-0.853,1.359-1.408l4.192,1.28c-0.576,1.28-1.525,2.325-2.848,3.136
		c-1.323,0.812-2.912,1.217-4.769,1.217c-1.365,0-2.592-0.235-3.68-0.704c-1.088-0.47-2.016-1.104-2.784-1.904
		c-0.768-0.8-1.36-1.728-1.776-2.784C820.771,920.765,820.563,919.66,820.563,918.509z"/>
	<path fill="#424242" d="M849.714,926.029c-0.576,0.256-1.28,0.512-2.112,0.768s-1.707,0.384-2.624,0.384
		c-0.598,0-1.157-0.075-1.68-0.224c-0.523-0.149-0.981-0.39-1.376-0.721c-0.395-0.33-0.71-0.757-0.944-1.279
		c-0.234-0.523-0.352-1.157-0.352-1.904v-9.633h-2.208v-3.295h2.208v-5.44h4.288v5.44h3.52v3.295h-3.52v8.193
		c0,0.597,0.154,1.018,0.464,1.264c0.309,0.245,0.688,0.367,1.136,0.367s0.885-0.074,1.312-0.224
		c0.426-0.149,0.768-0.276,1.023-0.384L849.714,926.029z"/>
	<path fill="#424242" d="M858.29,927.213c-1.408,0-2.784-0.225-4.128-0.672c-1.344-0.448-2.496-1.088-3.456-1.92l1.6-2.688
		c1.024,0.726,2.021,1.274,2.992,1.647c0.971,0.374,1.937,0.561,2.896,0.561c0.853,0,1.524-0.16,2.016-0.48
		c0.49-0.319,0.736-0.778,0.736-1.375c0-0.598-0.288-1.035-0.864-1.312s-1.515-0.598-2.816-0.96
		c-1.088-0.299-2.016-0.587-2.783-0.864c-0.769-0.277-1.388-0.592-1.856-0.943c-0.47-0.353-0.811-0.758-1.024-1.217
		c-0.213-0.458-0.319-1.008-0.319-1.647c0-0.853,0.165-1.621,0.496-2.304c0.33-0.684,0.794-1.265,1.392-1.744
		c0.597-0.48,1.296-0.849,2.096-1.104c0.801-0.256,1.669-0.384,2.608-0.384c1.259,0,2.437,0.182,3.536,0.544
		c1.099,0.362,2.106,0.949,3.023,1.76l-1.728,2.593c-0.854-0.641-1.68-1.109-2.48-1.408c-0.8-0.299-1.595-0.448-2.384-0.448
		c-0.726,0-1.333,0.149-1.824,0.448c-0.49,0.299-0.735,0.779-0.735,1.439c0,0.299,0.059,0.544,0.176,0.736
		c0.117,0.191,0.304,0.363,0.56,0.512c0.257,0.149,0.593,0.293,1.009,0.432c0.416,0.14,0.933,0.283,1.552,0.433
		c1.151,0.299,2.139,0.597,2.96,0.896s1.493,0.641,2.016,1.024s0.907,0.827,1.152,1.328s0.368,1.104,0.368,1.808
		c0,1.643-0.608,2.939-1.824,3.889S860.381,927.213,858.29,927.213z"/>
	<path fill="#424242" d="M868.657,929.484l0.544-2.688h-0.736v-3.041h2.112v3.041l-0.8,2.688H868.657z"/>
	<path fill="#424242" d="M380.186,946.732v-3.2h2.176v3.2H380.186z M380.186,966.893v-16.672h2.176v16.672H380.186z"/>
	<path fill="#424242" d="M404.92,966.028c-0.576,0.256-1.279,0.513-2.111,0.769s-1.707,0.384-2.624,0.384
		c-0.598,0-1.157-0.075-1.681-0.224c-0.522-0.149-0.98-0.39-1.375-0.721c-0.396-0.33-0.71-0.757-0.944-1.279
		c-0.235-0.523-0.353-1.157-0.353-1.904v-9.632h-2.207v-3.296h2.207v-5.44h4.289v5.44h3.52v3.296h-3.52v8.191
		c0,0.598,0.154,1.02,0.463,1.265c0.31,0.245,0.688,0.367,1.137,0.367c0.447,0,0.885-0.074,1.312-0.224s0.769-0.277,1.024-0.384
		L404.92,966.028z"/>
	<path fill="#424242" d="M411.736,967.213c-0.812,0-1.568-0.134-2.272-0.4s-1.312-0.64-1.823-1.12
		c-0.513-0.479-0.912-1.04-1.201-1.68c-0.287-0.64-0.432-1.344-0.432-2.112c0-0.789,0.176-1.52,0.528-2.191
		c0.353-0.673,0.843-1.243,1.472-1.713c0.629-0.469,1.381-0.837,2.256-1.104s1.835-0.4,2.881-0.4c0.746,0,1.477,0.064,2.191,0.192
		s1.35,0.31,1.904,0.544v-0.96c0-1.109-0.315-1.963-0.944-2.56c-0.63-0.598-1.563-0.896-2.8-0.896c-0.896,0-1.771,0.16-2.624,0.48
		c-0.854,0.319-1.728,0.789-2.624,1.407l-1.312-2.72c2.154-1.429,4.48-2.144,6.977-2.144c2.41,0,4.282,0.592,5.615,1.775
		c1.334,1.185,2,2.896,2,5.137v5.216c0,0.447,0.08,0.768,0.24,0.96c0.16,0.191,0.422,0.299,0.785,0.319v3.648
		c-0.727,0.149-1.355,0.224-1.889,0.224c-0.811,0-1.436-0.181-1.872-0.544c-0.438-0.362-0.71-0.842-0.815-1.439l-0.097-0.929
		c-0.747,0.982-1.653,1.729-2.72,2.24C414.093,966.957,412.952,967.213,411.736,967.213z M412.952,964.076
		c0.726,0,1.413-0.128,2.063-0.384s1.157-0.597,1.521-1.023c0.469-0.363,0.704-0.769,0.704-1.217v-1.92
		c-0.512-0.191-1.067-0.346-1.664-0.464c-0.598-0.117-1.174-0.176-1.729-0.176c-1.109,0-2.016,0.251-2.72,0.752
		c-0.704,0.502-1.056,1.136-1.056,1.904c0,0.726,0.277,1.328,0.832,1.808C411.459,963.837,412.141,964.076,412.952,964.076z"/>
	<path fill="#424242" d="M424.472,958.509c0-1.173,0.202-2.282,0.608-3.328c0.404-1.045,0.992-1.963,1.76-2.752
		s1.695-1.419,2.783-1.888c1.089-0.47,2.314-0.704,3.681-0.704c1.835,0,3.397,0.395,4.688,1.184c1.29,0.79,2.256,1.824,2.896,3.104
		l-4.192,1.279c-0.363-0.618-0.843-1.093-1.439-1.424c-0.598-0.33-1.26-0.496-1.984-0.496c-0.619,0-1.195,0.123-1.729,0.368
		s-0.996,0.587-1.391,1.024c-0.396,0.438-0.705,0.965-0.929,1.584c-0.224,0.618-0.336,1.301-0.336,2.048s0.117,1.43,0.353,2.048
		c0.234,0.619,0.549,1.152,0.943,1.6c0.395,0.448,0.858,0.795,1.393,1.04c0.533,0.246,1.098,0.368,1.695,0.368
		c0.768,0,1.477-0.191,2.129-0.576c0.65-0.384,1.104-0.853,1.359-1.407l4.191,1.279c-0.576,1.28-1.525,2.326-2.848,3.136
		c-1.322,0.812-2.912,1.217-4.768,1.217c-1.365,0-2.592-0.235-3.68-0.704s-2.017-1.104-2.785-1.904
		c-0.768-0.8-1.359-1.728-1.775-2.784C424.68,960.765,424.472,959.66,424.472,958.509z"/>
	<path fill="#424242" d="M455.031,966.893l-4.863-7.264l-2.305,2.271v4.992h-4.287v-23.36h4.287v14.177l6.721-7.553h4.576
		l-6.24,7.104l6.688,9.632H455.031z"/>
	<path fill="#424242" d="M461.399,943.532h4.288v17.984c0,0.619,0.148,1.099,0.447,1.44c0.299,0.341,0.726,0.512,1.281,0.512
		c0.256,0,0.538-0.043,0.848-0.128c0.309-0.085,0.603-0.192,0.88-0.32l0.576,3.264c-0.576,0.278-1.248,0.491-2.017,0.641
		c-0.768,0.148-1.461,0.224-2.08,0.224c-1.344,0-2.384-0.356-3.119-1.072c-0.736-0.714-1.104-1.732-1.104-3.056V943.532z"/>
	<path fill="#424242" d="M479.352,967.213c-1.345,0-2.561-0.229-3.648-0.688c-1.088-0.458-2.016-1.082-2.784-1.872
		c-0.769-0.789-1.36-1.706-1.776-2.752c-0.416-1.045-0.623-2.144-0.623-3.296c0-1.194,0.202-2.32,0.607-3.376
		s0.992-1.984,1.76-2.784c0.769-0.8,1.701-1.435,2.801-1.903c1.098-0.47,2.33-0.704,3.695-0.704s2.587,0.234,3.664,0.704
		c1.077,0.469,1.994,1.099,2.752,1.888s1.333,1.707,1.729,2.752c0.395,1.046,0.592,2.134,0.592,3.264c0,0.277-0.006,0.544-0.016,0.8
		c-0.012,0.257-0.038,0.47-0.08,0.641h-12.961c0.064,0.661,0.225,1.248,0.48,1.76s0.586,0.949,0.992,1.312
		c0.404,0.362,0.863,0.64,1.376,0.832c0.512,0.191,1.045,0.287,1.601,0.287c0.853,0,1.658-0.208,2.416-0.624
		c0.756-0.416,1.273-0.965,1.551-1.647l3.681,1.023c-0.619,1.28-1.605,2.331-2.96,3.152
		C482.844,966.802,481.229,967.213,479.352,967.213z M483.703,957.101c-0.107-1.259-0.571-2.267-1.393-3.024
		c-0.82-0.757-1.818-1.136-2.992-1.136c-0.575,0-1.114,0.102-1.615,0.304c-0.502,0.203-0.943,0.486-1.328,0.849
		c-0.384,0.363-0.699,0.8-0.943,1.312c-0.246,0.513-0.391,1.078-0.433,1.696H483.703z"/>
	<path fill="#424242" d="M503.062,967.213c-0.789,0-1.52-0.134-2.191-0.4s-1.26-0.635-1.76-1.104
		c-0.502-0.47-0.892-1.019-1.168-1.648c-0.278-0.629-0.416-1.307-0.416-2.032c0-0.725,0.17-1.396,0.512-2.016
		c0.341-0.618,0.82-1.152,1.439-1.601c0.619-0.447,1.354-0.794,2.208-1.039c0.853-0.245,1.792-0.368,2.816-0.368
		c0.853,0,1.717,0.074,2.592,0.224c0.874,0.149,1.653,0.363,2.336,0.64v-1.504c0-1.472-0.416-2.64-1.248-3.504
		s-1.983-1.296-3.456-1.296c-0.854,0-1.729,0.171-2.624,0.512c-0.896,0.342-1.803,0.832-2.72,1.473l-0.768-1.44
		c2.154-1.45,4.244-2.176,6.271-2.176c2.09,0,3.732,0.587,4.928,1.76c1.195,1.174,1.793,2.795,1.793,4.864v7.52
		c0,0.598,0.266,0.896,0.799,0.896v1.92c-0.362,0.064-0.64,0.096-0.832,0.096c-0.555,0-0.986-0.139-1.295-0.416
		c-0.311-0.276-0.476-0.661-0.496-1.151l-0.064-1.312c-0.768,1.003-1.733,1.771-2.896,2.304
		C505.66,966.945,504.406,967.213,503.062,967.213z M503.574,965.549c1.131,0,2.171-0.213,3.121-0.641
		c0.948-0.426,1.668-0.991,2.159-1.695c0.192-0.192,0.337-0.4,0.433-0.624c0.096-0.225,0.144-0.433,0.144-0.624v-2.721
		c-0.726-0.276-1.478-0.49-2.256-0.64c-0.779-0.148-1.573-0.224-2.384-0.224c-1.536,0-2.784,0.319-3.744,0.96
		c-0.96,0.64-1.439,1.482-1.439,2.527c0,0.513,0.1,0.992,0.303,1.44s0.48,0.838,0.832,1.168c0.353,0.331,0.773,0.592,1.265,0.784
		C502.497,965.452,503.02,965.549,503.574,965.549z"/>
	<path fill="#424242" d="M528.599,966.893l-6.784-16.672h2.24l5.729,14.656l5.76-14.656h2.111l-6.783,16.672H528.599z"/>
	<path fill="#424242" d="M544.438,967.213c-0.789,0-1.521-0.134-2.192-0.4s-1.258-0.635-1.76-1.104
		c-0.501-0.47-0.891-1.019-1.168-1.648c-0.277-0.629-0.416-1.307-0.416-2.032c0-0.725,0.171-1.396,0.512-2.016
		c0.342-0.618,0.822-1.152,1.44-1.601c0.618-0.447,1.354-0.794,2.208-1.039s1.792-0.368,2.816-0.368
		c0.853,0,1.717,0.074,2.592,0.224s1.652,0.363,2.336,0.64v-1.504c0-1.472-0.416-2.64-1.248-3.504s-1.984-1.296-3.456-1.296
		c-0.854,0-1.728,0.171-2.624,0.512c-0.896,0.342-1.803,0.832-2.72,1.473l-0.769-1.44c2.154-1.45,4.246-2.176,6.272-2.176
		c2.091,0,3.733,0.587,4.929,1.76c1.193,1.174,1.791,2.795,1.791,4.864v7.52c0,0.598,0.267,0.896,0.801,0.896v1.92
		c-0.363,0.064-0.641,0.096-0.832,0.096c-0.556,0-0.987-0.139-1.297-0.416c-0.309-0.276-0.475-0.661-0.496-1.151l-0.063-1.312
		c-0.769,1.003-1.733,1.771-2.896,2.304C547.035,966.945,545.783,967.213,544.438,967.213z M544.951,965.549
		c1.13,0,2.17-0.213,3.119-0.641c0.949-0.426,1.67-0.991,2.16-1.695c0.192-0.192,0.336-0.4,0.432-0.624
		c0.097-0.225,0.145-0.433,0.145-0.624v-2.721c-0.726-0.276-1.478-0.49-2.256-0.64c-0.779-0.148-1.574-0.224-2.385-0.224
		c-1.535,0-2.783,0.319-3.743,0.96c-0.96,0.64-1.44,1.482-1.44,2.527c0,0.513,0.102,0.992,0.305,1.44
		c0.202,0.448,0.479,0.838,0.832,1.168c0.352,0.331,0.772,0.592,1.264,0.784C543.873,965.452,544.396,965.549,544.951,965.549z"/>
	<path fill="#424242" d="M566.007,952.141c-1.472,0.043-2.753,0.448-3.841,1.216c-1.088,0.769-1.855,1.824-2.303,3.168v10.368
		h-2.177v-16.672h2.048v4c0.619-1.28,1.451-2.282,2.496-3.008s2.165-1.088,3.36-1.088c0.171,0,0.309,0.011,0.416,0.031V952.141z"/>
	<path fill="#424242" d="M568.918,946.732v-3.2h2.177v3.2H568.918z M568.918,966.893v-16.672h2.177v16.672H568.918z"/>
	<path fill="#424242" d="M583.094,967.213c-1.216,0-2.33-0.229-3.344-0.688c-1.014-0.458-1.894-1.088-2.64-1.888
		c-0.747-0.8-1.328-1.723-1.744-2.769c-0.416-1.045-0.624-2.165-0.624-3.359c0-1.173,0.208-2.277,0.624-3.312
		c0.416-1.034,0.991-1.94,1.728-2.72c0.736-0.778,1.616-1.397,2.641-1.856c1.023-0.458,2.133-0.688,3.328-0.688
		c1.216,0,2.33,0.229,3.344,0.688c1.013,0.459,1.883,1.083,2.607,1.872c0.726,0.79,1.291,1.696,1.696,2.721
		c0.405,1.023,0.608,2.111,0.608,3.264c0,0.171,0,0.342,0,0.512c0,0.171-0.012,0.288-0.032,0.353h-14.272
		c0.064,0.896,0.272,1.723,0.625,2.479c0.352,0.758,0.805,1.414,1.359,1.969s1.189,0.986,1.904,1.296s1.477,0.464,2.287,0.464
		c0.533,0,1.067-0.075,1.601-0.225c0.533-0.148,1.024-0.352,1.472-0.607c0.448-0.256,0.854-0.57,1.217-0.944
		c0.362-0.373,0.64-0.784,0.832-1.231l1.888,0.512c-0.256,0.619-0.619,1.179-1.088,1.68c-0.47,0.502-1.014,0.939-1.632,1.312
		c-0.619,0.373-1.302,0.661-2.049,0.863C584.684,967.111,583.904,967.213,583.094,967.213z M589.238,957.677
		c-0.064-0.896-0.271-1.712-0.624-2.448s-0.8-1.37-1.345-1.904c-0.543-0.532-1.173-0.948-1.887-1.248
		c-0.716-0.298-1.479-0.447-2.289-0.447s-1.578,0.149-2.304,0.447c-0.726,0.3-1.36,0.716-1.903,1.248
		c-0.545,0.534-0.982,1.174-1.312,1.92c-0.331,0.747-0.528,1.558-0.592,2.433H589.238z"/>
	<path fill="#424242" d="M602.55,966.093c-0.128,0.063-0.315,0.149-0.56,0.256c-0.246,0.107-0.528,0.214-0.848,0.32
		c-0.32,0.106-0.684,0.202-1.089,0.288c-0.405,0.085-0.832,0.128-1.28,0.128c-0.469,0-0.917-0.064-1.344-0.192
		s-0.8-0.325-1.119-0.592c-0.32-0.267-0.576-0.603-0.769-1.008s-0.288-0.875-0.288-1.408v-11.937h-2.305v-1.728h2.305v-5.632h2.176
		v5.632h3.84v1.728h-3.84v11.328c0.043,0.619,0.262,1.072,0.656,1.36s0.848,0.432,1.359,0.432c0.619,0,1.163-0.101,1.633-0.304
		c0.469-0.202,0.768-0.347,0.896-0.432L602.55,966.093z"/>
	<path fill="#424242" d="M606.229,972.013c0.171,0.021,0.336,0.037,0.496,0.048s0.314,0.016,0.464,0.016
		c0.385,0,0.688-0.053,0.912-0.159c0.225-0.107,0.442-0.342,0.656-0.704c0.213-0.363,0.453-0.886,0.72-1.568s0.646-1.6,1.136-2.752
		l-7.264-16.672h2.24l6.176,14.656l5.729-14.656h2.08l-8.641,21.504c-0.234,0.618-0.624,1.157-1.168,1.616
		c-0.544,0.458-1.285,0.688-2.225,0.688c-0.213,0-0.416-0.005-0.607-0.016s-0.427-0.038-0.704-0.08V972.013z"/>
	<path fill="#424242" d="M637.014,967.213c-1.217,0-2.326-0.229-3.328-0.688c-1.004-0.458-1.872-1.082-2.608-1.872
		c-0.735-0.789-1.307-1.706-1.712-2.752c-0.405-1.045-0.607-2.144-0.607-3.296c0-1.173,0.207-2.282,0.623-3.328
		c0.416-1.045,0.992-1.962,1.729-2.752c0.736-0.789,1.605-1.418,2.607-1.888c1.003-0.469,2.102-0.704,3.297-0.704
		c1.194,0,2.299,0.235,3.312,0.704c1.013,0.47,1.888,1.099,2.624,1.888c0.736,0.79,1.312,1.707,1.729,2.752
		c0.416,1.046,0.623,2.155,0.623,3.328c0,1.152-0.203,2.251-0.607,3.296c-0.406,1.046-0.977,1.963-1.712,2.752
		c-0.736,0.79-1.611,1.414-2.624,1.872C639.344,966.983,638.229,967.213,637.014,967.213z M630.965,958.637
		c0,0.938,0.16,1.808,0.48,2.607c0.32,0.801,0.752,1.505,1.296,2.112c0.544,0.608,1.185,1.083,1.92,1.424
		c0.736,0.342,1.521,0.513,2.353,0.513s1.615-0.177,2.352-0.528c0.736-0.353,1.381-0.832,1.936-1.44
		c0.555-0.607,0.992-1.316,1.312-2.128c0.32-0.811,0.48-1.685,0.48-2.624c0-0.917-0.16-1.786-0.48-2.607s-0.758-1.536-1.312-2.145
		c-0.555-0.607-1.199-1.088-1.936-1.439c-0.736-0.353-1.52-0.528-2.352-0.528s-1.611,0.176-2.336,0.528
		c-0.727,0.352-1.365,0.837-1.92,1.456c-0.556,0.619-0.992,1.339-1.312,2.159C631.125,956.818,630.965,957.698,630.965,958.637z"/>
	<path fill="#424242" d="M649.493,966.893v-14.944h-2.304v-1.728h2.304v-0.448c0-2.048,0.437-3.653,1.312-4.815
		c0.875-1.163,2.069-1.744,3.584-1.744c0.661,0,1.301,0.096,1.92,0.288c0.619,0.191,1.152,0.447,1.601,0.768l-0.673,1.568
		c-0.299-0.234-0.666-0.416-1.104-0.544s-0.88-0.192-1.328-0.192c-1.023,0-1.803,0.395-2.336,1.184c-0.533,0.79-0.8,1.932-0.8,3.425
		v0.512h4.608v1.728h-4.608v14.944H649.493z"/>
	<path fill="#424242" d="M674.74,966.093c-0.128,0.063-0.314,0.149-0.561,0.256c-0.244,0.107-0.527,0.214-0.848,0.32
		s-0.683,0.202-1.088,0.288c-0.405,0.085-0.832,0.128-1.279,0.128c-0.471,0-0.918-0.064-1.345-0.192s-0.8-0.325-1.12-0.592
		s-0.576-0.603-0.768-1.008s-0.288-0.875-0.288-1.408v-11.937h-2.304v-1.728h2.304v-5.632h2.176v5.632h3.841v1.728h-3.841v11.328
		c0.042,0.619,0.261,1.072,0.656,1.36c0.395,0.288,0.849,0.432,1.36,0.432c0.618,0,1.162-0.101,1.632-0.304
		c0.469-0.202,0.768-0.347,0.896-0.432L674.74,966.093z"/>
	<path fill="#424242" d="M684.148,967.213c-1.216,0-2.325-0.229-3.328-0.688c-1.003-0.458-1.872-1.082-2.607-1.872
		c-0.736-0.789-1.308-1.706-1.712-2.752c-0.406-1.045-0.608-2.144-0.608-3.296c0-1.173,0.208-2.282,0.624-3.328
		c0.416-1.045,0.992-1.962,1.728-2.752c0.736-0.789,1.605-1.418,2.608-1.888c1.003-0.469,2.101-0.704,3.296-0.704
		c1.194,0,2.299,0.235,3.312,0.704c1.013,0.47,1.888,1.099,2.624,1.888c0.735,0.79,1.312,1.707,1.728,2.752
		c0.416,1.046,0.624,2.155,0.624,3.328c0,1.152-0.203,2.251-0.608,3.296c-0.405,1.046-0.976,1.963-1.712,2.752
		c-0.735,0.79-1.61,1.414-2.624,1.872C686.479,966.983,685.364,967.213,684.148,967.213z M678.101,958.637
		c0,0.938,0.16,1.808,0.479,2.607c0.32,0.801,0.753,1.505,1.297,2.112c0.544,0.608,1.184,1.083,1.92,1.424
		c0.735,0.342,1.52,0.513,2.352,0.513s1.616-0.177,2.353-0.528c0.735-0.353,1.381-0.832,1.936-1.44
		c0.555-0.607,0.992-1.316,1.312-2.128c0.32-0.811,0.48-1.685,0.48-2.624c0-0.917-0.16-1.786-0.48-2.607
		c-0.319-0.821-0.757-1.536-1.312-2.145c-0.555-0.607-1.2-1.088-1.936-1.439c-0.736-0.353-1.521-0.528-2.353-0.528
		s-1.611,0.176-2.336,0.528c-0.726,0.352-1.365,0.837-1.92,1.456s-0.992,1.339-1.312,2.159
		C678.261,956.818,678.101,957.698,678.101,958.637z"/>
	<path fill="#424242" d="M703.188,967.213c-1.216,0-2.325-0.229-3.328-0.688c-1.003-0.458-1.872-1.082-2.607-1.872
		c-0.736-0.789-1.308-1.706-1.712-2.752c-0.406-1.045-0.608-2.144-0.608-3.296c0-1.173,0.208-2.282,0.624-3.328
		c0.416-1.045,0.992-1.962,1.728-2.752c0.736-0.789,1.605-1.418,2.608-1.888c1.003-0.469,2.101-0.704,3.296-0.704
		c1.194,0,2.299,0.235,3.312,0.704c1.013,0.47,1.888,1.099,2.624,1.888c0.735,0.79,1.312,1.707,1.728,2.752
		c0.416,1.046,0.624,2.155,0.624,3.328c0,1.152-0.203,2.251-0.608,3.296c-0.405,1.046-0.976,1.963-1.712,2.752
		c-0.735,0.79-1.61,1.414-2.624,1.872C705.52,966.983,704.404,967.213,703.188,967.213z M697.141,958.637
		c0,0.938,0.16,1.808,0.479,2.607c0.32,0.801,0.753,1.505,1.297,2.112c0.544,0.608,1.184,1.083,1.92,1.424
		c0.735,0.342,1.52,0.513,2.352,0.513s1.616-0.177,2.353-0.528c0.735-0.353,1.381-0.832,1.936-1.44
		c0.555-0.607,0.992-1.316,1.312-2.128c0.32-0.811,0.48-1.685,0.48-2.624c0-0.917-0.16-1.786-0.48-2.607
		c-0.319-0.821-0.757-1.536-1.312-2.145c-0.555-0.607-1.2-1.088-1.936-1.439c-0.736-0.353-1.521-0.528-2.353-0.528
		s-1.611,0.176-2.336,0.528c-0.726,0.352-1.365,0.837-1.92,1.456s-0.992,1.339-1.312,2.159
		C697.301,956.818,697.141,957.698,697.141,958.637z"/>
	<path fill="#424242" d="M715.22,943.532h2.176v19.584c0,0.619,0.171,1.104,0.512,1.456c0.342,0.353,0.821,0.528,1.44,0.528
		c0.234,0,0.512-0.032,0.832-0.096c0.32-0.064,0.618-0.149,0.896-0.256l0.385,1.76c-0.406,0.171-0.901,0.31-1.488,0.416
		s-1.094,0.16-1.521,0.16c-1.003,0-1.792-0.283-2.367-0.849c-0.576-0.564-0.864-1.359-0.864-2.384V943.532z"/>
	<path fill="#424242" d="M729.362,967.213c-1.301,0-2.57-0.214-3.808-0.641c-1.237-0.426-2.304-1.045-3.2-1.855l0.992-1.473
		c0.938,0.769,1.894,1.345,2.864,1.729s2.011,0.576,3.12,0.576c1.344,0,2.416-0.272,3.216-0.816s1.2-1.316,1.2-2.32
		c0-0.469-0.107-0.858-0.32-1.168c-0.214-0.309-0.528-0.58-0.944-0.815c-0.416-0.234-0.938-0.442-1.567-0.624
		c-0.63-0.181-1.36-0.368-2.192-0.561c-0.96-0.234-1.792-0.469-2.496-0.703c-0.704-0.235-1.285-0.501-1.744-0.801
		c-0.459-0.298-0.8-0.666-1.023-1.104c-0.225-0.438-0.336-0.986-0.336-1.648c0-0.832,0.165-1.567,0.496-2.208
		c0.33-0.64,0.778-1.168,1.344-1.584c0.564-0.416,1.227-0.73,1.983-0.943c0.758-0.213,1.562-0.32,2.416-0.32
		c1.28,0,2.443,0.208,3.488,0.624s1.888,0.966,2.528,1.647l-1.056,1.28c-0.619-0.64-1.371-1.12-2.257-1.439
		c-0.885-0.32-1.808-0.48-2.768-0.48c-0.576,0-1.109,0.06-1.6,0.176c-0.491,0.118-0.924,0.305-1.297,0.561s-0.667,0.581-0.88,0.976
		c-0.213,0.396-0.319,0.859-0.319,1.393c0,0.447,0.074,0.811,0.224,1.088s0.395,0.518,0.736,0.72
		c0.341,0.203,0.772,0.384,1.296,0.544c0.522,0.16,1.157,0.325,1.903,0.496c1.067,0.256,2.006,0.512,2.816,0.768
		c0.811,0.257,1.488,0.556,2.032,0.896c0.544,0.342,0.954,0.758,1.231,1.248c0.277,0.491,0.416,1.088,0.416,1.792
		c0,1.536-0.587,2.752-1.76,3.647C732.925,966.765,731.347,967.213,729.362,967.213z"/>
	<path fill="#424242" d="M751.763,967.213c-0.789,0-1.52-0.134-2.191-0.4c-0.673-0.267-1.26-0.635-1.761-1.104
		c-0.501-0.47-0.891-1.019-1.168-1.648c-0.277-0.629-0.416-1.307-0.416-2.032c0-0.725,0.171-1.396,0.513-2.016
		c0.341-0.618,0.82-1.152,1.439-1.601c0.619-0.447,1.354-0.794,2.208-1.039s1.792-0.368,2.816-0.368
		c0.853,0,1.717,0.074,2.592,0.224c0.874,0.149,1.653,0.363,2.336,0.64v-1.504c0-1.472-0.416-2.64-1.248-3.504
		s-1.984-1.296-3.456-1.296c-0.854,0-1.728,0.171-2.624,0.512c-0.896,0.342-1.803,0.832-2.72,1.473l-0.769-1.44
		c2.155-1.45,4.245-2.176,6.272-2.176c2.091,0,3.733,0.587,4.928,1.76c1.194,1.174,1.792,2.795,1.792,4.864v7.52
		c0,0.598,0.267,0.896,0.8,0.896v1.92c-0.362,0.064-0.64,0.096-0.832,0.096c-0.555,0-0.986-0.139-1.296-0.416
		c-0.31-0.276-0.475-0.661-0.496-1.151l-0.063-1.312c-0.768,1.003-1.733,1.771-2.896,2.304
		C754.36,966.945,753.106,967.213,751.763,967.213z M752.274,965.549c1.131,0,2.171-0.213,3.12-0.641
		c0.949-0.426,1.669-0.991,2.16-1.695c0.192-0.192,0.336-0.4,0.433-0.624c0.096-0.225,0.144-0.433,0.144-0.624v-2.721
		c-0.726-0.276-1.478-0.49-2.256-0.64c-0.779-0.148-1.573-0.224-2.384-0.224c-1.536,0-2.784,0.319-3.744,0.96
		c-0.96,0.64-1.44,1.482-1.44,2.527c0,0.513,0.102,0.992,0.305,1.44c0.202,0.448,0.479,0.838,0.832,1.168
		c0.352,0.331,0.772,0.592,1.264,0.784C751.197,965.452,751.72,965.549,752.274,965.549z"/>
	<path fill="#424242" d="M779.026,966.893h-2.176v-9.312c0-1.984-0.294-3.425-0.88-4.32c-0.587-0.896-1.488-1.344-2.704-1.344
		c-0.641,0-1.28,0.117-1.92,0.352c-0.641,0.235-1.232,0.565-1.776,0.992s-1.029,0.934-1.456,1.52
		c-0.427,0.587-0.736,1.222-0.928,1.904v10.208h-2.176v-16.672h1.983v3.775c0.683-1.216,1.659-2.196,2.928-2.943
		c1.27-0.747,2.651-1.12,4.145-1.12c0.917,0,1.696,0.171,2.336,0.512c0.64,0.342,1.152,0.821,1.536,1.44s0.661,1.376,0.832,2.271
		c0.17,0.896,0.256,1.889,0.256,2.977V966.893z"/>
	<path fill="#424242" d="M790.515,967.213c-1.152,0-2.219-0.24-3.2-0.721c-0.981-0.479-1.824-1.114-2.528-1.903
		c-0.703-0.789-1.253-1.701-1.647-2.736c-0.396-1.034-0.592-2.117-0.592-3.248c0-1.173,0.191-2.288,0.576-3.344
		c0.384-1.057,0.911-1.979,1.584-2.769c0.672-0.789,1.472-1.413,2.399-1.872c0.928-0.458,1.946-0.688,3.057-0.688
		c1.407,0,2.655,0.368,3.743,1.104c1.088,0.736,1.941,1.628,2.561,2.673v-10.177h2.176v20.544c0,0.598,0.256,0.896,0.768,0.896v1.92
		c-0.319,0.064-0.575,0.096-0.768,0.096c-0.512,0-0.96-0.165-1.344-0.496c-0.384-0.33-0.576-0.73-0.576-1.199v-1.633
		c-0.661,1.089-1.558,1.952-2.688,2.593C792.903,966.893,791.73,967.213,790.515,967.213z M790.994,965.293
		c0.533,0,1.104-0.106,1.713-0.32c0.607-0.213,1.178-0.507,1.712-0.88c0.532-0.373,0.986-0.811,1.359-1.312
		c0.373-0.501,0.603-1.04,0.688-1.615v-5.152c-0.214-0.576-0.523-1.114-0.928-1.616c-0.406-0.501-0.87-0.944-1.393-1.328
		s-1.083-0.683-1.68-0.896c-0.598-0.213-1.185-0.32-1.76-0.32c-0.896,0-1.707,0.192-2.433,0.576s-1.35,0.891-1.872,1.52
		c-0.522,0.63-0.923,1.35-1.2,2.16c-0.277,0.812-0.416,1.644-0.416,2.496c0,0.896,0.16,1.75,0.48,2.561s0.757,1.52,1.312,2.128
		c0.555,0.607,1.211,1.093,1.969,1.456C789.304,965.111,790.119,965.293,790.994,965.293z"/>
	<path fill="#424242" d="M818.578,967.213c-1.152,0-2.219-0.24-3.2-0.721c-0.981-0.479-1.824-1.114-2.528-1.903
		c-0.703-0.789-1.253-1.701-1.647-2.736c-0.396-1.034-0.592-2.117-0.592-3.248c0-1.173,0.191-2.288,0.576-3.344
		c0.384-1.057,0.911-1.979,1.584-2.769c0.672-0.789,1.472-1.413,2.399-1.872c0.928-0.458,1.946-0.688,3.057-0.688
		c1.407,0,2.655,0.368,3.743,1.104c1.088,0.736,1.941,1.628,2.561,2.673v-10.177h2.176v20.544c0,0.598,0.256,0.896,0.768,0.896v1.92
		c-0.319,0.064-0.575,0.096-0.768,0.096c-0.512,0-0.96-0.165-1.344-0.496c-0.384-0.33-0.576-0.73-0.576-1.199v-1.633
		c-0.661,1.089-1.558,1.952-2.688,2.593C820.967,966.893,819.794,967.213,818.578,967.213z M819.058,965.293
		c0.533,0,1.104-0.106,1.713-0.32c0.607-0.213,1.178-0.507,1.712-0.88c0.532-0.373,0.986-0.811,1.359-1.312
		c0.373-0.501,0.603-1.04,0.688-1.615v-5.152c-0.214-0.576-0.523-1.114-0.928-1.616c-0.406-0.501-0.87-0.944-1.393-1.328
		s-1.083-0.683-1.68-0.896c-0.598-0.213-1.185-0.32-1.76-0.32c-0.896,0-1.707,0.192-2.433,0.576s-1.35,0.891-1.872,1.52
		c-0.522,0.63-0.923,1.35-1.2,2.16c-0.277,0.812-0.416,1.644-0.416,2.496c0,0.896,0.16,1.75,0.48,2.561s0.757,1.52,1.312,2.128
		c0.555,0.607,1.211,1.093,1.969,1.456C817.367,965.111,818.183,965.293,819.058,965.293z"/>
	<path fill="#424242" d="M831.634,946.732v-3.2h2.176v3.2H831.634z M831.634,966.893v-16.672h2.176v16.672H831.634z"/>
	<path fill="#424242" d="M844.146,967.213c-1.301,0-2.57-0.214-3.808-0.641c-1.237-0.426-2.304-1.045-3.2-1.855l0.992-1.473
		c0.938,0.769,1.894,1.345,2.864,1.729s2.011,0.576,3.12,0.576c1.344,0,2.416-0.272,3.216-0.816s1.2-1.316,1.2-2.32
		c0-0.469-0.107-0.858-0.32-1.168c-0.214-0.309-0.528-0.58-0.944-0.815c-0.416-0.234-0.938-0.442-1.567-0.624
		c-0.63-0.181-1.36-0.368-2.192-0.561c-0.96-0.234-1.792-0.469-2.496-0.703c-0.704-0.235-1.285-0.501-1.744-0.801
		c-0.459-0.298-0.8-0.666-1.023-1.104c-0.225-0.438-0.336-0.986-0.336-1.648c0-0.832,0.165-1.567,0.496-2.208
		c0.33-0.64,0.778-1.168,1.344-1.584c0.564-0.416,1.227-0.73,1.983-0.943c0.758-0.213,1.562-0.32,2.416-0.32
		c1.28,0,2.443,0.208,3.488,0.624s1.888,0.966,2.528,1.647l-1.056,1.28c-0.619-0.64-1.371-1.12-2.257-1.439
		c-0.885-0.32-1.808-0.48-2.768-0.48c-0.576,0-1.109,0.06-1.6,0.176c-0.491,0.118-0.924,0.305-1.297,0.561s-0.667,0.581-0.88,0.976
		c-0.213,0.396-0.319,0.859-0.319,1.393c0,0.447,0.074,0.811,0.224,1.088s0.395,0.518,0.736,0.72
		c0.341,0.203,0.772,0.384,1.296,0.544c0.522,0.16,1.157,0.325,1.903,0.496c1.067,0.256,2.006,0.512,2.816,0.768
		c0.811,0.257,1.488,0.556,2.032,0.896c0.544,0.342,0.954,0.758,1.231,1.248c0.277,0.491,0.416,1.088,0.416,1.792
		c0,1.536-0.587,2.752-1.76,3.647C847.708,966.765,846.13,967.213,844.146,967.213z"/>
	<path fill="#424242" d="M853.042,958.509c0-1.173,0.202-2.282,0.608-3.328c0.404-1.045,0.976-1.957,1.712-2.736
		c0.735-0.778,1.615-1.392,2.64-1.84s2.154-0.672,3.392-0.672c1.579,0,2.955,0.357,4.128,1.072c1.174,0.715,2.059,1.68,2.656,2.896
		l-2.111,0.672c-0.47-0.853-1.126-1.52-1.969-2c-0.843-0.479-1.775-0.72-2.8-0.72c-0.854,0-1.647,0.171-2.384,0.512
		c-0.736,0.342-1.376,0.806-1.92,1.393s-0.972,1.285-1.28,2.096c-0.31,0.812-0.464,1.696-0.464,2.656
		c0,0.938,0.16,1.824,0.479,2.656c0.32,0.831,0.758,1.552,1.312,2.159c0.555,0.608,1.2,1.088,1.936,1.44
		c0.736,0.352,1.521,0.528,2.353,0.528c0.533,0,1.061-0.075,1.584-0.225c0.522-0.148,1.008-0.356,1.456-0.624
		c0.448-0.267,0.832-0.57,1.151-0.912c0.32-0.341,0.545-0.704,0.673-1.088l2.144,0.641c-0.235,0.597-0.576,1.146-1.024,1.647
		c-0.447,0.502-0.976,0.939-1.584,1.312c-0.607,0.373-1.279,0.661-2.016,0.863c-0.736,0.203-1.499,0.305-2.288,0.305
		c-1.216,0-2.336-0.229-3.359-0.688c-1.024-0.458-1.91-1.088-2.656-1.888c-0.747-0.8-1.328-1.723-1.744-2.769
		C853.25,960.823,853.042,959.703,853.042,958.509z"/>
	<path fill="#424242" d="M871.762,946.732v-3.2h2.176v3.2H871.762z M871.762,966.893v-16.672h2.176v16.672H871.762z"/>
	<path fill="#424242" d="M887.249,967.213c-1.408,0-2.651-0.357-3.729-1.072s-1.946-1.616-2.607-2.704v10.272h-2.176v-23.488h1.951
		v3.231c0.683-1.045,1.568-1.893,2.656-2.544c1.088-0.65,2.272-0.976,3.552-0.976c1.152,0,2.208,0.24,3.168,0.72
		c0.961,0.48,1.792,1.12,2.496,1.92c0.704,0.801,1.253,1.724,1.648,2.769c0.395,1.045,0.592,2.123,0.592,3.231
		c0,1.174-0.182,2.283-0.544,3.328c-0.363,1.046-0.88,1.963-1.552,2.752c-0.672,0.79-1.472,1.414-2.4,1.872
		C889.377,966.983,888.358,967.213,887.249,967.213z M886.641,965.293c0.896,0,1.712-0.192,2.448-0.576s1.365-0.891,1.888-1.521
		c0.522-0.629,0.923-1.344,1.2-2.144s0.416-1.627,0.416-2.48c0-0.896-0.16-1.749-0.479-2.56c-0.32-0.811-0.758-1.525-1.312-2.145
		c-0.555-0.618-1.211-1.108-1.968-1.472c-0.758-0.362-1.573-0.544-2.448-0.544c-0.555,0-1.136,0.112-1.744,0.336
		c-0.607,0.224-1.173,0.523-1.695,0.896c-0.523,0.373-0.972,0.811-1.345,1.312c-0.373,0.502-0.603,1.029-0.688,1.584v5.12
		c0.256,0.598,0.581,1.152,0.976,1.664s0.843,0.955,1.345,1.328c0.501,0.373,1.039,0.667,1.615,0.88
		C885.425,965.187,886.021,965.293,886.641,965.293z"/>
	<path fill="#424242" d="M898.577,943.532h2.176v19.584c0,0.619,0.171,1.104,0.512,1.456c0.342,0.353,0.821,0.528,1.44,0.528
		c0.234,0,0.512-0.032,0.832-0.096c0.32-0.064,0.618-0.149,0.896-0.256l0.385,1.76c-0.406,0.171-0.901,0.31-1.488,0.416
		s-1.094,0.16-1.521,0.16c-1.003,0-1.792-0.283-2.367-0.849c-0.576-0.564-0.864-1.359-0.864-2.384V943.532z"/>
	<path fill="#424242" d="M907.185,946.732v-3.2h2.176v3.2H907.185z M907.185,966.893v-16.672h2.176v16.672H907.185z"/>
	<path fill="#424242" d="M928.176,966.893H926v-9.312c0-1.984-0.294-3.425-0.88-4.32c-0.587-0.896-1.488-1.344-2.704-1.344
		c-0.641,0-1.28,0.117-1.92,0.352c-0.641,0.235-1.232,0.565-1.776,0.992s-1.029,0.934-1.456,1.52
		c-0.427,0.587-0.736,1.222-0.928,1.904v10.208h-2.176v-16.672h1.983v3.775c0.683-1.216,1.659-2.196,2.928-2.943
		c1.27-0.747,2.651-1.12,4.145-1.12c0.917,0,1.696,0.171,2.336,0.512c0.64,0.342,1.152,0.821,1.536,1.44s0.661,1.376,0.832,2.271
		c0.17,0.896,0.256,1.889,0.256,2.977V966.893z"/>
	<path fill="#424242" d="M940.015,967.213c-1.216,0-2.331-0.229-3.344-0.688c-1.014-0.458-1.894-1.088-2.64-1.888
		c-0.747-0.8-1.328-1.723-1.744-2.769c-0.416-1.045-0.624-2.165-0.624-3.359c0-1.173,0.208-2.277,0.624-3.312
		c0.416-1.034,0.992-1.94,1.728-2.72c0.736-0.778,1.616-1.397,2.641-1.856c1.023-0.458,2.133-0.688,3.328-0.688
		c1.216,0,2.33,0.229,3.344,0.688c1.013,0.459,1.883,1.083,2.607,1.872c0.726,0.79,1.291,1.696,1.696,2.721
		c0.405,1.023,0.608,2.111,0.608,3.264c0,0.171,0,0.342,0,0.512c0,0.171-0.011,0.288-0.032,0.353h-14.272
		c0.064,0.896,0.272,1.723,0.624,2.479c0.353,0.758,0.806,1.414,1.36,1.969s1.189,0.986,1.904,1.296
		c0.714,0.31,1.477,0.464,2.288,0.464c0.532,0,1.066-0.075,1.6-0.225c0.533-0.148,1.024-0.352,1.472-0.607
		c0.448-0.256,0.854-0.57,1.217-0.944c0.362-0.373,0.64-0.784,0.832-1.231l1.888,0.512c-0.256,0.619-0.619,1.179-1.088,1.68
		c-0.47,0.502-1.014,0.939-1.632,1.312c-0.619,0.373-1.302,0.661-2.049,0.863C941.604,967.111,940.825,967.213,940.015,967.213z
		 M946.159,957.677c-0.064-0.896-0.272-1.712-0.624-2.448c-0.353-0.736-0.8-1.37-1.344-1.904c-0.544-0.532-1.174-0.948-1.889-1.248
		c-0.715-0.298-1.478-0.447-2.288-0.447s-1.578,0.149-2.304,0.447c-0.726,0.3-1.36,0.716-1.904,1.248
		c-0.544,0.534-0.981,1.174-1.312,1.92c-0.331,0.747-0.528,1.558-0.592,2.433H946.159z"/>
	<path fill="#424242" d="M957.135,967.213c-1.301,0-2.57-0.214-3.808-0.641c-1.237-0.426-2.304-1.045-3.2-1.855l0.992-1.473
		c0.938,0.769,1.894,1.345,2.864,1.729s2.011,0.576,3.12,0.576c1.344,0,2.416-0.272,3.216-0.816s1.2-1.316,1.2-2.32
		c0-0.469-0.107-0.858-0.32-1.168c-0.214-0.309-0.528-0.58-0.944-0.815c-0.416-0.234-0.938-0.442-1.567-0.624
		c-0.63-0.181-1.36-0.368-2.192-0.561c-0.96-0.234-1.792-0.469-2.496-0.703c-0.704-0.235-1.285-0.501-1.744-0.801
		c-0.459-0.298-0.8-0.666-1.023-1.104c-0.225-0.438-0.336-0.986-0.336-1.648c0-0.832,0.165-1.567,0.496-2.208
		c0.33-0.64,0.778-1.168,1.344-1.584c0.564-0.416,1.227-0.73,1.983-0.943c0.758-0.213,1.562-0.32,2.416-0.32
		c1.28,0,2.443,0.208,3.488,0.624s1.888,0.966,2.528,1.647l-1.056,1.28c-0.619-0.64-1.371-1.12-2.257-1.439
		c-0.885-0.32-1.808-0.48-2.768-0.48c-0.576,0-1.109,0.06-1.6,0.176c-0.491,0.118-0.924,0.305-1.297,0.561s-0.667,0.581-0.88,0.976
		c-0.213,0.396-0.319,0.859-0.319,1.393c0,0.447,0.074,0.811,0.224,1.088s0.395,0.518,0.736,0.72
		c0.341,0.203,0.772,0.384,1.296,0.544c0.522,0.16,1.157,0.325,1.903,0.496c1.067,0.256,2.006,0.512,2.816,0.768
		c0.811,0.257,1.488,0.556,2.032,0.896c0.544,0.342,0.954,0.758,1.231,1.248c0.277,0.491,0.416,1.088,0.416,1.792
		c0,1.536-0.587,2.752-1.76,3.647C960.697,966.765,959.119,967.213,957.135,967.213z"/>
	<path fill="#424242" d="M485.494,1006.093c-0.127,0.063-0.314,0.149-0.56,0.256c-0.245,0.107-0.528,0.214-0.848,0.32
		c-0.32,0.106-0.683,0.202-1.089,0.288c-0.404,0.085-0.832,0.128-1.279,0.128c-0.47,0-0.918-0.064-1.344-0.192
		c-0.428-0.128-0.801-0.325-1.12-0.592c-0.32-0.267-0.576-0.603-0.769-1.008c-0.191-0.405-0.287-0.875-0.287-1.408v-11.937h-2.305
		v-1.728h2.305v-5.632h2.176v5.632h3.84v1.728h-3.84v11.328c0.042,0.619,0.261,1.072,0.656,1.36
		c0.395,0.288,0.848,0.432,1.359,0.432c0.619,0,1.162-0.101,1.633-0.304c0.469-0.202,0.768-0.347,0.896-0.432L485.494,1006.093z"/>
	<path fill="#424242" d="M494.902,1007.213c-1.215,0-2.324-0.229-3.328-0.688c-1.002-0.458-1.871-1.082-2.607-1.872
		c-0.736-0.789-1.307-1.706-1.712-2.752c-0.405-1.045-0.608-2.144-0.608-3.296c0-1.173,0.209-2.282,0.625-3.328
		c0.416-1.045,0.991-1.962,1.728-2.752c0.735-0.789,1.604-1.418,2.608-1.888c1.002-0.469,2.101-0.704,3.295-0.704
		c1.195,0,2.299,0.235,3.312,0.704c1.014,0.47,1.889,1.099,2.624,1.888c0.735,0.79,1.312,1.707,1.728,2.752
		c0.416,1.046,0.625,2.155,0.625,3.328c0,1.152-0.203,2.251-0.608,3.296c-0.405,1.046-0.976,1.963-1.712,2.752
		c-0.736,0.79-1.611,1.414-2.624,1.872C497.233,1006.983,496.119,1007.213,494.902,1007.213z M488.855,998.637
		c0,0.938,0.16,1.808,0.479,2.607c0.319,0.801,0.752,1.505,1.296,2.112c0.544,0.608,1.184,1.083,1.92,1.424
		c0.736,0.342,1.52,0.513,2.352,0.513s1.617-0.177,2.353-0.528c0.735-0.353,1.381-0.832,1.937-1.44
		c0.555-0.607,0.992-1.316,1.312-2.128c0.319-0.811,0.479-1.685,0.479-2.624c0-0.917-0.16-1.786-0.479-2.607
		s-0.757-1.536-1.312-2.145c-0.556-0.607-1.201-1.088-1.937-1.439c-0.735-0.353-1.521-0.528-2.353-0.528s-1.61,0.176-2.336,0.528
		c-0.725,0.352-1.365,0.837-1.92,1.456s-0.992,1.339-1.312,2.159C489.016,996.818,488.855,997.698,488.855,998.637z"/>
	<path fill="#424242" d="M519.189,1007.213c-0.789,0-1.52-0.134-2.191-0.4s-1.259-0.635-1.76-1.104
		c-0.502-0.47-0.891-1.019-1.168-1.648c-0.277-0.629-0.416-1.307-0.416-2.032c0-0.725,0.17-1.396,0.512-2.016
		c0.342-0.618,0.821-1.152,1.439-1.601c0.619-0.447,1.355-0.794,2.209-1.039c0.853-0.245,1.791-0.368,2.816-0.368
		c0.852,0,1.717,0.074,2.592,0.224c0.874,0.149,1.652,0.363,2.336,0.64v-1.504c0-1.472-0.416-2.64-1.248-3.504
		s-1.984-1.296-3.457-1.296c-0.854,0-1.728,0.171-2.623,0.512c-0.896,0.342-1.803,0.832-2.721,1.473l-0.768-1.44
		c2.154-1.45,4.245-2.176,6.271-2.176c2.091,0,3.733,0.587,4.929,1.76c1.194,1.174,1.792,2.795,1.792,4.864v7.52
		c0,0.598,0.266,0.896,0.8,0.896v1.92c-0.362,0.064-0.64,0.096-0.832,0.096c-0.556,0-0.987-0.139-1.296-0.416
		c-0.31-0.276-0.475-0.661-0.496-1.151l-0.064-1.312c-0.768,1.003-1.732,1.771-2.896,2.304
		C521.787,1006.945,520.534,1007.213,519.189,1007.213z M519.702,1005.549c1.13,0,2.171-0.213,3.12-0.641
		c0.949-0.426,1.669-0.991,2.16-1.695c0.191-0.192,0.336-0.4,0.432-0.624c0.096-0.225,0.145-0.433,0.145-0.624v-2.721
		c-0.727-0.276-1.479-0.49-2.256-0.64c-0.779-0.148-1.574-0.224-2.385-0.224c-1.535,0-2.783,0.319-3.744,0.96
		c-0.959,0.64-1.439,1.482-1.439,2.527c0,0.513,0.101,0.992,0.304,1.44c0.202,0.448,0.479,0.838,0.832,1.168
		c0.353,0.331,0.772,0.592,1.265,0.784C518.625,1005.452,519.146,1005.549,519.702,1005.549z"/>
	<path fill="#424242" d="M531.286,998.509c0-1.173,0.202-2.282,0.608-3.328c0.404-1.045,0.976-1.957,1.711-2.736
		c0.736-0.778,1.617-1.392,2.641-1.84s2.154-0.672,3.393-0.672c1.578,0,2.954,0.357,4.127,1.072c1.174,0.715,2.059,1.68,2.656,2.896
		l-2.111,0.672c-0.47-0.853-1.126-1.52-1.969-2c-0.843-0.479-1.775-0.72-2.8-0.72c-0.854,0-1.647,0.171-2.384,0.512
		c-0.736,0.342-1.376,0.806-1.92,1.393c-0.545,0.587-0.971,1.285-1.28,2.096c-0.31,0.812-0.464,1.696-0.464,2.656
		c0,0.938,0.16,1.824,0.48,2.656c0.319,0.831,0.756,1.552,1.312,2.159c0.555,0.608,1.2,1.088,1.937,1.44
		c0.735,0.352,1.52,0.528,2.352,0.528c0.533,0,1.061-0.075,1.584-0.225c0.522-0.148,1.008-0.356,1.456-0.624
		c0.448-0.267,0.832-0.57,1.151-0.912c0.32-0.341,0.545-0.704,0.672-1.088l2.145,0.641c-0.234,0.597-0.576,1.146-1.023,1.647
		c-0.449,0.502-0.977,0.939-1.584,1.312c-0.608,0.373-1.281,0.661-2.017,0.863c-0.735,0.203-1.499,0.305-2.288,0.305
		c-1.216,0-2.336-0.229-3.359-0.688c-1.024-0.458-1.91-1.088-2.656-1.888c-0.747-0.8-1.328-1.723-1.744-2.769
		C531.494,1000.823,531.286,999.703,531.286,998.509z"/>
	<path fill="#424242" d="M564.021,1006.893h-2.176v-9.312c0-1.899-0.325-3.317-0.976-4.257c-0.651-0.938-1.605-1.407-2.864-1.407
		c-0.619,0-1.232,0.123-1.84,0.367c-0.607,0.246-1.18,0.582-1.712,1.009c-0.534,0.427-0.997,0.928-1.392,1.504
		c-0.396,0.576-0.688,1.205-0.881,1.888v10.208h-2.176v-23.36h2.176v10.464c0.661-1.258,1.578-2.25,2.752-2.976
		c1.174-0.725,2.443-1.088,3.809-1.088c0.96,0,1.771,0.176,2.432,0.528c0.661,0.352,1.205,0.843,1.633,1.472
		c0.426,0.63,0.735,1.387,0.928,2.271c0.191,0.886,0.287,1.862,0.287,2.929V1006.893z"/>
	<path fill="#424242" d="M568.662,986.732v-3.2h2.176v3.2H568.662z M568.662,1006.893v-16.672h2.176v16.672H568.662z"/>
	<path fill="#424242" d="M582.838,1007.213c-1.217,0-2.332-0.229-3.345-0.688c-1.013-0.458-1.894-1.088-2.64-1.888
		c-0.747-0.8-1.328-1.723-1.744-2.769c-0.416-1.045-0.624-2.165-0.624-3.359c0-1.173,0.208-2.277,0.624-3.312
		c0.416-1.034,0.992-1.94,1.729-2.72c0.735-0.778,1.615-1.397,2.64-1.856c1.024-0.458,2.133-0.688,3.327-0.688
		c1.217,0,2.331,0.229,3.345,0.688c1.013,0.459,1.882,1.083,2.608,1.872c0.725,0.79,1.29,1.696,1.695,2.721
		c0.405,1.023,0.608,2.111,0.608,3.264c0,0.171,0,0.342,0,0.512c0,0.171-0.011,0.288-0.032,0.353h-14.271
		c0.063,0.896,0.271,1.723,0.623,2.479c0.353,0.758,0.806,1.414,1.36,1.969s1.188,0.986,1.904,1.296
		c0.714,0.31,1.477,0.464,2.288,0.464c0.533,0,1.066-0.075,1.6-0.225c0.533-0.148,1.023-0.352,1.473-0.607
		c0.447-0.256,0.853-0.57,1.215-0.944c0.363-0.373,0.641-0.784,0.832-1.231l1.889,0.512c-0.256,0.619-0.619,1.179-1.088,1.68
		c-0.47,0.502-1.014,0.939-1.633,1.312c-0.618,0.373-1.301,0.661-2.047,0.863C584.426,1007.111,583.648,1007.213,582.838,1007.213z
		 M588.981,997.677c-0.063-0.896-0.272-1.712-0.624-2.448s-0.801-1.37-1.344-1.904c-0.545-0.532-1.174-0.948-1.889-1.248
		c-0.715-0.298-1.477-0.447-2.287-0.447c-0.812,0-1.58,0.149-2.305,0.447c-0.726,0.3-1.359,0.716-1.904,1.248
		c-0.543,0.534-0.98,1.174-1.312,1.92c-0.331,0.747-0.528,1.558-0.593,2.433H588.981z"/>
	<path fill="#424242" d="M598.965,1006.893l-6.783-16.672h2.24l5.728,14.656l5.76-14.656h2.112l-6.784,16.672H598.965z"/>
	<path fill="#424242" d="M617.653,1007.213c-1.216,0-2.331-0.229-3.345-0.688c-1.013-0.458-1.893-1.088-2.639-1.888
		c-0.748-0.8-1.328-1.723-1.744-2.769c-0.416-1.045-0.625-2.165-0.625-3.359c0-1.173,0.209-2.277,0.625-3.312
		c0.416-1.034,0.991-1.94,1.728-2.72c0.735-0.778,1.616-1.397,2.64-1.856c1.024-0.458,2.133-0.688,3.328-0.688
		c1.217,0,2.33,0.229,3.344,0.688c1.014,0.459,1.883,1.083,2.608,1.872c0.726,0.79,1.29,1.696,1.696,2.721
		c0.404,1.023,0.607,2.111,0.607,3.264c0,0.171,0,0.342,0,0.512c0,0.171-0.011,0.288-0.031,0.353h-14.272
		c0.063,0.896,0.272,1.723,0.624,2.479c0.352,0.758,0.805,1.414,1.359,1.969s1.189,0.986,1.904,1.296s1.477,0.464,2.288,0.464
		c0.533,0,1.067-0.075,1.601-0.225c0.533-0.148,1.023-0.352,1.472-0.607s0.853-0.57,1.216-0.944
		c0.363-0.373,0.641-0.784,0.832-1.231l1.889,0.512c-0.256,0.619-0.619,1.179-1.088,1.68c-0.471,0.502-1.014,0.939-1.633,1.312
		s-1.301,0.661-2.048,0.863C619.242,1007.111,618.464,1007.213,617.653,1007.213z M623.797,997.677
		c-0.063-0.896-0.271-1.712-0.623-2.448c-0.353-0.736-0.801-1.37-1.345-1.904c-0.544-0.532-1.173-0.948-1.888-1.248
		c-0.715-0.298-1.478-0.447-2.288-0.447c-0.812,0-1.579,0.149-2.304,0.447c-0.727,0.3-1.36,0.716-1.904,1.248
		c-0.544,0.534-0.981,1.174-1.312,1.92c-0.33,0.747-0.527,1.558-0.592,2.433H623.797z"/>
	<path fill="#424242" d="M641.588,1007.213c-0.789,0-1.52-0.134-2.191-0.4s-1.259-0.635-1.76-1.104
		c-0.502-0.47-0.891-1.019-1.168-1.648c-0.277-0.629-0.416-1.307-0.416-2.032c0-0.725,0.17-1.396,0.512-2.016
		c0.342-0.618,0.821-1.152,1.439-1.601c0.619-0.447,1.355-0.794,2.209-1.039c0.853-0.245,1.791-0.368,2.816-0.368
		c0.852,0,1.717,0.074,2.592,0.224c0.874,0.149,1.652,0.363,2.336,0.64v-1.504c0-1.472-0.416-2.64-1.248-3.504
		s-1.984-1.296-3.457-1.296c-0.854,0-1.728,0.171-2.623,0.512c-0.896,0.342-1.803,0.832-2.721,1.473l-0.768-1.44
		c2.154-1.45,4.245-2.176,6.271-2.176c2.091,0,3.733,0.587,4.929,1.76c1.194,1.174,1.792,2.795,1.792,4.864v7.52
		c0,0.598,0.266,0.896,0.8,0.896v1.92c-0.362,0.064-0.64,0.096-0.832,0.096c-0.556,0-0.987-0.139-1.296-0.416
		c-0.31-0.276-0.475-0.661-0.496-1.151l-0.064-1.312c-0.768,1.003-1.732,1.771-2.896,2.304
		C644.186,1006.945,642.933,1007.213,641.588,1007.213z M642.101,1005.549c1.13,0,2.171-0.213,3.12-0.641
		c0.949-0.426,1.669-0.991,2.16-1.695c0.191-0.192,0.336-0.4,0.432-0.624c0.096-0.225,0.145-0.433,0.145-0.624v-2.721
		c-0.727-0.276-1.479-0.49-2.256-0.64c-0.779-0.148-1.574-0.224-2.385-0.224c-1.535,0-2.783,0.319-3.744,0.96
		c-0.959,0.64-1.439,1.482-1.439,2.527c0,0.513,0.101,0.992,0.304,1.44c0.202,0.448,0.479,0.838,0.832,1.168
		c0.353,0.331,0.772,0.592,1.265,0.784C641.023,1005.452,641.545,1005.549,642.101,1005.549z"/>
	<path fill="#424242" d="M668.853,1006.893h-2.176v-9.312c0-1.984-0.294-3.425-0.88-4.32c-0.588-0.896-1.488-1.344-2.705-1.344
		c-0.639,0-1.279,0.117-1.92,0.352c-0.639,0.235-1.231,0.565-1.775,0.992s-1.029,0.934-1.456,1.52
		c-0.427,0.587-0.735,1.222-0.928,1.904v10.208h-2.177v-16.672h1.984v3.775c0.683-1.216,1.658-2.196,2.928-2.943
		s2.65-1.12,4.145-1.12c0.917,0,1.695,0.171,2.336,0.512c0.641,0.342,1.152,0.821,1.536,1.44s0.661,1.376,0.832,2.271
		c0.171,0.896,0.256,1.889,0.256,2.977V1006.893z"/>
	<path fill="#424242" d="M685.844,1007.213c-0.789,0-1.52-0.134-2.191-0.4c-0.673-0.267-1.26-0.635-1.761-1.104
		c-0.501-0.47-0.891-1.019-1.168-1.648c-0.277-0.629-0.416-1.307-0.416-2.032c0-0.725,0.171-1.396,0.513-2.016
		c0.341-0.618,0.82-1.152,1.439-1.601c0.619-0.447,1.354-0.794,2.208-1.039s1.792-0.368,2.816-0.368
		c0.853,0,1.717,0.074,2.592,0.224c0.874,0.149,1.653,0.363,2.336,0.64v-1.504c0-1.472-0.416-2.64-1.248-3.504
		s-1.984-1.296-3.456-1.296c-0.854,0-1.728,0.171-2.624,0.512c-0.896,0.342-1.803,0.832-2.72,1.473l-0.769-1.44
		c2.155-1.45,4.245-2.176,6.272-2.176c2.091,0,3.733,0.587,4.928,1.76c1.194,1.174,1.792,2.795,1.792,4.864v7.52
		c0,0.598,0.267,0.896,0.8,0.896v1.92c-0.362,0.064-0.64,0.096-0.832,0.096c-0.555,0-0.986-0.139-1.296-0.416
		c-0.31-0.276-0.475-0.661-0.496-1.151l-0.063-1.312c-0.768,1.003-1.733,1.771-2.896,2.304
		C688.441,1006.945,687.188,1007.213,685.844,1007.213z M686.355,1005.549c1.131,0,2.171-0.213,3.12-0.641
		c0.949-0.426,1.669-0.991,2.16-1.695c0.192-0.192,0.336-0.4,0.433-0.624c0.096-0.225,0.144-0.433,0.144-0.624v-2.721
		c-0.726-0.276-1.478-0.49-2.256-0.64c-0.779-0.148-1.573-0.224-2.384-0.224c-1.536,0-2.784,0.319-3.744,0.96
		c-0.96,0.64-1.44,1.482-1.44,2.527c0,0.513,0.102,0.992,0.305,1.44c0.202,0.448,0.479,0.838,0.832,1.168
		c0.352,0.331,0.772,0.592,1.264,0.784C685.278,1005.452,685.801,1005.549,686.355,1005.549z"/>
	<path fill="#424242" d="M705.78,1007.116c-1.152,0-2.203-0.239-3.152-0.72c-0.949-0.479-1.771-1.114-2.464-1.904
		c-0.693-0.789-1.231-1.695-1.615-2.72c-0.385-1.023-0.576-2.08-0.576-3.168c0-1.152,0.187-2.256,0.56-3.312
		c0.373-1.057,0.901-1.979,1.584-2.769c0.683-0.789,1.499-1.418,2.448-1.888c0.949-0.469,2-0.704,3.152-0.704
		c1.429,0,2.666,0.357,3.712,1.072c1.045,0.715,1.94,1.615,2.688,2.704v-3.488h1.952v16.736c0,1.151-0.219,2.17-0.656,3.056
		c-0.438,0.885-1.023,1.626-1.76,2.224s-1.6,1.045-2.592,1.345c-0.992,0.298-2.043,0.447-3.152,0.447
		c-1.92,0-3.467-0.341-4.64-1.023c-1.174-0.684-2.123-1.601-2.849-2.752l1.345-1.057c0.661,1.066,1.536,1.851,2.624,2.353
		c1.088,0.501,2.261,0.752,3.52,0.752c0.811,0,1.579-0.112,2.304-0.336c0.726-0.225,1.36-0.556,1.904-0.992
		c0.544-0.438,0.977-0.992,1.296-1.664c0.32-0.672,0.48-1.456,0.48-2.352v-3.297c-0.641,1.067-1.516,1.91-2.624,2.528
		C708.159,1006.808,706.996,1007.116,705.78,1007.116z M706.389,1005.293c0.64,0,1.269-0.117,1.888-0.353
		c0.618-0.234,1.179-0.549,1.68-0.944c0.501-0.394,0.923-0.837,1.265-1.327c0.341-0.491,0.564-0.992,0.672-1.504v-5.152
		c-0.235-0.597-0.556-1.152-0.96-1.664c-0.405-0.512-0.864-0.949-1.376-1.312c-0.513-0.362-1.062-0.65-1.648-0.863
		s-1.179-0.32-1.775-0.32c-0.939,0-1.776,0.197-2.513,0.592c-0.735,0.396-1.359,0.912-1.872,1.552
		c-0.512,0.641-0.901,1.366-1.168,2.177s-0.399,1.632-0.399,2.464c0,0.896,0.16,1.749,0.479,2.56
		c0.32,0.812,0.763,1.521,1.328,2.128c0.565,0.608,1.221,1.088,1.968,1.44C704.703,1005.116,705.514,1005.293,706.389,1005.293z"/>
	<path fill="#424242" d="M718.868,986.732v-3.2h2.176v3.2H718.868z M718.868,1006.893v-16.672h2.176v16.672H718.868z"/>
	<path fill="#424242" d="M725.939,983.532h2.176v19.584c0,0.619,0.171,1.104,0.512,1.456c0.342,0.353,0.821,0.528,1.44,0.528
		c0.234,0,0.512-0.032,0.832-0.096c0.32-0.064,0.618-0.149,0.896-0.256l0.385,1.76c-0.406,0.171-0.901,0.31-1.488,0.416
		s-1.094,0.16-1.521,0.16c-1.003,0-1.792-0.283-2.367-0.849c-0.576-0.564-0.864-1.359-0.864-2.384V983.532z"/>
	<path fill="#424242" d="M741.747,1007.213c-1.216,0-2.331-0.229-3.344-0.688c-1.014-0.458-1.894-1.088-2.64-1.888
		c-0.747-0.8-1.328-1.723-1.744-2.769c-0.416-1.045-0.624-2.165-0.624-3.359c0-1.173,0.208-2.277,0.624-3.312
		c0.416-1.034,0.992-1.94,1.728-2.72c0.736-0.778,1.616-1.397,2.641-1.856c1.023-0.458,2.133-0.688,3.328-0.688
		c1.216,0,2.33,0.229,3.344,0.688c1.013,0.459,1.883,1.083,2.607,1.872c0.726,0.79,1.291,1.696,1.696,2.721
		c0.405,1.023,0.608,2.111,0.608,3.264c0,0.171,0,0.342,0,0.512c0,0.171-0.011,0.288-0.032,0.353h-14.272
		c0.064,0.896,0.272,1.723,0.624,2.479c0.353,0.758,0.806,1.414,1.36,1.969s1.189,0.986,1.904,1.296
		c0.714,0.31,1.477,0.464,2.288,0.464c0.532,0,1.066-0.075,1.6-0.225c0.533-0.148,1.024-0.352,1.472-0.607
		c0.448-0.256,0.854-0.57,1.217-0.944c0.362-0.373,0.64-0.784,0.832-1.231l1.888,0.512c-0.256,0.619-0.619,1.179-1.088,1.68
		c-0.47,0.502-1.014,0.939-1.632,1.312c-0.619,0.373-1.302,0.661-2.049,0.863C743.337,1007.111,742.558,1007.213,741.747,1007.213z
		 M747.892,997.677c-0.064-0.896-0.272-1.712-0.624-2.448c-0.353-0.736-0.8-1.37-1.344-1.904c-0.544-0.532-1.174-0.948-1.889-1.248
		c-0.715-0.298-1.478-0.447-2.288-0.447s-1.578,0.149-2.304,0.447c-0.726,0.3-1.36,0.716-1.904,1.248
		c-0.544,0.534-0.981,1.174-1.312,1.92c-0.331,0.747-0.528,1.558-0.592,2.433H747.892z"/>
	<path fill="#424242" d="M770.003,1007.213c-1.408,0-2.651-0.357-3.729-1.072s-1.946-1.616-2.607-2.704v10.272h-2.176v-23.488h1.951
		v3.231c0.683-1.045,1.568-1.893,2.656-2.544c1.088-0.65,2.272-0.976,3.552-0.976c1.152,0,2.208,0.24,3.168,0.72
		c0.961,0.48,1.792,1.12,2.496,1.92c0.704,0.801,1.253,1.724,1.648,2.769c0.395,1.045,0.592,2.123,0.592,3.231
		c0,1.174-0.182,2.283-0.544,3.328c-0.363,1.046-0.88,1.963-1.552,2.752c-0.672,0.79-1.472,1.414-2.4,1.872
		C772.131,1006.983,771.112,1007.213,770.003,1007.213z M769.395,1005.293c0.896,0,1.712-0.192,2.448-0.576s1.365-0.891,1.888-1.521
		c0.522-0.629,0.923-1.344,1.2-2.144s0.416-1.627,0.416-2.48c0-0.896-0.16-1.749-0.479-2.56c-0.32-0.811-0.758-1.525-1.312-2.145
		c-0.555-0.618-1.211-1.108-1.968-1.472c-0.758-0.362-1.573-0.544-2.448-0.544c-0.555,0-1.136,0.112-1.744,0.336
		c-0.607,0.224-1.173,0.523-1.695,0.896c-0.523,0.373-0.972,0.811-1.345,1.312c-0.373,0.502-0.603,1.029-0.688,1.584v5.12
		c0.256,0.598,0.581,1.152,0.976,1.664s0.843,0.955,1.345,1.328c0.501,0.373,1.039,0.667,1.615,0.88
		C768.179,1005.187,768.775,1005.293,769.395,1005.293z"/>
	<path fill="#424242" d="M789.554,992.141c-1.472,0.043-2.752,0.448-3.84,1.216c-1.088,0.769-1.855,1.824-2.304,3.168v10.368h-2.176
		v-16.672h2.048v4c0.618-1.28,1.45-2.282,2.496-3.008c1.045-0.726,2.165-1.088,3.359-1.088c0.171,0,0.31,0.011,0.416,0.031V992.141z
		"/>
	<path fill="#424242" d="M798.738,1007.213c-1.216,0-2.325-0.229-3.328-0.688c-1.003-0.458-1.872-1.082-2.607-1.872
		c-0.736-0.789-1.308-1.706-1.712-2.752c-0.406-1.045-0.608-2.144-0.608-3.296c0-1.173,0.208-2.282,0.624-3.328
		c0.416-1.045,0.992-1.962,1.728-2.752c0.736-0.789,1.605-1.418,2.608-1.888c1.003-0.469,2.101-0.704,3.296-0.704
		c1.194,0,2.299,0.235,3.312,0.704c1.013,0.47,1.888,1.099,2.624,1.888c0.735,0.79,1.312,1.707,1.728,2.752
		c0.416,1.046,0.624,2.155,0.624,3.328c0,1.152-0.203,2.251-0.608,3.296c-0.405,1.046-0.976,1.963-1.712,2.752
		c-0.735,0.79-1.61,1.414-2.624,1.872C801.069,1006.983,799.954,1007.213,798.738,1007.213z M792.69,998.637
		c0,0.938,0.16,1.808,0.479,2.607c0.32,0.801,0.753,1.505,1.297,2.112c0.544,0.608,1.184,1.083,1.92,1.424
		c0.735,0.342,1.52,0.513,2.352,0.513s1.616-0.177,2.353-0.528c0.735-0.353,1.381-0.832,1.936-1.44
		c0.555-0.607,0.992-1.316,1.312-2.128c0.32-0.811,0.48-1.685,0.48-2.624c0-0.917-0.16-1.786-0.48-2.607
		c-0.319-0.821-0.757-1.536-1.312-2.145c-0.555-0.607-1.2-1.088-1.936-1.439c-0.736-0.353-1.521-0.528-2.353-0.528
		s-1.611,0.176-2.336,0.528c-0.726,0.352-1.365,0.837-1.92,1.456s-0.992,1.339-1.312,2.159
		C792.851,996.818,792.69,997.698,792.69,998.637z"/>
	<path fill="#424242" d="M809.522,998.509c0-1.173,0.202-2.282,0.608-3.328c0.404-1.045,0.976-1.957,1.712-2.736
		c0.735-0.778,1.615-1.392,2.64-1.84s2.154-0.672,3.392-0.672c1.579,0,2.955,0.357,4.128,1.072c1.174,0.715,2.059,1.68,2.656,2.896
		l-2.111,0.672c-0.47-0.853-1.126-1.52-1.969-2c-0.843-0.479-1.775-0.72-2.8-0.72c-0.854,0-1.647,0.171-2.384,0.512
		c-0.736,0.342-1.376,0.806-1.92,1.393s-0.972,1.285-1.28,2.096c-0.31,0.812-0.464,1.696-0.464,2.656
		c0,0.938,0.16,1.824,0.479,2.656c0.32,0.831,0.758,1.552,1.312,2.159c0.555,0.608,1.2,1.088,1.936,1.44
		c0.736,0.352,1.521,0.528,2.353,0.528c0.533,0,1.061-0.075,1.584-0.225c0.522-0.148,1.008-0.356,1.456-0.624
		c0.448-0.267,0.832-0.57,1.151-0.912c0.32-0.341,0.545-0.704,0.673-1.088l2.144,0.641c-0.235,0.597-0.576,1.146-1.024,1.647
		c-0.447,0.502-0.976,0.939-1.584,1.312c-0.607,0.373-1.279,0.661-2.016,0.863c-0.736,0.203-1.499,0.305-2.288,0.305
		c-1.216,0-2.336-0.229-3.359-0.688c-1.024-0.458-1.91-1.088-2.656-1.888c-0.747-0.8-1.328-1.723-1.744-2.769
		C809.73,1000.823,809.522,999.703,809.522,998.509z"/>
	<path fill="#424242" d="M835.282,1007.213c-1.216,0-2.331-0.229-3.344-0.688c-1.014-0.458-1.894-1.088-2.64-1.888
		c-0.747-0.8-1.328-1.723-1.744-2.769c-0.416-1.045-0.624-2.165-0.624-3.359c0-1.173,0.208-2.277,0.624-3.312
		c0.416-1.034,0.992-1.94,1.728-2.72c0.736-0.778,1.616-1.397,2.641-1.856c1.023-0.458,2.133-0.688,3.328-0.688
		c1.216,0,2.33,0.229,3.344,0.688c1.013,0.459,1.883,1.083,2.607,1.872c0.726,0.79,1.291,1.696,1.696,2.721
		c0.405,1.023,0.608,2.111,0.608,3.264c0,0.171,0,0.342,0,0.512c0,0.171-0.011,0.288-0.032,0.353h-14.272
		c0.064,0.896,0.272,1.723,0.624,2.479c0.353,0.758,0.806,1.414,1.36,1.969s1.189,0.986,1.904,1.296
		c0.714,0.31,1.477,0.464,2.288,0.464c0.532,0,1.066-0.075,1.6-0.225c0.533-0.148,1.024-0.352,1.472-0.607
		c0.448-0.256,0.854-0.57,1.217-0.944c0.362-0.373,0.64-0.784,0.832-1.231l1.888,0.512c-0.256,0.619-0.619,1.179-1.088,1.68
		c-0.47,0.502-1.014,0.939-1.632,1.312c-0.619,0.373-1.302,0.661-2.049,0.863C836.872,1007.111,836.093,1007.213,835.282,1007.213z
		 M841.427,997.677c-0.064-0.896-0.272-1.712-0.624-2.448c-0.353-0.736-0.8-1.37-1.344-1.904c-0.544-0.532-1.174-0.948-1.889-1.248
		c-0.715-0.298-1.478-0.447-2.288-0.447s-1.578,0.149-2.304,0.447c-0.726,0.3-1.36,0.716-1.904,1.248
		c-0.544,0.534-0.981,1.174-1.312,1.92c-0.331,0.747-0.528,1.558-0.592,2.433H841.427z"/>
	<path fill="#424242" d="M852.401,1007.213c-1.301,0-2.57-0.214-3.808-0.641c-1.237-0.426-2.304-1.045-3.2-1.855l0.992-1.473
		c0.938,0.769,1.894,1.345,2.864,1.729s2.011,0.576,3.12,0.576c1.344,0,2.416-0.272,3.216-0.816s1.2-1.316,1.2-2.32
		c0-0.469-0.107-0.858-0.32-1.168c-0.214-0.309-0.528-0.58-0.944-0.815c-0.416-0.234-0.938-0.442-1.567-0.624
		c-0.63-0.181-1.36-0.368-2.192-0.561c-0.96-0.234-1.792-0.469-2.496-0.703c-0.704-0.235-1.285-0.501-1.744-0.801
		c-0.459-0.298-0.8-0.666-1.023-1.104c-0.225-0.438-0.336-0.986-0.336-1.648c0-0.832,0.165-1.567,0.496-2.208
		c0.33-0.64,0.778-1.168,1.344-1.584c0.564-0.416,1.227-0.73,1.983-0.943c0.758-0.213,1.562-0.32,2.416-0.32
		c1.28,0,2.443,0.208,3.488,0.624s1.888,0.966,2.528,1.647l-1.056,1.28c-0.619-0.64-1.371-1.12-2.257-1.439
		c-0.885-0.32-1.808-0.48-2.768-0.48c-0.576,0-1.109,0.06-1.6,0.176c-0.491,0.118-0.924,0.305-1.297,0.561s-0.667,0.581-0.88,0.976
		c-0.213,0.396-0.319,0.859-0.319,1.393c0,0.447,0.074,0.811,0.224,1.088s0.395,0.518,0.736,0.72
		c0.341,0.203,0.772,0.384,1.296,0.544c0.522,0.16,1.157,0.325,1.903,0.496c1.067,0.256,2.006,0.512,2.816,0.768
		c0.811,0.257,1.488,0.556,2.032,0.896c0.544,0.342,0.954,0.758,1.231,1.248c0.277,0.491,0.416,1.088,0.416,1.792
		c0,1.536-0.587,2.752-1.76,3.647C855.964,1006.765,854.386,1007.213,852.401,1007.213z"/>
	<path fill="#424242" d="M867.985,1007.213c-1.301,0-2.57-0.214-3.808-0.641c-1.237-0.426-2.304-1.045-3.2-1.855l0.992-1.473
		c0.938,0.769,1.894,1.345,2.864,1.729s2.011,0.576,3.12,0.576c1.344,0,2.416-0.272,3.216-0.816s1.2-1.316,1.2-2.32
		c0-0.469-0.107-0.858-0.32-1.168c-0.214-0.309-0.528-0.58-0.944-0.815c-0.416-0.234-0.938-0.442-1.567-0.624
		c-0.63-0.181-1.36-0.368-2.192-0.561c-0.96-0.234-1.792-0.469-2.496-0.703c-0.704-0.235-1.285-0.501-1.744-0.801
		c-0.459-0.298-0.8-0.666-1.023-1.104c-0.225-0.438-0.336-0.986-0.336-1.648c0-0.832,0.165-1.567,0.496-2.208
		c0.33-0.64,0.778-1.168,1.344-1.584c0.564-0.416,1.227-0.73,1.983-0.943c0.758-0.213,1.562-0.32,2.416-0.32
		c1.28,0,2.443,0.208,3.488,0.624s1.888,0.966,2.528,1.647l-1.056,1.28c-0.619-0.64-1.371-1.12-2.257-1.439
		c-0.885-0.32-1.808-0.48-2.768-0.48c-0.576,0-1.109,0.06-1.6,0.176c-0.491,0.118-0.924,0.305-1.297,0.561s-0.667,0.581-0.88,0.976
		c-0.213,0.396-0.319,0.859-0.319,1.393c0,0.447,0.074,0.811,0.224,1.088s0.395,0.518,0.736,0.72
		c0.341,0.203,0.772,0.384,1.296,0.544c0.522,0.16,1.157,0.325,1.903,0.496c1.067,0.256,2.006,0.512,2.816,0.768
		c0.811,0.257,1.488,0.556,2.032,0.896c0.544,0.342,0.954,0.758,1.231,1.248c0.277,0.491,0.416,1.088,0.416,1.792
		c0,1.536-0.587,2.752-1.76,3.647C871.548,1006.765,869.97,1007.213,867.985,1007.213z"/>
</g>
<g opacity="0.7">
	<g>
		<path fill="#424242" d="M869.595,1016.646l-194.23-4.154l194.23-4.156c2.295-0.049,4.195,1.771,4.244,4.066
			s-1.771,4.195-4.066,4.244C869.719,1016.648,869.648,1016.648,869.595,1016.646z"/>
		<g>
			<polygon fill="#424242" points="862.012,1002.494 866.259,1012.492 862.012,1022.49 885.713,1012.492 			"/>
		</g>
	</g>
</g>
</svg>
